<?xml version="1.0" encoding="UTF-8"?>
<svg version="1.1" viewBox="0 0 1600 669" width="1280" height="1280" xmlns="http://www.w3.org/2000/svg">
<path transform="translate(0)" d="m0 0h1600v669h-1600z" fill="#FDFAF7"/>
<path transform="translate(954,87)" d="m0 0 13 2 9 7 9 11 7 8 8 8 3 1 9-2h15l13 3 6 3h7l9-2h10l8 4 5 4 7 15 5 18 2 12v24l-7 31-11 28-8 18-3 1h-5l-8 31-2 4v5l3 2v2l-9 2-8 6-8 8-2 1h-6l-7-5 1-7 6-11 12-14 6-8 4-5 1-3v-18l-4-16-1-2v-11l-7-11-3-8v-12l-4-2-12-10-7-4-4-7 1-7-4-12-6-7-11-4h-12l-7 4-17 2-8-2h-5l-1 5 4 3 2 7 8 5 1 7 6 5 4 7 7 5 15 5 11 6 4 4 4 9 9 11 2 4 4 2 7 8 6 7 2 4-1 5-3 6-10 7-1 6 4 4 2 8-8 10-6 3-8-2-6-4-8-5v-10l-3-9 3-5 4-2v-6l-10-13-4-5-11-9-10-7-4-1-4 3v6l3 7 2 15 8 10 4 6 2 11-3 5-4 6-8 4h-2l-3 9-2 2-2 5-6 5-5 7h-2l-2 5-3 4h-3l-2 4-13 6-10 5h-14l-6 2h-17l-8 1h-11l-12 1-8 4-5 2-8 9-1 2 16 2 5 3 1 3-1 1h-7l-11-3-3-2h-9l-5 2-7-1-7-3v-3l6-2 1-5-1-3 5-6 4-2 9 1 8 3 6 1v-8h-14l-9-5-3-5-9-5-4-4v-2l-8-1-9-1-16-3-8-5 2-3 9 1-13-5-33-7-10-1-11-4-13-5-3-3v-5l4-3h2v-4l-9 1-2-1-3-22-5-14-4-1-7 2-1-5 7-6 2-3v-8l6-7 10-15 4-10 3-10 4-10 1-3 1-11v-17l6-10 7-8h2v-2l5-5 5-7 1-8-5-5-2-1 1-9 2-7 187-1z" fill="#FBBDAE"/>
<path transform="translate(501,88)" d="m0 0h184l1 4-4 20-7 18-3 9-5 4 2 22v13l-9 9-4 1-1 3-5 3-3-1-5-18h-2l-7 11v10l3 8v7l-6 16-9 11-8 8h-5l2-9 1-4v-10l-9-3-12-1-2 15-4 11-5 1-11-1-6-2-1-2-1-30-4-22h-2l-1-2v-6l-4-2-3-3v-2l-4-2-7-8-14-9-3 1 18 27 4 5 5 12 3 11 3 20 1 12-18 3h-9l-11-6-11-7-23-13v-7l1-8-13-7-12-9-11-9-4-7-2-5-23-3-12-5-5-5-3-5 1-4 16-5 17-2v-2l15-4 15-2h6l2-7h7l15 4 14 5 11 4-4-5-10-6-13-4-27-6-13-1h-19l-12 3-12 6-8 3h-4v-5l16-15 8-9 13-4 8-1 32-1 19-2z" fill="#FCBEAE"/>
<path transform="translate(974,157)" d="m0 0h12l11 4 8 10 3 11-1 6 3 5v2l5 2 13 10 5 4 1 5v7l4 9 6 10v11l4 12 1 6v18l-4 7-6 7-8 10-8 11-4 8-5-1-6 5-5 5-5 1-14-1-8 2-4 5-5 8 1 2-10 6-2-1 1-2-5 4v3l-3 3 1 7 7 2 1 2v9l-4 5-5 2-6-2-5 1-4 4 2-9-2 1-15 2-10 4-7 6 1 7-13 5-12 1-9-3 3-4v-2h-6l-2 1-1 4-5 1 3-6-3 1-3 4-3 1h-11l-9-4 2-2 6-1-2-3-14-5-4-1-4 1v1l4 4 3 2 2 3-18 5-7 1h-3l-9-2-9-7h3l-5-4-6-1-3-1-3-2h-2v-2l-3 1-6-2-4-1v-2l-5 1-2-1v-2l-4 1-11-6-2-1v-2l-9-3-16-8-10-4-12-8-7-11-4-2-13-1-4-1-5-1-6-4-9-12-1-3-18-14-8-11-6-9-3-5-4-2-6-5 1-5 2-2 24-1 2 1v-2l3-1 11-5 7-3 3-12 1-2-3-4-1-5 5-5 6-5h2v-2l5-4 11-16 2-7 5-7 1 3-4 12-5 10-6 8-4 6-3 3v8l-5 6-4 3v4l10-2 3 5 4 11 2 17v5l11-1 1 3-3 3-3 2v5l5 3 12 5 9 3 15 2 28 6 13 5 1 2-10-1v2l6 4 16 3 9 1h5l8 8 9 5 3 5 8 4h12l3 3-1 6-10-1-7-3h-6l-6 4-2 5 1 2-1 5-7 1 1 3 9 3 6-1 3-1h9l6 3 8 2h7l-2-4-19-4 2-4 8-9 11-4 1-1 13-1h10l8-1h17l6-2h14l24-12 1-2 3-1 5-8 13-13 2-5 5-10 10-5 4-6 2-4-2-11-8-11-4-5-2-15-3-7v-6l5-4 6 2 9 7 13 11 12 16v6l-6 4-1 4 3 8v10l8 5 7 4 6 1 6-2 2-4 5-7-3-8-3-3 1-6 11-8 3-7-1-5-6-8-7-7-7-8-10-12-4-9-5-4-10-5-15-5-7-6-4-7-5-4-1-7-8-5-2-7-4-3 1-5 1-1 11 1 4 1 15-2z" fill="#FEEEE3"/>
<path transform="translate(1260,88)" d="m0 0h45l26 1 1 2-13 3h15l7-4 4-1 17-1h29l-2 5-6 9-15 8-13 4-5 1-23 1-35-2-22-1 4 2 49 8 10 1h40l21 3 11 1 35 1 25-1 20-3 21-7 6-3h2v6l-14 4-5 3v3l19 2 1 7-19-2h-33l-27 1h-34l-8-1h-19l15 6 29 10 18 8 13 9h2l8 8 7 8 6 12 1 6-4 6-6 4-8 1-13-4-16-7-25-13-14-9-5-5-5-4v-2l-3-1-2-5h-2l-8-12-8-10-7-4-24-4-16-3-24-4-13-2-35-5-18-1-1-1-22-2-16-1-27-1-20 2 10 5 3 1v2l5 2 11 4 24 5 14 3 10 5 8 7 16 24 7 14-1 6-4 4 1 9 3 9 1 6v12l-3 2-6 1-19-10-23-10-14-8-9-9-10-15-7-14-4-11-3-4v-5l5-5-1-5-14-15-4-3-7-5-10 1-19 4h-7l-11-11 4-2 17-1 18-2 14-1 5-1 45-1h59l7-4h2v-2l5-2 1-3z" fill="#A8C5B5"/>
<path transform="translate(664,363)" d="m0 0 5 2 11 7 2 2 1 2h3v2l6 2 5 2v2l4 1 7 3v2l5 1 19 8 18 6 10 6 12 11 5 10 1 8-5 4-4 2h-7l-8-4-9-7-13-12-9-6 4 7 10 10 8 7 7 7 13 10 14 9 6 4 1 3-5 4 2 4 9 14 4 13-2 6-5 1-9-3-5-5-10-9-4-4v-2h-2v-2l-4-2-1-1-3 12-3-1-7-24-2-12-8-11-9-11-13-19-10-15-1-4h-2v-3h-2l-2-3 4 16 13 25 11 23 14 29 9 17 5 5v2h2l4 5v2h2l5 6 10 7 17 8-1 5-2 3 1 7 5 5 3 5v3l-8-1-11-4-8-5-4-2-4 5-5 1-6-3-3-2-1 1v12l-10 15-5 4-8-4-5-8-3-7v-20l-5 5-5 6h-2l-1-4 3-6 9-7 1-4-1-1-8-1v-3l13-1 1-1v-15l-2-20-6-25-7-19-15-31-10-18v13l7 10 9 11 3 6v7l-2 1-1 6-5 5-5 3-5 1-3 3-5-1-14-7-9-7-6-5-2-5 9-9 1-5-8-3 2-4 10-4 11-4 8-1-2-13-3-21-4-18z" fill="#A9C4B5"/>
<path transform="translate(175,88)" d="m0 0h149l11 6 11-1 37-4h14v7l-16 4-23 5-4 3-11 1-19 4-38 11-39 12-17 5-6 4-8 11-8 15-4 6h-2l-2 5h-2l-2 4-13 13-16 12-20 12-16 8h-8l-8-4-2-4v-8l3-13 6-10 9-9 14-10 15-9 27-13 13-8h-8l-35 6-72 8-25 6h-2v-6l20-6 6-3-3-2-23-5v-6l5 1 12 4 17 3h31l21-2 36-7 25-6 27-3 25-6 35-10 11-2v-2l-23 4-28 6-7 1h-29l-17-4-10-4-4-8-11-10z" fill="#A9C5B6"/>
<path transform="translate(1066,331)" d="m0 0 4 2 12 17 13 15 8 6 6 2 19 1v4l-9 2h-8-2l9 10 11 14 8 14 4 15v10l-3 5-5 3-10-2-3-2v-2l-4-2-12-11-7-10-7-12v-2h-2l-1 9-3 5-3 1-1-2 3-11v-19l-4-15-9-17-5-11v-2h-2l5 23 1 25-3 12-2 19-2 39v16l-3 7-5 5h-10l-7-6-3-8v-16l3-15 4-8 7-11 3-11 2-15v-23l-1-8h-3l-2 5-10 13-4 5-8 7-8 6-5 1 2-30 2-9 2-3 5-2 7-2 11-7 13-11z" fill="#A8C5B5"/>
<path transform="translate(688,397)" d="m0 0 4 2 5 16 12 23 11 23 14 29 9 17 5 5v2h2l4 5v2h2l5 6 10 7 17 8-1 5-2 3 1 7 5 5 3 5v3l-8-1-11-4-8-5-4-2-4 5-5 1-6-3-3-2-1 1v12l-10 15-5 4-8-4-5-8-3-7v-20l-5 5-5 6h-2l-1-4 3-6 9-7 1-4-1-1-8-1v-3l13-1 1-1v-15l-2-20-6-25-7-19-15-31-7-13v-8l5-5z" fill="#97CBAC"/>
<path transform="translate(608,89)" d="m0 0h10l9 4 15 2 5 3 3 2 1 10-4 11-4 3-5 2-4-1v-2l-6-2-3-3v-2l-5 1-1 1-1 12v10l1 14 1 1v7l-4 8-6 1v-2l-4-2-10-11-3-3-4 4-5 1-7-3-6-7-5-6v-2l-5-2-4-5-1-5 4-4 7 1 6 3 4-1-2-5-10-7-7-3-9-4-16-5-3-2v-2h2v-2l21-4 23-2 31-1z" fill="#E37E7B"/>
<path transform="translate(376,123)" d="m0 0 4 1 3 8-1 4-3 5 1 7 26 22 13 8v3l-12 12-13 9-20 12-14 10-10 1-3-1 1-17 1-19-5-5-1-6 3-11 8-16 9-17 11-9z" fill="#A9C5B6"/>
<path transform="translate(545,259)" d="m0 0h7l3 4 2 5 2 7h2l2 5h-1l-1 24-4 10-5 8-1 6-1 2h-2l1 9 5 4v12l-2 9h-4l-9-5-5-1-4 5h-3l1-9v-13h2l-1-3h2l1-6 4-4 10-3h3l-5-11-3-1-2-3-1-5-12 26-5 10-3 1 3-9 9-22 11-22 9-16 1-3v-9l-4 2-7 11-4 5-11 22-1 3h-2l-1 4-4 6 2 6-1 8-9 19-5 2-9 1-2-2v2l4 1-1 2-4 4-2 7-4 10-2 6h-2v2h-4l1-8h2l1-6 4-11 1-3-9 7-9 6-12 12-5 6-7-6-8-3 1-6 8-6 15-5 5-1h7l1 1 14-14v-2l5-5 9-10 8-10 9-17 1-4-6 4-5 4-1-3-4 2-3 2-3-1-4-4 1-4 1-3 17-13 12-6 8-1 9-12z" fill="#A9C5B5"/>
<path transform="translate(528,252)" d="m0 0h2l-2 4-16 8-5 2v2h-2l-2 6-16 26-8 9-10 14-11 10-11 7-8 3-4-1-3-10 4-10 5-6 19-12 17-8 7-3 9-11 5-8v-3l-23 11-22 11-16 9-22 10-35 12-13 10-12 9-11 9 2 10-8 10-9 8-9 6-5 2h-5l-5-6 1-9 7-14 6-7 10-4 13-1 8-4 10-8 8-5 1-3-25 5-27 6-52 8-19 10-16 8-11 4-1-3 9-8 14-7 16-6 7-3 36-5 23-3 10-2-4-3-15-7 3-1 16 7 4 2 9-1 29-7 32-11 25-11 26-14 19-10 26-14 20-8z" fill="#A8C4B5"/>
<path transform="translate(1125,283)" d="m0 0 11 2 7 3v18l-1 7h3l2-6v-14l2 1 1 3v14l-4 11-4 6 1 11-5 3-4 5-8 4-5 4-6-2-8-3-2 10-5-1-5-3-2-3v-6l4-13 2-11-6-2-1-5v-6l7-6 6-8 9-8z" fill="#F3A892"/>
<path transform="translate(700,405)" d="m0 0 5 1 10 6 4 5 8 7 10 10 8 7 7 7 13 10 14 9 6 4 1 3-5 4 2 4 9 14 4 13-2 6-5 1-9-3-5-5-10-9-4-4v-2h-2v-2l-4-2-1-1-3 12-3-1-7-24-2-12-8-11-9-11-13-19-9-13z" fill="#97CBAC"/>
<path transform="translate(592,321)" d="m0 0 5 1 6 7-4 16-9 27-8 16-8 13-10 13-10 14-10 13-11 13-9 9-6 7h-3l3-9 18-37 11-23 14-26 10-14 12-15 7-14z" fill="#A9C5B6"/>
<path transform="translate(974,88)" d="m0 0h41l13 1 10 3 2 2-1 13-2 9 10 3 20 3 9 3 6 3 4 5-1 3-5-5-8-4h-10l-9 2h-7l-8-4-11-2h-15l-10 2-8-7-9-9-9-12-6-5z" fill="#FEEEE3"/>
<path transform="translate(671,418)" d="m0 0 6 1 8 11 9 11 3 6v7l-2 1-1 6-5 5-5 3-5 1-3 3-5-1-14-7-9-7-6-5-2-5 9-9 1-5-8-3 2-4 10-4 11-4z" fill="#FEC19D"/>
<path transform="translate(508,159)" d="m0 0 5 3 10 9 7 8 8 8 3 7 5 13 1 5v9l-3 1-9-5-23-6-16-8-5-3v-4l7-3-2-4-6-5 2-4 1-4 4-1 2-3 1-3 2-3 1-6 2 2z" fill="#FEC09D"/>
<path transform="translate(560,173)" d="m0 0 5 2 5 4 5 14 4 3 3-1 3-7 7 1 2 5-3 6h-3v19h2l-2 15-4 11-5 1-11-1-6-2v-29l-1-15 1-15-2-9z" fill="#FEC9AE"/>
<path transform="translate(921,99)" d="m0 0h2v3l2 1-1 3h2l-2 4-1 6 4 1h14l9 1 6 1 5 3-1 2-5 1 9 2 10 2 3 2-6 2-4 1v-1h-11l-5 2-2-1h-22l-3-1-5 1-5-3-6 2-4-3-9-3-3 1h-3v-7l-3-3 1-4 6-5 7-4 5 2 5-6 2 1z" fill="#F3A892"/>
<path transform="translate(364,251)" d="m0 0h10l10 5 14 14 4 3v2l4 2 8 3 18 5 10 5v2l-27-9-4-1h-37l-17-3-2-1v-2l-5-1-10-8-1-3 16-10z" fill="#A8C5B5"/>
<path transform="translate(735,401)" d="m0 0 7 1 14 6 14 12 6 9 2 6v5l-5 4-4 2h-7l-8-4-9-7-13-12-9-6-1-4 5-6h2v-2z" fill="#97CBAC"/>
<path transform="translate(521,305)" d="m0 0v3l-4 6 2 6-1 8-9 19-5 2-9 1-2-2v2l4 1-1 2-4 4-2 7-4 10-2 6h-2v2h-4l1-8h2l1-6 4-11 1-3-9 7-9 6-12 12-5 6-7-6-8-3 1-6 8-6 15-5 5-1h7l1 1 14-14v-2l5-5 9-10 8-10z" fill="#FCBEAF"/>
<path transform="translate(608,333)" d="m0 0 4 1 5 4 14 38 3 8 7 9 5 5 4 5 3 3v2h2v3h2l1 2v6h-10l-6-2v-2h-4v-2l-4-2-3-2v-2h-2l-6-14-4-14-3-9-8-32z" fill="#A8C5B5"/>
<path transform="translate(249,267)" d="m0 0h7l15 9v2l4 1 5 5 14 22 9 7 9 5-2 1-16-8-8-1-5-1-12-4-20-16-9-8-1-5 7-7z" fill="#A9C5B6"/>
<path transform="translate(545,259)" d="m0 0h7l3 4 2 5 2 7h2l2 5-6-3-4 1-9 14-18 39-5 10-3 1 3-9 9-22 11-22 9-16 1-3v-9l-4 2-7 11-4 5-11 22-1 3-6 5-5 5 2-5 4-8 1-4-6 4-5 4-1-3-4 2-3 2-3-1-4-4 1-4 1-3 17-13 12-6 8-1 9-12z" fill="#A8C4B5"/>
<path transform="translate(377,323)" d="m0 0 3 1-13 10-12 9-11 9 2 10-8 10-9 8-9 6-5 2h-5l-5-6 1-9 7-14 6-7 10-4 13-1 8-4 10-8 8-5 1-3h2v-2z" fill="#A8C4B5"/>
<path transform="translate(1011,129)" d="m0 0 13 1 9 2v3l-1 3 4 8 7 10 8 14 8 20 4 14 1 6v15l-1 2-4-1-9-10-2-3-1-5v-7l3-5v-7l-2-5-3-3-7-14-7-11-2-4h-2l-3-4-2-6-5-6-7-3z" fill="#FEEEE3"/>
<path transform="translate(1104,247)" d="m0 0 6 1 9 4 10 4 13 6 16 6 15 6 21 10 10 6 8 3 18 3h7l5-4 5-1h7l15 4 5 4-1 4-4 2v2l-9 4h-8l-11-5-4-4-7-3-15-4 3 5 8 6 8 8 3 2-2 1-9-6-10-9-22-14-17-9-27-11-26-10-20-9z" fill="#A9C5B5"/>
<path transform="translate(454,157)" d="m0 0 5 3 14 15 10 5 5 6v2l-3 2h-5l-2 4-3 1v5l-5-1-14-10-11-9-1-1v-8l2-4 2-1 2-7z" fill="#FED3B1"/>
<path transform="translate(671,418)" d="m0 0 6 1 8 11 9 11 3 6v7l-2 1-1 6-3 3-1-2h2l-3-8-4-6v-2l-5-2-8-4-10-3-9-1-2 4-3 5-4 5-2 3-2-5 9-9 1-5-8-3 2-4 10-4 11-4z" fill="#FED2B1"/>
<path transform="translate(735,542)" d="m0 0 4 2 5 5 7 6 5 4 3 1v3l-5 1-6-3-3-2-1 1-1 11-8 11-4 5h-7l-5-6-3-8-2-21 5 3 3 4 8 1 2-5 2-3z" fill="#79C09C"/>
<path transform="translate(697,96)" d="m0 0 1 4-1 5 5 2 3 4-1 8-9 12h-2v2l-5 5-7 9-2 4-1 6h-1v-12l-5-2v-3l-2-1 2-1 4-13 6-16 4-1 6-5 4-4z" fill="#FFEEE3"/>
<path transform="translate(385,319)" d="m0 0h4v2l-22 6-44 10-58 9-19 10-16 8-11 4-1-3 9-8 14-7 16-6 7-3 36-5 23-3 10-2-4-3-15-7 3-1 16 7 4 2 9-1 25-6z" fill="#A7C5B5"/>
<path transform="translate(852,364)" d="m0 0h15l4 3v2l17-1 4-1h9l2 2-3 6-4 4-10-1-3-4v4l2 1-5-1-1-4h-7l-3 1-2 6-9 4h-8l-5-9v-2l-4-2 1-4 3-2z" fill="#FDFAF7"/>
<path transform="translate(475,386)" d="m0 0 6 1-4 16-2 13-5 15-2 2-8-7-4-2v-2l-12 1-1-3 7-8 11-9 9-9z" fill="#FED2B1"/>
<path transform="translate(1160,243)" d="m0 0 14 1 11 4 6 4-2 5-7 5-6 1-16-5-17-6-6-1-20-1 3-2 16-3z" fill="#A9C5B6"/>
<path transform="translate(554,276)" d="m0 0 5 1 2 2v25l-4 10-6 11h-2l-5-11-3-1-2-3-1-8 9-17z" fill="#FEC19E"/>
<path transform="translate(702,318)" d="m0 0h9l8 2v11l-1 9-5 5-9 3h-9l-5-3v-2l-3-1-1-6 5-4 10-2 1-4-5-5v-2z" fill="#FDFAF7"/>
<path transform="translate(1168,296)" d="m0 0 7 6 8 8 5 7 4 10 2 6v6h-7l-10-4-7-6-3-8v-14z" fill="#A8C5B5"/>
<path transform="translate(1065,280)" d="m0 0h8l-3 15-5 10 4 5-1 9-6 10-6 4h-7l-5 4-7 4-5 3h-6l-8-4h-2l-1-3 2-5h1l2 6 5 3h6l16-14 4-2h7v-2l-4-2 1-7 4-13 5-20z" fill="#FEEEE3"/>
<path transform="translate(1236,335)" d="m0 0 2 4 2 7 3 3 4 10 1 5v20l-2 4h-5l-8-5-1-4v-21l3-12z" fill="#A9C5B6"/>
<path transform="translate(731,508)" d="m0 0h2l11 17 12 23 4 7-1 4-6-2-8-6-6-5-7-11-1-3z" fill="#FDFAF7"/>
<path transform="translate(514,349)" d="m0 0h1l1 7-13 33-4 10-2 1-4-7-4-11-3-5 13-11 6-5 4-5h2l2-5z" fill="#FCBEAF"/>
<path transform="translate(984,161)" d="m0 0h6l5 5 5 8 1 4h-2l1 4-6 5-1 3-2-5v5 3l-6-4h-3l-2-4-5-3-1-6 3-5v-3l4-6z" fill="#FDFAF7"/>
<path transform="translate(781,483)" d="m0 0 5 3 6 10 4 13-2 6-5 1-9-3-5-5-10-9-3-5 2-1 3 2 8-1 5-3z" fill="#7EC09F"/>
<path transform="translate(521,305)" d="m0 0v3l-4 6 2 6-1 8-9 19-5 2-9 1-2-2 1-5 3-6 1-5 8-9 9-11z" fill="#FEC09E"/>
<path transform="translate(545,259)" d="m0 0h7l3 4 2 5 2 7h2l2 5-6-3-4 1-9 14-18 39-5 10-3 1 3-9 9-22 11-22 9-16 1-3v-9l-4 2-7 11-5 6-2-2 1-5 8-11z" fill="#9DC4B0"/>
<path transform="translate(1093,272)" d="m0 0h5l-1 8-2 5v4l-4 3h-2l3 4-1 7-6 8-2 3v6l-3 2-4-1v-7l6-22 10-19z" fill="#A9C5B6"/>
<path transform="translate(779,540)" d="m0 0 7 1 2 1-1 5-2 3 1 7 5 5 3 5v3l-8-1-11-4-8-5-1-3 4-2h4l2-5 2-7z" fill="#80C0A0"/>
<path transform="translate(750,407)" d="m0 0 6 1 14 12 6 9 2 6v5l-5 4-2 1h-7v-10l1-9-1-3h-2l-7-8-5-5z" fill="#7CC09E"/>
<path transform="translate(454,157)" d="m0 0 5 3 12 13h-3l-5-5-3-1v-2l-3 1-4 5 2 6 12 13 1 7-11-7-13-11v-8l2-4 2-1 2-7z" fill="#FEC9AE"/>
<path transform="translate(774,347)" d="m0 0 7 1 9 4 1 4-4 8-4 2h-10l-9-3 1-5h2l2-5 3-5z" fill="#FDFAF7"/>
<path transform="translate(1511,447)" d="m0 0h2v172l-2 2v-35l-1-92z" fill="#FFEEE3"/>
<path transform="translate(663,432)" d="m0 0h9l17 6 1-2 6 8 1 3v7l-2 1-1 6-3 3-1-2h2l-3-8-4-6v-2l-5-2-8-4-10-3-1-4z" fill="#FCBFAF"/>
<path transform="translate(1011,129)" d="m0 0 13 1 9 2v3l-1 3 4 8 7 10 3 5-1 2-8-12-3-3v-2h-3l1 7 2 1 4 8 1 5-2-1-5-9-3-3v-2h-2l-3-4-2-6-5-6-7-3z" fill="#FEEEE3"/>
<path transform="translate(497,334)" d="m0 0 1 3-5 10v3l4 1-1 2-4 4-2 7-4 10-2 6h-2v2h-4l1-8h2l1-6 4-11 1-3-9 7-9 6 2-4 4-6 8-7 5-6 6-7z" fill="#ABC4B5"/>
<path transform="translate(288,339)" d="m0 0h8v1l-6 2-25 4-19 10-16 8-11 4-1-3 9-8 14-7h7 3l12-7 10-2z" fill="#80C1A0"/>
<path transform="translate(939,330)" d="m0 0 5 1 4 2h11l5 7-2 2-10 3-5 3h-6l-5-6-1-7z" fill="#FDFAF7"/>
<path transform="translate(1037,250)" d="m0 0 3 1v2h2l1 11-1 6v7l-1 6h-2v3l-2 2-2 4-4-1-1-5v-6l1-3h2l-1-3 3-4 1-9h-2l1-9z" fill="#FDFAF6"/>
<path transform="translate(639,280)" d="m0 0h13l4 3 1 3-1 2h2l-1 7-10 2-3-4-7-1-5-4 2-5z" fill="#FDFAF7"/>
<path transform="translate(1055,89)" d="m0 0h25l-1 5-8 8-5 3-5-1-5-4-2-9z" fill="#A7C4B5"/>
<path transform="translate(1006,201)" d="m0 0h5v2l3-1v2l3-1 5 4v2h2l4 5 1 6-3 3h-6l-3-3v-3l-7-1-4-5-2-2v-5z" fill="#FDFAF7"/>
<path transform="translate(1031,146)" d="m0 0h3l6 8 5 8 4 4 6 14v4l-5 1-4-5-3-3-4-8-3-9v-3l-2-1-2-3v-4l-2-1z" fill="#FDF9F5"/>
<path transform="translate(910,379)" d="m0 0 12 1 8 1v3l-15 9-7 1-7-2-1-3 3-6z" fill="#FCBEAF"/>
<path transform="translate(1104,247)" d="m0 0 6 1 9 4 10 4 13 6 16 6 15 6 21 10 10 6 5 6-6-2-14-9-19-9-28-11-20-8-18-8z" fill="#A4C6B3"/>
<path transform="translate(487,185)" d="m0 0 7 1 5 5-1 3-7 2 2 5 2 2h-15l-7-2 2-1-1-3 6-7 8-2z" fill="#FECAAE"/>
<path transform="translate(977,97)" d="m0 0 5 2 5 3 10 2 9 3 1 5-3 3-6 3h-4l-9-9-8-11z" fill="#FDF9F5"/>
<path transform="translate(547,334)" d="m0 0h1l2 6 4 3v12l-2 9h-4l-6-3v-7l4-18z" fill="#FCC2B3"/>
<path transform="translate(969,302)" d="m0 0h5l1 1v6l-2 4h-2l1 3-5 4h-6l-6-3 1-6 5-5z" fill="#FDFAF7"/>
<path transform="translate(677,406)" d="m0 0 4 4 13 25 8 17-1 2-5 1-1 3v-4h2l-2-10-11-14-7-10z" fill="#FDF9F6"/>
<path transform="translate(1074,113)" d="m0 0h17l10 4 3 4-1 2-11 2h-7l-11-11z" fill="#99CAAD"/>
<path transform="translate(716,289)" d="m0 0h7l6 7-3 7-1 5v3h-3l-4-8-8-4 1-5z" fill="#FFEEE3"/>
<path transform="translate(1133,285)" d="m0 0 5 1 5 2v18h-1l-2-9-7 1-7-2-3-2-1-6 8-2 3 1z" fill="#FBBDAE"/>
<path transform="translate(1052,186)" d="m0 0h3l1 7 2-2v2h2l3 11v17h-3l-5-8-1-10-1-12z" fill="#FDFAF7"/>
<path transform="translate(507,182)" d="m0 0h8l8 4 7 6 1 5-1 1-7-1-5-3-8-3-3-2-1-6z" fill="#FDC4AE"/>
<path transform="translate(847,177)" d="m0 0 14 1 7 2 14 3 15 6 1 5-2 2-5-1-6-5-1-4-9-1h-5l-4-2h-5l-3-2-12-1-3 1-4-1z" fill="#F3A892"/>
<path transform="translate(941,357)" d="m0 0 4 1-2 4-7 2-4 3h-2l-2 2-6 2h-6l-1-4 2-3 11-5 6-1z" fill="#FDFAF7"/>
<path transform="translate(466,358)" d="m0 0h7l-2 6-3 3h-3l-1-3h-6l-15 8-2 4h-4l1-6 8-6 15-5z" fill="#FED1B1"/>
<path transform="translate(471,200)" d="m0 0 6 2 5 3-1 15 19 10 1 2-6-2-19-10-3-4z" fill="#FFEEE3"/>
<path transform="translate(897,404)" d="m0 0 3 1-5 3 2 4-8 3-11 1-3-1v-3l2-1v-2l-11-2v-1h21z" fill="#FDFBF8"/>
<path transform="translate(606,184)" d="m0 0 3 3v2h6l2-2-1 9-5 1-3-1v5l3 5 2 8 2 2v6l-2 2-4-4-2-14-2-3v-6l1-2z" fill="#FFCEAF"/>
<path transform="translate(758,454)" d="m0 0 5 2 5 4 11 7 6 4 1 3-2 2-6-1-9-7-9-8z" fill="#7EC09F"/>
<path transform="translate(1248,326)" d="m0 0 4 1v2h3l4 4 2 1v2l4 2 10 7 10 4 16 6 3 2-1 2-9-2-20-9-7-4-13-12-6-5z" fill="#A1C4B0"/>
<path transform="translate(1137,277)" d="m0 0 4 2 4 4 3 7v17l-3 7-4-1 1-7 1-18-3-1h2l-1-4-2-1z" fill="#FEECE1"/>
<path transform="translate(540,296)" d="m0 0 1 2-5 11-9 20-6 12-3 1 3-9 9-22 6-12z" fill="#A8C4B5"/>
<path transform="translate(974,262)" d="m0 0 4 1 5 4 8 4-1 5-13-1-5-6 1-6z" fill="#FDFAF7"/>
<path transform="translate(642,427)" d="m0 0 2 1-2 3 8 2 1 4-7 8-3 2-3-9-3-5z" fill="#FFEEE3"/>
<path transform="translate(491,348)" d="m0 0 2 2 4 1-1 2-4 4-2 7-4 10-2 6h-2v2h-4l1-8h2l1-6 5-13 4-2v-2z" fill="#AEC4B5"/>
<path transform="translate(712,550)" d="m0 0h2l3 23 4 9 3 4 7 1 2-4 4-5 5-7 1-6h1v7l-10 15-5 4-8-4-5-8-3-7z" fill="#ADC3B4"/>
<path transform="translate(554,276)" d="m0 0 5 1 1 2-5 5-11 12-3 6h2l1 4-1 6-2-3-2-5-1-2 9-17z" fill="#FED6B6"/>
<path transform="translate(456,215)" d="m0 0 4 1 4 5 16 9 7 3v1l-8 1-14-7-6-5-4-5z" fill="#A6C4B4"/>
<path transform="translate(967,270)" d="m0 0 4 2 4 6 3 7v7l-2 3-5-1-1-1v-8l1-5-5-6z" fill="#FDFAF7"/>
<path transform="translate(598,205)" d="m0 0 4 2 3 3v5l-6 3h-8v-9l3-3z" fill="#FFC19D"/>
<path transform="translate(1267,300)" d="m0 0 1 2h2l-1 5-9 4h-8l-7-3-3-4 6-1 8 3 8-4z" fill="#78C09C"/>
<path transform="translate(416,92)" d="m0 0h54v1l-32 1-11 2-10 3-3 2-2-3 1-4z" fill="#FFEEE3"/>
<path transform="translate(1147,293)" d="m0 0 2 1 1 3v14l-4 11-3 4-3-1-1-9 1-8h1l1 5h3l2-6z" fill="#FBBDAD"/>
<path transform="translate(521,305)" d="m0 0v3l-4 6 2 6-1 8-2 4-5-5-3-5 2-4z" fill="#FED2B1"/>
<path transform="translate(1e3 349)" d="m0 0h6l2 3v8l2-6h1v7l-6 3-5-1-1-4v-9z" fill="#FEEEE3"/>
<path transform="translate(1033,298)" d="m0 0 6 1-2 7-8 9-5 3-2-4 7-10 2-2z" fill="#FDF9F4"/>
<path transform="translate(539,169)" d="m0 0 7 5 5 6 2 1 1 8h2l2 5 3 17v29h-1l-1-22-3-20-7-16-10-11z" fill="#FFEEE3"/>
<path transform="translate(1056,90)" d="m0 0 10 2 3 4-1 4-3 2-8-1-2-3v-6z" fill="#96CBAC"/>
<path transform="translate(545,259)" d="m0 0h7l3 4v5l-4-5v-2l-4 2-7 11-5 6-2-2 1-5 8-11z" fill="#9DC4AE"/>
<path transform="translate(625,291)" d="m0 0h3l1 4 4 1 9 5 3 4v3h-6l-6-8-9-3-1-4z" fill="#FCBEAF"/>
<path transform="translate(569,172)" d="m0 0 4 5v2l4 1 5 2 4 1 2 2-5 3-3 4-4-1-4-9-3-7z" fill="#FFC19D"/>
<path transform="translate(674,310)" d="m0 0 9 1 1 5-3 6-5 1-3-4-1-6z" fill="#FDFAF7"/>
<path transform="translate(385,319)" d="m0 0h4v2l-22 6-18 4h-7l4-3 25-6z" fill="#A5C4B4"/>
<path transform="translate(460,172)" d="m0 0 4 1 5 8 6 4-1 4-6-1-6-5-2-6z" fill="#FCBEAF"/>
<path transform="translate(1204,291)" d="m0 0 5 1 8 2-2 1 3 5 8 6 8 8 3 2-2 1-9-6-10-9-8-5-1-3z" fill="#A2C6B2"/>
<path transform="translate(991,185)" d="m0 0 2 1 1 4 7 6 7 7-3 1v5l-2-2-2-4-8-6-6-5 2-1h2l-1-4z" fill="#FEEFE6"/>
<path transform="translate(561,177)" d="m0 0 4 4 3 6-4 17-1 10h-1l-1-15 1-15z" fill="#FFD4B2"/>
<path transform="translate(514,349)" d="m0 0h1l1 7-13 33-2 6h-2l2-9 6-15z" fill="#FECFB1"/>
<path transform="translate(288,339)" d="m0 0h8v1l-6 2-25 4-11 5 2-4 10-5z" fill="#81C1A0"/>
<path transform="translate(1129,246)" d="m0 0h14l3 5-29-1 3-2z" fill="#9ACAAE"/>
<path transform="translate(872,195)" d="m0 0h7l8 3 3 5-2 1-13-2-4-4h3v-2z" fill="#F3A892"/>
<path transform="translate(662,420)" d="m0 0 7 2 3 3 4 2-3 2h-8l-6-3v-5z" fill="#FEC9AE"/>
<path transform="translate(638,177)" d="m0 0 1 2-4 7v9l2 10 2 1-3 10-5 12-2 1 6-18v-7l-3-8v-10z" fill="#FFEEE3"/>
<path transform="translate(1173,275)" d="m0 0 9 3 19 10 8 7-2 1-18-11-16-8z" fill="#88C3A4"/>
<path transform="translate(712,546)" d="m0 0 2 1-3 6-8 10h-2l-1-4 3-6z" fill="#7FC1A0"/>
<path transform="translate(492,267)" d="m0 0m7-1 2 1-3 4-15 7h-3l1-3h2l2-4 5-3 6-1z" fill="#A4C6B3"/>
<path transform="translate(645,426)" d="m0 0 2 1-2 2 7 3 1 6-6 8-4 7-3-3 2-4 7-7 1-5-8-3 2-4z" fill="#FDC4AE"/>
<path transform="translate(512,184)" d="m0 0 6 1 6 4 2 3-3 2-7-2-1-2-3-1-1-4z" fill="#FFD3B1"/>
<path transform="translate(1093,349)" d="m0 0 1 2 10 2 2-1-1 8-5-1-5-3-2-3z" fill="#FEC0A1"/>
<path transform="translate(499,336)" d="m0 0h1l1 12-3 2-4-1-1-4 4-8z" fill="#FED4B6"/>
<path transform="translate(712,479)" d="m0 0h3l2 4-1 2 1 4 1 10 1 5v16h-1l-2-20-4-18z" fill="#A8C5B5"/>
<path transform="translate(630,171)" d="m0 0 4 2-3 3-10 4-2 2 1-8 3-2z" fill="#FFD3B1"/>
<path transform="translate(269,340)" d="m0 0h12v1l-15 2-18 9v-2l-4-1 15-6z" fill="#9BC9AF"/>
<path transform="translate(408,280)" d="m0 0 10 1 16 5 8 4v2l-27-9-7-2z" fill="#9EC8B0"/>
<path transform="translate(688,434)" d="m0 0 6 2 8 16-1 2-5 1-1 3v-4h2l-2-10-7-9z" fill="#FEEFE4"/>
<path transform="translate(476,158)" d="m0 0h3l3 5 1 7-5-1-4-5v-5z" fill="#FEC9AE"/>
<path transform="translate(474,407)" d="m0 0 2 4-5 18-3 4-2-4 4-8z" fill="#FEC29F"/>
<path transform="translate(463,228)" d="m0 0 9 3 12 5v1h-10l-6-3-5-4z" fill="#FEE8DC"/>
<path transform="translate(724,95)" d="m0 0 26 1-3 3h-11l-14-1z" fill="#FFCAAE"/>
<path transform="translate(743,565)" d="m0 0h1v7l-10 15-5 4-5-3v-1h7l2-4 4-5 5-7z" fill="#A9C5B6"/>
<path transform="translate(626,125)" d="m0 0 3 2 2 8-2-1h-8l-1 3-1-3 4-7z" fill="#F3A892"/>
<path transform="translate(721,468)" d="m0 0h2l9 18v2l-3-1-3-3-2-3-2-7z" fill="#A9C5B6"/>
<path transform="translate(638,274)" d="m0 0 11 1 5 3-1 2-2-1h-12l-5 3-2 2 1-4z" fill="#FDFBF8"/>
<path transform="translate(607,201)" d="m0 0 3 3 3 10 2 2v6l-2 2-3-2-1-13z" fill="#FFD4B2"/>
<path transform="translate(1282,349)" d="m0 0 9 2 12 5v3l-9-2-2-1v-2l-6-2z" fill="#86C2A3"/>
<path transform="translate(492,186)" d="m0 0 4 2 3 3-1 3-7 2 2 6-4-1-2-1v-5l8-2-1-4z" fill="#FCBEAF"/>
<path transform="translate(523,188)" d="m0 0 5 2 3 4-1 4-7-1-5-4h6v-3z" fill="#FEC7AE"/>
<path transform="translate(724,325)" d="m0 0 7 1v3l-5 4-5-2 1-5z" fill="#FCBEAF"/>
<path transform="translate(1151,266)" d="m0 0 10 3 12 5-1 3-22-9z" fill="#A9C5B6"/>
<path transform="translate(816,246)" d="m0 0 2 4 3-1-1-2h11l1 6-3 1-12-3z" fill="#F3A892"/>
<path transform="translate(667,142)" d="m0 0h1l3 16-1 14-2 1v-12l-1-11-1-7z" fill="#FFEEE3"/>
<path transform="translate(705,91)" d="m0 0 3 1 3-1 6 3-1 2h-6l-1 3-3-4-1 3-1-4z" fill="#FEC9AE"/>
<path transform="translate(447,415)" d="m0 0 4 1 2 4-6 3-4-1 2-5z" fill="#FEC2A1"/>
<path transform="translate(552,264)" d="m0 0 3 3 2-1 1 6 1 3h2l2 5-6-3v-3h-4l-1-3z" fill="#A5C7B2"/>
<path transform="translate(476,387)" d="m0 0h5l-3 12-4-1-1-5 5-5z" fill="#FEC1A1"/>
<path transform="translate(521,305)" d="m0 0v3l-4 6 2 6v5l-1-4h-2v-2h-2v-2h-2l2-4z" fill="#FCBFAC"/>
<path transform="translate(229,91)" d="m0 0h16l7 1v1l-6 1h-8l-9-2z" fill="#FDFBF8"/>
<path transform="translate(1238,375)" d="m0 0 2 1v5h4l1 5-7-1-1-9z" fill="#96CCAC"/>
<path transform="translate(377,323)" d="m0 0 3 1-13 10-2-1 3-3 1-3h2v-2z" fill="#ABC7B8"/>
<path transform="translate(1032,96)" d="m0 0h2l-1 7-3 7h-3l-1 4-1-2 4-7z" fill="#FDFBF8"/>
<path transform="translate(1329,91)" d="m0 0 3 1 4 2-2 1h-15l-1-2z" fill="#FDFBF8"/>
<path transform="translate(495,368)" d="m0 0 2 1-10 8 2 5-5-2v-4l4-4z" fill="#FEEEE4"/>
<path transform="translate(229,356)" d="m0 0 2 1-6 7-4 1 2 2-5 1 1-4 8-7z" fill="#98C9AD"/>
<path transform="translate(1173,275)" d="m0 0 9 3 10 5-3 2-16-8z" fill="#94C5AA"/>
<path transform="translate(546,207)" d="m0 0 2 4v12l-5 2-5-5 2-1 5 2h2z" fill="#FDC8AF"/>
<path transform="translate(533,182)" d="m0 0 4 2 5 8 4 11-1 4-5-13-4-8z" fill="#FCC1AE"/>
<path transform="translate(385,319)" d="m0 0h4v2l-16 4h-3l1-3z" fill="#82C1A1"/>
<path transform="translate(1104,247)" d="m0 0 6 1 10 5-3 2-13-6z" fill="#98C5AD"/>
<path transform="translate(573,234)" d="m0 0 5 1v7l-4-1-3-5z" fill="#FCBEAF"/>
<path transform="translate(752,487)" d="m0 0 1 3-2 10-3-1-1-7z" fill="#A9C5B6"/>
<path transform="translate(1223,305)" d="m0 0 3 1 8 8 3 2-2 1-9-6-4-5z" fill="#ACC3B1"/>
<path transform="translate(682,444)" d="m0 0 4 1v2l3 1 4 7v8l-3 1v-2h2l-3-8-4-6v-2l-3-1z" fill="#FECFB0"/>
<path transform="translate(1147,293)" d="m0 0 2 1 1 3v14h-3z" fill="#FCBEAF"/>
<path transform="translate(707,554)" d="m0 0 1 3-5 6h-2l-1-4 1-3z" fill="#A6C4B4"/>
<path transform="translate(944,354)" d="m0 0 5 2 1 4-5 4h-7v-1l7-2 2-1-1-3-6-1z" fill="#FDFBF8"/>
<path transform="translate(518,154)" d="m0 0 5 1 4 4-5-1-1 4-4-6z" fill="#FFEEE3"/>
<path transform="translate(288,339)" d="m0 0h8v1l-6 2-11 1v-2z" fill="#86C1A3"/>
<path transform="translate(1265,305)" d="m0 0h4v2l-9 4h-8l-3-2h10z" fill="#A9C5B6"/>
<path transform="translate(394,90)" d="m0 0h2l1 6h-8l3-5z" fill="#79C09C"/>
<path transform="translate(758,552)" d="m0 0 6 4-4 6-1-2-5-1-1-2 6 2z" fill="#A5C6B4"/>
<path transform="translate(1084,411)" d="m0 0 2 1-2 8-3 3-1-2 3-9z" fill="#99C9AD"/>
<path transform="translate(490,347)" d="m0 0 2 1 1 5-5 4-2-5z" fill="#8CC7A7"/>
<path transform="translate(494,396)" d="m0 0 4 4-2 6-2 1z" fill="#FFEEE3"/>
<path transform="translate(864,376)" d="m0 0 1 4-6 3h-7l-2-4 3 2 7-1z" fill="#FFEEE3"/>
<path transform="translate(508,236)" d="m0 0 5 2 8 5 4 3-5-1-9-5z" fill="#FFEEE3"/>
<path transform="translate(554,276)" d="m0 0h3l-2 4-7 6 2-5z" fill="#FDD3C2"/>
<path transform="translate(1120,274)" d="m0 0 4 1 1 2h-13v-2z" fill="#FDD3C6"/>
<path transform="translate(499,266)" d="m0 0 2 1-3 4-6 1v-3z" fill="#98CAAD"/>
<path transform="translate(791,217)" d="m0 0 3 1 3 6-4 3-2-5 1-3z" fill="#F3A994"/>
<path transform="translate(630,171)" d="m0 0 4 2-2 1h-6l-6 3v-3l3-2z" fill="#FFCAAE"/>
<path transform="translate(470,424)" d="m0 0h2l-3 9-3-2 2-5z" fill="#FCBE9F"/>
<path transform="translate(1113,351)" d="m0 0h8l3 2-5 2-6-3z" fill="#FCBFAA"/>
<path transform="translate(548,331)" d="m0 0 2 4 4 6-1 2-5-4-1-7z" fill="#FEECE0"/>
<path transform="translate(1125,283)" d="m0 0 7 1 1 3h-8l-2-2z" fill="#F6B19E"/>
<path transform="translate(1137,277)" d="m0 0 4 2 4 4 1 5-7-6z" fill="#FCBFB1"/>
<path transform="translate(466,229)" d="m0 0 9 3 4 3-8-1-2-1v-2l-3-1z" fill="#FDFBF8"/>
</svg>
