<?xml version="1.0" encoding="UTF-8"?>
<svg version="1.1" xmlns="http://www.w3.org/2000/svg" width="115" height="181">
<path d="M0 0 C1.30324219 -0.00257812 2.60648438 -0.00515625 3.94921875 -0.0078125 C7.3125 0.125 7.3125 0.125 10.3125 1.125 C10.9725 0.795 11.6325 0.465 12.3125 0.125 C14.99004793 0.02517913 17.63532379 -0.01601901 20.3125 0 C21.45803345 0.00290039 21.45803345 0.00290039 22.62670898 0.00585938 C28.24415772 0.04866351 33.73576601 0.4168433 39.3125 1.125 C39.3125 2.115 39.3125 3.105 39.3125 4.125 C44.7575 3.135 44.7575 3.135 50.3125 2.125 C49.9825 3.445 49.6525 4.765 49.3125 6.125 C58.04172684 8.15505275 67.00174415 6.0868784 75.3125 3.125 C74.87080884 5.99599253 74.27062858 7.17198362 72.296875 9.38671875 C68.78114744 14.54522125 69.79432077 21.33456444 69.8125 27.3125 C69.82013988 29.84766614 69.81055645 32.3829605 69.78125 34.91796875 C69.78576172 36.0371167 69.79027344 37.15626465 69.79492188 38.30932617 C69.3125 41.125 69.3125 41.125 67.41699219 42.98095703 C64.07353077 44.79852782 61.08219306 44.81085891 57.3125 45.125 C58.28574219 45.04765625 59.25898437 44.9703125 60.26171875 44.890625 C65.09348001 44.89549205 68.85268436 46.78515957 73.125 48.875 C74.2687207 49.39707031 74.2687207 49.39707031 75.43554688 49.9296875 C79.46293754 51.8525796 81.55091865 52.85970768 83.3125 57.125 C71.52804037 57.80925895 59.94386857 55.79253733 48.3125 54.125 C49.24964844 54.8778125 50.18679687 55.630625 51.15234375 56.40625 C53.44143245 58.31438381 55.25990217 60.09805727 56.875 62.625 C59.87303369 67.03611964 63.45035297 70.45732066 67.625 73.75 C68.511875 74.53375 69.39875 75.3175 70.3125 76.125 C70.3125 77.115 70.3125 78.105 70.3125 79.125 C68.28239385 78.66997621 66.25237106 78.21457875 64.22265625 77.7578125 C62.08914025 77.29388016 59.95020887 76.85466798 57.80859375 76.4296875 C56.59300781 76.18476562 55.37742187 75.93984375 54.125 75.6875 C52.40216797 75.34912109 52.40216797 75.34912109 50.64453125 75.00390625 C45.49701581 73.64612082 41.28964607 71.32032302 37.0625 68.125 C36.39734375 67.63 35.7321875 67.135 35.046875 66.625 C33.3125 65.125 33.3125 65.125 31.3125 62.125 C30.36375 61.650625 29.415 61.17625 28.4375 60.6875 C25.3822961 59.15989805 23.57207108 57.64529082 21.3125 55.125 C21.621875 55.723125 21.93125 56.32125 22.25 56.9375 C23.3125 59.125 23.3125 59.125 24.3125 62.125 C24.92867187 62.42921875 25.54484375 62.7334375 26.1796875 63.046875 C30.17968573 65.06885213 32.1622458 69.31725818 34.3125 73.125 C34.68375 74.259375 35.055 75.39375 35.4375 76.5625 C36.06992178 79.27904412 36.06992178 79.27904412 38.4375 80.5 C39.05625 80.70625 39.675 80.9125 40.3125 81.125 C39.9825 81.785 39.6525 82.445 39.3125 83.125 C38.70921875 83.07859375 38.1059375 83.0321875 37.484375 82.984375 C35.03702916 82.8738497 32.74622529 82.82716649 30.3125 83.125 C29.6525 83.82625 28.9925 84.5275 28.3125 85.25 C27.6525 85.86875 26.9925 86.4875 26.3125 87.125 C21.1366972 86.84522688 16.18120383 84.76660907 11.3125 83.125 C24.89000788 96.66730546 24.89000788 96.66730546 42.05078125 104.484375 C44.3209379 105.12739001 46.24097515 106.00628177 48.3125 107.125 C48.3125 108.115 48.3125 109.105 48.3125 110.125 C40.78537728 110.33211094 33.52307817 109.71745652 26.0625 108.75 C25.01320312 108.62367187 23.96390625 108.49734375 22.8828125 108.3671875 C17.81030731 107.72509823 13.09960906 107.02333635 8.3125 105.125 C13.52632925 110.49522946 13.52632925 110.49522946 19.1875 115.375 C21.3125 117.125 21.3125 117.125 21.984375 119.0390625 C24.03544685 122.26045182 27.23616215 123.01457793 30.6875 124.25 C39.08428284 127.38672922 39.08428284 127.38672922 42.3125 129.125 C42.3125 129.785 42.3125 130.445 42.3125 131.125 C38.12556051 130.66824296 34.1410491 130.11382618 30.0625 129.0625 C25.47654333 127.98483951 21.15347824 128.09095154 16.46484375 128.1875 C11.32124398 128.08552033 6.34775396 127.12490859 1.3125 126.125 C1.94865234 126.7128125 1.94865234 126.7128125 2.59765625 127.3125 C11.33408794 136.22174023 16.79548213 149.6734862 17.3125 162.125 C16.9825 162.785 16.6525 163.445 16.3125 164.125 C15.6525 164.125 14.9925 164.125 14.3125 164.125 C13.92578125 163.31675781 13.5390625 162.50851563 13.140625 161.67578125 C12.61984375 160.60714844 12.0990625 159.53851563 11.5625 158.4375 C11.05203125 157.38175781 10.5415625 156.32601562 10.015625 155.23828125 C7.60046277 150.82340901 5.80453879 147.72755413 1.0625 145.8125 C0.155 145.585625 -0.7525 145.35875 -1.6875 145.125 C-1.6875 144.465 -1.6875 143.805 -1.6875 143.125 C-2.863125 143.228125 -4.03875 143.33125 -5.25 143.4375 C-9.52012233 143.4375 -11.92676313 142.15605265 -15.33984375 139.70703125 C-18.3569843 136.16517061 -17.81380065 131.04611616 -17.81689453 126.62231445 C-17.82004669 125.32779861 -17.82319885 124.03328278 -17.82644653 122.69953918 C-17.8246571 121.29578619 -17.82260624 119.89203351 -17.8203125 118.48828125 C-17.82098646 117.04290246 -17.82195725 115.59752379 -17.82321167 114.15214539 C-17.82468291 111.1303092 -17.82255161 108.10850265 -17.81787109 105.08666992 C-17.81215878 101.2094377 -17.8154659 97.33227447 -17.82144356 93.45504475 C-17.8250516 90.47398861 -17.82390973 87.49294894 -17.82131577 84.51189232 C-17.82064796 83.08171773 -17.82146981 81.65154165 -17.82379532 80.22136879 C-17.82632743 78.22741346 -17.82178555 76.23345289 -17.81689453 74.23950195 C-17.81609894 73.10430618 -17.81530334 71.96911041 -17.81448364 70.79951477 C-17.6875 68.125 -17.6875 68.125 -16.6875 66.125 C-16.80204932 64.74468075 -16.97760799 63.36906834 -17.1875 62 C-17.75394179 57.45375287 -17.57131086 53.62440075 -16.6875 49.125 C-15.6975 48.63 -15.6975 48.63 -14.6875 48.125 C-14.6875 49.115 -14.6875 50.105 -14.6875 51.125 C-13.6665625 51.310625 -13.6665625 51.310625 -12.625 51.5 C-9.2597588 52.21600877 -5.98736575 53.15445125 -2.6875 54.125 C-3.39326172 53.43664063 -3.39326172 53.43664063 -4.11328125 52.734375 C-10.76387907 46.18016266 -10.76387907 46.18016266 -12.6875 43.125 C-12.6875 42.465 -12.6875 41.805 -12.6875 41.125 C-13.6775 40.795 -14.6675 40.465 -15.6875 40.125 C-17.8727294 33.1092635 -17.90988211 26.42654591 -17.6875 19.125 C-14.6875 18.125 -14.6875 18.125 -12.6875 18.125 C-14.3375 16.145 -15.9875 14.165 -17.6875 12.125 C-15.6875 11.125 -15.6875 11.125 -12.6875 11.125 C-14.3375 9.145 -15.9875 7.165 -17.6875 5.125 C-12.85415616 -0.63783304 -7.12549806 -0.0141801 0 0 Z M31.6875 7.625 C31.23375 8.12 30.78 8.615 30.3125 9.125 C31.9625 8.795 33.6125 8.465 35.3125 8.125 C35.3125 7.465 35.3125 6.805 35.3125 6.125 C33.18885519 5.89890663 33.18885519 5.89890663 31.6875 7.625 Z M26.3125 9.125 C25.9825 9.785 25.6525 10.445 25.3125 11.125 C26.6325 10.465 27.9525 9.805 29.3125 9.125 C28.3225 9.125 27.3325 9.125 26.3125 9.125 Z M-10.6875 12.125 C-10.3575 12.785 -10.0275 13.445 -9.6875 14.125 C-9.0275 13.795 -8.3675 13.465 -7.6875 13.125 C-8.6775 12.795 -9.6675 12.465 -10.6875 12.125 Z M46.3125 20.125 C46.3125 20.455 46.3125 20.785 46.3125 21.125 C48.2925 21.125 50.2725 21.125 52.3125 21.125 C52.3125 20.795 52.3125 20.465 52.3125 20.125 C50.3325 20.125 48.3525 20.125 46.3125 20.125 Z M56.3125 21.125 C56.3125 22.115 56.3125 23.105 56.3125 24.125 C56.9725 23.465 57.6325 22.805 58.3125 22.125 C57.6525 21.795 56.9925 21.465 56.3125 21.125 Z M35.3125 43.125 C34.9825 43.785 34.6525 44.445 34.3125 45.125 C35.9625 45.125 37.6125 45.125 39.3125 45.125 C37.9925 44.465 36.6725 43.805 35.3125 43.125 Z M9.3125 44.125 C9.6425 45.445 9.9725 46.765 10.3125 48.125 C12.2925 48.62 12.2925 48.62 14.3125 49.125 C13.9825 47.475 13.6525 45.825 13.3125 44.125 C11.9925 44.125 10.6725 44.125 9.3125 44.125 Z M28.3125 46.125 C28.6425 47.775 28.9725 49.425 29.3125 51.125 C30.6325 50.465 31.9525 49.805 33.3125 49.125 C31.93764468 47.58333358 31.93764468 47.58333358 30.3125 46.125 C29.6525 46.125 28.9925 46.125 28.3125 46.125 Z M14.3125 49.125 C14.08640663 51.24864481 14.08640663 51.24864481 15.8125 52.75 C16.3075 53.20375 16.8025 53.6575 17.3125 54.125 C18.3025 53.795 19.2925 53.465 20.3125 53.125 C17.60246707 50.45168287 17.60246707 50.45168287 14.3125 49.125 Z M-9.6875 95.125 C-10.0175 96.445 -10.3475 97.765 -10.6875 99.125 C-8.3775 99.455 -6.0675 99.785 -3.6875 100.125 C-5.3329378 98.43737149 -7.00038577 96.7709651 -8.6875 95.125 C-9.0175 95.125 -9.3475 95.125 -9.6875 95.125 Z M-14.6875 116.125 C-14.3575 116.785 -14.0275 117.445 -13.6875 118.125 C-13.0275 117.795 -12.3675 117.465 -11.6875 117.125 C-12.6775 116.795 -13.6675 116.465 -14.6875 116.125 Z " fill="#223342" transform="translate(24.6875,1.875)"/>
<path d="M0 0 C2.31 0 4.62 0 7 0 C7.99 2.31 8.98 4.62 10 7 C9.67 7.33 9.34 7.66 9 8 C9.495 9.485 9.495 9.485 10 11 C10.99 11 11.98 11 13 11 C14.84526962 13.62596061 15.98375849 15.95127546 17 19 C17.92425781 19.45632812 17.92425781 19.45632812 18.8671875 19.921875 C22.86718573 21.94385213 24.8497458 26.19225818 27 30 C27.37125 31.134375 27.7425 32.26875 28.125 33.4375 C28.75742178 36.15404412 28.75742178 36.15404412 31.125 37.375 C31.74375 37.58125 32.3625 37.7875 33 38 C32.505 38.99 32.505 38.99 32 40 C31.39671875 39.95359375 30.7934375 39.9071875 30.171875 39.859375 C27.72452916 39.7488497 25.43372529 39.70216649 23 40 C22.34 40.70125 21.68 41.4025 21 42.125 C20.34 42.74375 19.68 43.3625 19 44 C13.8241972 43.72022688 8.86870383 41.64160907 4 40 C17.57750788 53.54230546 17.57750788 53.54230546 34.73828125 61.359375 C37.0084379 62.00239001 38.92847515 62.88128177 41 64 C41 64.99 41 65.98 41 67 C33.47287728 67.20711094 26.21057817 66.59245652 18.75 65.625 C17.70070312 65.49867187 16.65140625 65.37234375 15.5703125 65.2421875 C10.49780731 64.60009823 5.78710906 63.89833635 1 62 C6.21382925 67.37022946 6.21382925 67.37022946 11.875 72.25 C14 74 14 74 14.671875 75.9140625 C16.72294685 79.13545182 19.92366215 79.88957793 23.375 81.125 C31.77178284 84.26172922 31.77178284 84.26172922 35 86 C35 86.66 35 87.32 35 88 C30.81306051 87.54324296 26.8285491 86.98882618 22.75 85.9375 C18.16404333 84.85983951 13.84097824 84.96595154 9.15234375 85.0625 C4.00874398 84.96052033 -0.96474604 83.99990859 -6 83 C-5.36384766 83.5878125 -5.36384766 83.5878125 -4.71484375 84.1875 C4.02158794 93.09674023 9.48298213 106.5484862 10 119 C9.67 119.66 9.34 120.32 9 121 C8.34 121 7.68 121 7 121 C6.61328125 120.19175781 6.2265625 119.38351563 5.828125 118.55078125 C5.30734375 117.48214844 4.7865625 116.41351563 4.25 115.3125 C3.73953125 114.25675781 3.2290625 113.20101562 2.703125 112.11328125 C0.28796277 107.69840901 -1.50796121 104.60255413 -6.25 102.6875 C-7.1575 102.460625 -8.065 102.23375 -9 102 C-9 101.34 -9 100.68 -9 100 C-10.175625 100.103125 -11.35125 100.20625 -12.5625 100.3125 C-16.83262233 100.3125 -19.23926313 99.03105265 -22.65234375 96.58203125 C-25.6694843 93.04017061 -25.12630065 87.92111616 -25.12939453 83.49731445 C-25.13254669 82.20279861 -25.13569885 80.90828278 -25.13894653 79.57453918 C-25.1371571 78.17078619 -25.13510624 76.76703351 -25.1328125 75.36328125 C-25.13348646 73.91790246 -25.13445725 72.47252379 -25.13571167 71.02714539 C-25.13718291 68.0053092 -25.13505161 64.98350265 -25.13037109 61.96166992 C-25.12465878 58.0844377 -25.1279659 54.20727447 -25.13394356 50.33004475 C-25.1375516 47.34898861 -25.13640973 44.36794894 -25.13381577 41.38689232 C-25.13314796 39.95671773 -25.13396981 38.52654165 -25.13629532 37.09636879 C-25.13882743 35.10241346 -25.13428555 33.10845289 -25.12939453 31.11450195 C-25.12859894 29.97930618 -25.12780334 28.84411041 -25.12698364 27.67451477 C-25 25 -25 25 -24 23 C-24.11454932 21.61968075 -24.29010799 20.24406834 -24.5 18.875 C-25.06644179 14.32875287 -24.88381086 10.49940075 -24 6 C-23.34 5.67 -22.68 5.34 -22 5 C-22 5.99 -22 6.98 -22 8 C-21.360625 8.12375 -20.72125 8.2475 -20.0625 8.375 C-13.63226145 9.68729358 -7.29149373 11.12593804 -1 13 C0.10228696 8.59085217 0.07654536 4.51617599 0 0 Z M2 1 C2.33 2.32 2.66 3.64 3 5 C4.98 5.495 4.98 5.495 7 6 C6.67 4.35 6.34 2.7 6 1 C4.68 1 3.36 1 2 1 Z M-17 52 C-17.33 53.32 -17.66 54.64 -18 56 C-15.69 56.33 -13.38 56.66 -11 57 C-12.6454378 55.31237149 -14.31288577 53.6459651 -16 52 C-16.33 52 -16.66 52 -17 52 Z M-22 73 C-21.67 73.66 -21.34 74.32 -21 75 C-20.34 74.67 -19.68 74.34 -19 74 C-19.99 73.67 -20.98 73.34 -22 73 Z " fill="#6E7E9A" transform="translate(32,45)"/>
<path d="M0 0 C0.75015381 0.00193359 1.50030762 0.00386719 2.27319336 0.00585938 C7.84059117 0.04905005 13.28551233 0.4231603 18.8125 1.125 C18.8125 2.115 18.8125 3.105 18.8125 4.125 C24.2575 3.135 24.2575 3.135 29.8125 2.125 C29.4825 3.445 29.1525 4.765 28.8125 6.125 C37.54172684 8.15505275 46.50174415 6.0868784 54.8125 3.125 C54.37080884 5.99599253 53.77062858 7.17198362 51.796875 9.38671875 C48.28114744 14.54522125 49.29432077 21.33456444 49.3125 27.3125 C49.32013988 29.84766614 49.31055645 32.3829605 49.28125 34.91796875 C49.28576172 36.0371167 49.29027344 37.15626465 49.29492188 38.30932617 C48.8125 41.125 48.8125 41.125 46.91699219 42.98095703 C43.57353077 44.79852782 40.58219306 44.81085891 36.8125 45.125 C38.27236328 45.00898437 38.27236328 45.00898437 39.76171875 44.890625 C44.59348001 44.89549205 48.35268436 46.78515957 52.625 48.875 C53.7687207 49.39707031 53.7687207 49.39707031 54.93554688 49.9296875 C58.96293754 51.8525796 61.05091865 52.85970768 62.8125 57.125 C54.41492616 57.58584247 46.45759019 56.63127504 38.19628906 55.2800293 C33.96979353 54.58920835 29.77829758 54.00168145 25.51171875 53.6171875 C22.1009709 53.2963053 19.00056705 52.82608338 15.75 51.6875 C15.01652344 51.44128906 14.28304687 51.19507813 13.52734375 50.94140625 C11.20834775 49.83737398 10.93776563 48.37553127 9.8125 46.125 C9.1525 46.125 8.4925 46.125 7.8125 46.125 C8.1425 47.115 8.4725 48.105 8.8125 49.125 C5.8125 49.125 5.8125 49.125 3.125 46.75 C0.8125 44.125 0.8125 44.125 0.8125 42.125 C1.4725 42.125 2.1325 42.125 2.8125 42.125 C2.8125 41.465 2.8125 40.805 2.8125 40.125 C4.2975 39.63 4.2975 39.63 5.8125 39.125 C5.3175 38.63 5.3175 38.63 4.8125 38.125 C4.65463692 36.27325294 4.56142644 34.4159089 4.49609375 32.55859375 C4.45419922 31.43388672 4.41230469 30.30917969 4.36914062 29.15039062 C4.32982422 27.96638672 4.29050781 26.78238281 4.25 25.5625 C4.20681641 24.37462891 4.16363281 23.18675781 4.11914062 21.96289062 C4.01266454 19.01705216 3.91065159 16.0711257 3.8125 13.125 C0.5125 12.465 -2.7875 11.805 -6.1875 11.125 C-4.8675 9.805 -3.5475 8.485 -2.1875 7.125 C-2.89777344 6.94324219 -3.60804687 6.76148438 -4.33984375 6.57421875 C-5.25894531 6.32285156 -6.17804687 6.07148437 -7.125 5.8125 C-8.04152344 5.56886719 -8.95804688 5.32523437 -9.90234375 5.07421875 C-11.03349609 4.60435547 -11.03349609 4.60435547 -12.1875 4.125 C-12.5175 3.135 -12.8475 2.145 -13.1875 1.125 C-8.79270272 0.0370934 -4.49937369 -0.02785066 0 0 Z M11.1875 7.625 C10.73375 8.12 10.28 8.615 9.8125 9.125 C11.4625 8.795 13.1125 8.465 14.8125 8.125 C14.8125 7.465 14.8125 6.805 14.8125 6.125 C12.68885519 5.89890663 12.68885519 5.89890663 11.1875 7.625 Z M5.8125 9.125 C5.4825 9.785 5.1525 10.445 4.8125 11.125 C6.1325 10.465 7.4525 9.805 8.8125 9.125 C7.8225 9.125 6.8325 9.125 5.8125 9.125 Z M25.8125 20.125 C25.8125 20.455 25.8125 20.785 25.8125 21.125 C27.7925 21.125 29.7725 21.125 31.8125 21.125 C31.8125 20.795 31.8125 20.465 31.8125 20.125 C29.8325 20.125 27.8525 20.125 25.8125 20.125 Z M35.8125 21.125 C35.8125 22.115 35.8125 23.105 35.8125 24.125 C36.4725 23.465 37.1325 22.805 37.8125 22.125 C37.1525 21.795 36.4925 21.465 35.8125 21.125 Z M14.8125 43.125 C14.4825 43.785 14.1525 44.445 13.8125 45.125 C15.4625 45.125 17.1125 45.125 18.8125 45.125 C17.4925 44.465 16.1725 43.805 14.8125 43.125 Z " fill="#555556" transform="translate(45.1875,1.875)"/>
<path d="M0 0 C3.37462715 0.54723683 5.08235 1.0549 8 3 C9.175625 3.2475 10.35125 3.495 11.5625 3.75 C16.21190547 4.80903125 19.81892356 7.10351607 23.80078125 9.66015625 C26.04291645 11.13848774 26.04291645 11.13848774 29 12 C29 12.66 29 13.32 29 14 C29.928125 13.938125 30.85625 13.87625 31.8125 13.8125 C35 14 35 14 36.75 15.25 C38 17 38 17 38.6171875 18.9140625 C40.73179883 22.10389993 43.90925163 22.88441962 47.375 24.125 C55.77178284 27.26172922 55.77178284 27.26172922 59 29 C59 29.66 59 30.32 59 31 C54.81306051 30.54324296 50.8285491 29.98882618 46.75 28.9375 C42.16404333 27.85983951 37.84097824 27.96595154 33.15234375 28.0625 C28.00874398 27.96052033 23.03525396 26.99990859 18 26 C18.42410156 26.391875 18.84820313 26.78375 19.28515625 27.1875 C28.02158794 36.09674023 33.48298213 49.5484862 34 62 C33.505 62.99 33.505 62.99 33 64 C32.34 64 31.68 64 31 64 C30.61328125 63.19175781 30.2265625 62.38351563 29.828125 61.55078125 C29.30734375 60.48214844 28.7865625 59.41351563 28.25 58.3125 C27.73953125 57.25675781 27.2290625 56.20101562 26.703125 55.11328125 C24.28796277 50.69840901 22.49203879 47.60255413 17.75 45.6875 C16.38875 45.3471875 16.38875 45.3471875 15 45 C15 44.34 15 43.68 15 43 C13.2365625 43.1546875 13.2365625 43.1546875 11.4375 43.3125 C7.16737767 43.3125 4.76073687 42.03105265 1.34765625 39.58203125 C-1.95345846 35.70680964 -1.06531545 30.09214632 -0.87890625 25.29296875 C-0.85529526 24.56757401 -0.83168427 23.84217926 -0.80735779 23.09480286 C-0.7311668 20.79214705 -0.64695297 18.48986611 -0.5625 16.1875 C-0.50923459 14.62046067 -0.45649454 13.05340339 -0.40429688 11.48632812 C-0.27561258 7.65731752 -0.13973538 3.82862259 0 0 Z M2 16 C2.33 16.66 2.66 17.32 3 18 C3.66 17.67 4.32 17.34 5 17 C4.01 16.67 3.02 16.34 2 16 Z " fill="#1E4063" transform="translate(8,102)"/>
<path d="M0 0 C0.66 0 1.32 0 2 0 C2.97594109 1.15611483 3.90508872 2.35185254 4.8125 3.5625 C9.86412678 9.52681566 17.453421 14.38764788 25.27734375 15.44140625 C26.17582031 15.62574219 27.07429688 15.81007813 28 16 C29.02734375 17.7265625 29.02734375 17.7265625 30 20 C31.8170695 21.87659908 33.62379238 23.6349034 35.5625 25.375 C36.10116699 25.86033203 36.63983398 26.34566406 37.19482422 26.84570312 C43.87333031 32.76893737 49.97086586 37.15693249 58.73828125 39.359375 C61.0084379 40.00239001 62.92847515 40.88128177 65 42 C65 42.99 65 43.98 65 45 C57.47287728 45.20711094 50.21057817 44.59245652 42.75 43.625 C41.70070312 43.49867187 40.65140625 43.37234375 39.5703125 43.2421875 C34.49780731 42.60009823 29.78710906 41.89833635 25 40 C27.64 42.64 30.28 45.28 33 48 C31.02 48.495 31.02 48.495 29 49 C29 48.34 29 47.68 29 47 C28.44828125 46.89558594 27.8965625 46.79117188 27.328125 46.68359375 C24.51040666 45.85624357 22.28461673 44.54344035 19.75 43.0625 C15.13908604 40.47619083 11.13161204 39.11962444 6 38 C5.34 37.34 4.68 36.68 4 36 C1.93125966 35.3574765 1.93125966 35.3574765 0 35 C-0.16858144 30.79174109 -0.33452695 26.58338219 -0.5 22.375 C-0.54769531 21.18519531 -0.59539063 19.99539062 -0.64453125 18.76953125 C-0.68964844 17.61582031 -0.73476562 16.46210937 -0.78125 15.2734375 C-0.82314453 14.21560059 -0.86503906 13.15776367 -0.90820312 12.06787109 C-1.16474368 3.49423105 -1.16474368 3.49423105 0 0 Z M7 30 C6.67 31.32 6.34 32.64 6 34 C8.31 34.33 10.62 34.66 13 35 C11.3545622 33.31237149 9.68711423 31.6459651 8 30 C7.67 30 7.34 30 7 30 Z " fill="#96A0B2" transform="translate(8,67)"/>
<path d="M0 0 C0.75015381 0.00193359 1.50030762 0.00386719 2.27319336 0.00585938 C7.84059117 0.04905005 13.28551233 0.4231603 18.8125 1.125 C18.8125 2.115 18.8125 3.105 18.8125 4.125 C24.2575 3.135 24.2575 3.135 29.8125 2.125 C29.4825 3.445 29.1525 4.765 28.8125 6.125 C33.53564313 6.89612541 38.02771178 7.22264874 42.8125 7.125 C40.8125 10.125 40.8125 10.125 37.8125 11.125 C35.83643439 11.32510791 33.85643039 11.48784289 31.875 11.625 C28.38333715 11.86729631 25.19373796 12.24865323 21.8125 13.125 C20.8225 13.125 19.8325 13.125 18.8125 13.125 C15.79156785 16.14593215 16.34573166 19.68872072 16.1875 23.75 C16.14882813 24.55179688 16.11015625 25.35359375 16.0703125 26.1796875 C15.97596069 28.16107556 15.89313785 30.14300645 15.8125 32.125 C8.1875 31.25 8.1875 31.25 4.8125 30.125 C4.4825 24.515 4.1525 18.905 3.8125 13.125 C0.5125 12.465 -2.7875 11.805 -6.1875 11.125 C-4.8675 9.805 -3.5475 8.485 -2.1875 7.125 C-2.89777344 6.94324219 -3.60804687 6.76148438 -4.33984375 6.57421875 C-5.25894531 6.32285156 -6.17804687 6.07148437 -7.125 5.8125 C-8.04152344 5.56886719 -8.95804688 5.32523437 -9.90234375 5.07421875 C-11.03349609 4.60435547 -11.03349609 4.60435547 -12.1875 4.125 C-12.5175 3.135 -12.8475 2.145 -13.1875 1.125 C-8.79270272 0.0370934 -4.49937369 -0.02785066 0 0 Z M11.1875 7.625 C10.73375 8.12 10.28 8.615 9.8125 9.125 C11.4625 8.795 13.1125 8.465 14.8125 8.125 C14.8125 7.465 14.8125 6.805 14.8125 6.125 C12.68885519 5.89890663 12.68885519 5.89890663 11.1875 7.625 Z M5.8125 9.125 C5.4825 9.785 5.1525 10.445 4.8125 11.125 C6.1325 10.465 7.4525 9.805 8.8125 9.125 C7.8225 9.125 6.8325 9.125 5.8125 9.125 Z " fill="#4F6883" transform="translate(45.1875,1.875)"/>
<path d="M0 0 C1.95486328 -0.03867187 1.95486328 -0.03867187 3.94921875 -0.078125 C7.63409483 0.28137511 8.05519713 0.57348374 10.3125 3.25 C12.80151793 4.4622949 12.80151793 4.4622949 15.5 5.4375 C16.40105469 5.78167969 17.30210938 6.12585938 18.23046875 6.48046875 C18.91753906 6.73441406 19.60460938 6.98835937 20.3125 7.25 C18.9925 8.24 17.6725 9.23 16.3125 10.25 C16.87839844 10.43175781 17.44429687 10.61351562 18.02734375 10.80078125 C18.76082031 11.05214844 19.49429688 11.30351562 20.25 11.5625 C20.98089844 11.80613281 21.71179687 12.04976562 22.46484375 12.30078125 C24.3125 13.25 24.3125 13.25 25.3125 16.25 C25.35204234 18.58299825 25.35651732 20.91708189 25.3125 23.25 C24.54164062 23.22679688 23.77078125 23.20359375 22.9765625 23.1796875 C21.47222656 23.15261719 21.47222656 23.15261719 19.9375 23.125 C18.93976562 23.10179688 17.94203125 23.07859375 16.9140625 23.0546875 C14.14987827 22.97783152 14.14987827 22.97783152 12.3125 25.25 C11.6525 24.26 10.9925 23.27 10.3125 22.25 C8.40064142 21.75555382 6.48561338 21.26923858 4.5546875 20.85546875 C0.85342389 19.85599861 -2.31653467 18.05587428 -5.6875 16.25 C-5.3575 14.93 -5.0275 13.61 -4.6875 12.25 C-5.904375 12.20875 -7.12125 12.1675 -8.375 12.125 C-11.90021475 11.71800363 -13.44030133 10.93983267 -15.6875 8.1875 C-16.3475 7.218125 -17.0075 6.24875 -17.6875 5.25 C-12.88534537 -0.4756459 -7.09289442 0.08469128 0 0 Z " fill="#282E35" transform="translate(24.6875,1.75)"/>
<path d="M0 0 C0.495 1.485 0.495 1.485 1 3 C-0.875 5.5625 -0.875 5.5625 -3 8 C-4.39061244 10.78122487 -4.14533849 13.10639692 -4.17578125 16.21484375 C-4.19962891 17.45814453 -4.22347656 18.70144531 -4.24804688 19.98242188 C-4.29094929 22.61507028 -4.32223577 25.24793408 -4.34179688 27.88085938 C-4.36951172 29.12544922 -4.39722656 30.37003906 -4.42578125 31.65234375 C-4.44036377 32.79695068 -4.45494629 33.94155762 -4.4699707 35.12084961 C-5 38 -5 38 -6.90209961 39.86474609 C-10.24289295 41.67257678 -13.23706792 41.68642233 -17 42 C-15.54013672 41.88398437 -15.54013672 41.88398437 -14.05078125 41.765625 C-9.21901999 41.77049205 -5.45981564 43.66015957 -1.1875 45.75 C-0.0437793 46.27207031 -0.0437793 46.27207031 1.12304688 46.8046875 C5.15043754 48.7275796 7.23841865 49.73470768 9 54 C0.60242616 54.46084247 -7.35490981 53.50627504 -15.61621094 52.1550293 C-19.84270647 51.46420835 -24.03420242 50.87668145 -28.30078125 50.4921875 C-31.7115291 50.1713053 -34.81193295 49.70108338 -38.0625 48.5625 C-38.79597656 48.31628906 -39.52945313 48.07007813 -40.28515625 47.81640625 C-42.60415225 46.71237398 -42.87473437 45.25053127 -44 43 C-44.66 43 -45.32 43 -46 43 C-45.67 43.99 -45.34 44.98 -45 46 C-48 46 -48 46 -50.6875 43.625 C-53 41 -53 41 -53 39 C-52.34 39 -51.68 39 -51 39 C-51 38.34 -51 37.68 -51 37 C-50.34773438 37.0721875 -49.69546875 37.144375 -49.0234375 37.21875 C-45.16011846 37.62901397 -41.38873572 38 -37.5 38 C-35 38 -35 38 -33 39 C-29.38087633 39.26712387 -25.75288016 39.23156096 -22.125 39.25 C-21.11824219 39.270625 -20.11148438 39.29125 -19.07421875 39.3125 C-17.61822266 39.32023437 -17.61822266 39.32023437 -16.1328125 39.328125 C-15.24480957 39.3374707 -14.35680664 39.34681641 -13.44189453 39.35644531 C-10.39489102 38.91167175 -9.08525203 38.27465719 -7 36 C-6.46364763 33.18195204 -6.46364763 33.18195204 -6.64453125 29.9765625 C-6.66193359 28.790625 -6.67933594 27.6046875 -6.69726562 26.3828125 C-6.73529297 25.14273437 -6.77332031 23.90265625 -6.8125 22.625 C-6.86493422 20.17977508 -6.91326875 17.73445799 -6.95703125 15.2890625 C-6.98772705 14.20318848 -7.01842285 13.11731445 -7.05004883 11.99853516 C-7.00316369 9.18954375 -6.65034273 6.72581729 -6 4 C-7.32 3.67 -8.64 3.34 -10 3 C-6.7 2.01 -3.4 1.02 0 0 Z M-39 40 C-39.33 40.66 -39.66 41.32 -40 42 C-38.35 42 -36.7 42 -35 42 C-36.32 41.34 -37.64 40.68 -39 40 Z " fill="#EDF1F0" transform="translate(99,5)"/>
<path d="M0 0 C7.99857019 0.69552784 16.21661307 3.21661307 22 9 C23.30062108 10.72590353 24.53333644 12.48620651 25.75390625 14.26953125 C28.41749254 17.96849277 31.76005826 20.82307412 35.3125 23.625 C36.199375 24.40875 37.08625 25.1925 38 26 C38 26.99 38 27.98 38 29 C35.96989385 28.54497621 33.93987106 28.08957875 31.91015625 27.6328125 C29.77664025 27.16888016 27.63770887 26.72966798 25.49609375 26.3046875 C23.67271484 25.93730469 23.67271484 25.93730469 21.8125 25.5625 C20.66394531 25.33691406 19.51539062 25.11132812 18.33203125 24.87890625 C11.9239567 23.18861695 5.59013311 19.85272654 1 15 C-1.25322326 10.03044039 -1.35129408 5.2700469 0 0 Z " fill="#091F2C" transform="translate(57,52)"/>
<path d="M0 0 C3.37462715 0.54723683 5.08235 1.0549 8 3 C9.175625 3.2475 10.35125 3.495 11.5625 3.75 C16.21190547 4.80903125 19.81892356 7.10351607 23.80078125 9.66015625 C26.04291645 11.13848774 26.04291645 11.13848774 29 12 C29 12.66 29 13.32 29 14 C31.475 14.495 31.475 14.495 34 15 C34 15.66 34 16.32 34 17 C34.99 17.33 35.98 17.66 37 18 C36.67 19.32 36.34 20.64 36 22 C35.67 22 35.34 22 35 22 C34.67 23.32 34.34 24.64 34 26 C32.35 26 30.7 26 29 26 C29 25.01 29 24.02 29 23 C28.67 23.66 28.34 24.32 28 25 C24.82821869 25.27186697 23.31777247 25.19555229 20.5625 23.5 C18.08944848 21.74099078 18.08944848 21.74099078 15.1875 22.125 C9.54125564 21.90357865 5.72990033 18.42716777 1.5 14.9375 C-0.9286959 10.18130386 -0.30070325 5.23724833 0 0 Z " fill="#234B60" transform="translate(8,102)"/>
<path d="M0 0 C0.8125 1.6875 0.8125 1.6875 1 4 C-1.25 6.4375 -1.25 6.4375 -4 9 C-4.495 9.9075 -4.99 10.815 -5.5 11.75 C-5.995 12.4925 -6.49 13.235 -7 14 C-7.845625 14.165 -8.69125 14.33 -9.5625 14.5 C-10.366875 14.665 -11.17125 14.83 -12 15 C-13.37466625 17.47636012 -13.37466625 17.47636012 -14 20 C-14.66 19.67 -15.32 19.34 -16 19 C-16 18.34 -16 17.68 -16 17 C-17.94999129 17.19471111 -17.94999129 17.19471111 -20 18 C-21.28436734 19.9837767 -21.28436734 19.9837767 -22 22 C-22 19.69 -22 17.38 -22 15 C-20.02 15 -18.04 15 -16 15 C-16 14.34 -16 13.68 -16 13 C-18.31 13.33 -20.62 13.66 -23 14 C-23 17.96 -23 21.92 -23 26 C-21.02 26.33 -19.04 26.66 -17 27 C-17 27.66 -17 28.32 -17 29 C-26.41002278 33.59225513 -26.41002278 33.59225513 -31 33 C-32.9974879 29.0050242 -32.31635803 24.01781662 -32.375 19.625 C-32.41238281 18.57054688 -32.44976562 17.51609375 -32.48828125 16.4296875 C-32.57669512 8.6885624 -32.57669512 8.6885624 -29.6640625 5.2109375 C-27 4 -27 4 -24 5 C-23.34 4.67 -22.68 4.34 -22 4 C-19.9625237 3.77141886 -17.91959697 3.58975722 -15.875 3.4375 C-14.77929688 3.35371094 -13.68359375 3.26992187 -12.5546875 3.18359375 C-11.71164063 3.12300781 -10.86859375 3.06242188 -10 3 C-10 2.34 -10 1.68 -10 1 C-6.59437148 0.22157062 -3.49234244 -0.09978121 0 0 Z " fill="#141B22" transform="translate(93,9)"/>
<path d="M0 0 C0.33 0.99 0.66 1.98 1 3 C1.9590625 3.1546875 1.9590625 3.1546875 2.9375 3.3125 C5.55510284 3.90012513 8.06596825 4.57765079 10.625 5.375 C11.38039063 5.60960937 12.13578125 5.84421875 12.9140625 6.0859375 C15.17634461 7.0772746 16.33539446 8.20661409 18 10 C18.721875 10.37125 19.44375 10.7425 20.1875 11.125 C22 13 22 13 22.04296875 15.05078125 C21.98753906 15.83839844 21.93210937 16.62601563 21.875 17.4375 C21.67957931 19.81148205 21.67957931 19.81148205 22 22 C24.84968468 24.37227618 24.84968468 24.37227618 28 26 C28.69140625 28.10546875 28.69140625 28.10546875 29 30 C21.7431434 31.24017346 16.36533611 31.7216925 10.046875 27.60546875 C6.75123733 25.02053157 3.59089919 22.30735363 1 19 C1 18.34 1 17.68 1 17 C0.34 17 -0.32 17 -1 17 C-2.28519949 11.57360214 -1.92453417 6.45475158 -1 1 C-0.67 0.67 -0.34 0.34 0 0 Z " fill="#3E5170" transform="translate(9,50)"/>
<path d="M0 0 C3.49107379 1.16369126 3.85222763 1.88973538 5.6875 4.9375 C6.34298828 6.00291016 6.34298828 6.00291016 7.01171875 7.08984375 C8 9 8 9 8 11 C8.515625 11.0825 9.03125 11.165 9.5625 11.25 C12 12 12 12 14.875 13.9375 C18.46133296 16.10939561 21.73341512 16.44209727 25.875 16.875 C31.79853078 17.57004431 35.16420442 18.951029 39.83984375 22.54296875 C42.93634098 24.63156453 46.144336 25.45654817 49.73828125 26.359375 C52.0084379 27.00239001 53.92847515 27.88128177 56 29 C56 29.99 56 30.98 56 32 C48.48095457 32.17890034 41.15467836 31.67926744 33.6875 30.8125 C32.62982422 30.71130859 31.57214844 30.61011719 30.48242188 30.50585938 C22.74986996 29.60332177 22.74986996 29.60332177 18.921875 26.5234375 C18.28765625 25.69070312 17.6534375 24.85796875 17 24 C13.4933501 20.8530065 10.54360898 19.2679839 6 18 C5.938125 17.236875 5.87625 16.47375 5.8125 15.6875 C4.8255076 11.20807296 3.02495054 7.42064688 1.05859375 3.29296875 C0 1 0 1 0 0 Z " fill="#506D85" transform="translate(17,80)"/>
<path d="M0 0 C0.99 0.33 1.98 0.66 3 1 C3 1.66 3 2.32 3 3 C3.69867188 3.05800781 4.39734375 3.11601562 5.1171875 3.17578125 C8.9487893 4.27126632 11.29735619 6.51146303 14.125 9.1875 C14.64964844 9.65736328 15.17429687 10.12722656 15.71484375 10.61132812 C19.08160669 13.73517272 21.29358893 16.65159385 23 21 C23 22.32 23 23.64 23 25 C22.01 25.33 21.02 25.66 20 26 C19.67 27.65 19.34 29.3 19 31 C15.50501876 29.73792344 12.95342864 28.21507148 10 26 C8.35202764 25.28837557 6.68834592 24.60968047 5 24 C5 23.01 5 22.02 5 21 C4.34 21 3.68 21 3 21 C3.061875 20.113125 3.12375 19.22625 3.1875 18.3125 C3.26628371 15.01653914 3.26628371 15.01653914 1.5625 12.6875 C-0.59113687 8.98324458 -0.964803 5.25883671 -1 1 C-0.67 0.67 -0.34 0.34 0 0 Z " fill="#0F161B" transform="translate(8,20)"/>
<path d="M0 0 C1.1446875 0.2475 1.1446875 0.2475 2.3125 0.5 C5.0671777 1.01249818 6.36386264 0.70296996 9 0 C9.99 0.33 10.98 0.66 12 1 C11.67 2.32 11.34 3.64 11 5 C11.721875 5.103125 12.44375 5.20625 13.1875 5.3125 C16 6 16 6 18.375 7.4375 C22.36320014 9.81142865 26.35857547 11 31 11 C31.66 11 32.32 11 33 11 C33 14.96 33 18.92 33 23 C21.80942593 24.22823374 21.80942593 24.22823374 17.53125 21.32421875 C16.19244231 19.91589604 14.89708569 18.46476763 13.65234375 16.97265625 C11.72460107 14.67121405 9.61760504 13.42778457 7 12 C6.67 11.34 6.34 10.68 6 10 C5.01 10 4.02 10 3 10 C3.33 9.01 3.66 8.02 4 7 C3.02792965 5.32419948 3.02792965 5.32419948 1.5625 3.8125 C0.716875 2.884375 -0.12875 1.95625 -1 1 C-0.67 0.67 -0.34 0.34 0 0 Z M6 1 C6.33 1.66 6.66 2.32 7 3 C7.66 2.67 8.32 2.34 9 2 C8.01 1.67 7.02 1.34 6 1 Z " fill="#5C584F" transform="translate(8,13)"/>
<path d="M0 0 C1.32 1.32 2.64 2.64 4 4 C3.67 4.33 3.34 4.66 3 5 C3.928125 5.28875 4.85625 5.5775 5.8125 5.875 C9 7 9 7 12 9 C12.94875 9 13.8975 9 14.875 9 C18.12135454 9 20.09205937 9.63155735 23 11 C23 11.66 23 12.32 23 13 C24.98 12.34 26.96 11.68 29 11 C29 11.99 29 12.98 29 14 C30.65 14 32.3 14 34 14 C33.505 11.03 33.505 11.03 33 8 C33.99 8.33 34.98 8.66 36 9 C36.33218192 5.99740483 36.33218192 5.99740483 34.5 4.3125 C34.005 3.879375 33.51 3.44625 33 3 C33.99 3 34.98 3 36 3 C36.5671875 3.92296875 37.134375 4.8459375 37.71875 5.796875 C40.45701424 9.64169808 43.19463642 10.77865245 47.5 12.25 C48.82338313 12.73309909 50.14631377 13.21743984 51.46875 13.703125 C52.6340625 14.13109375 53.799375 14.5590625 55 15 C56.34669172 15.6392524 57.68876226 16.29086122 59 17 C59 17.66 59 18.32 59 19 C54.81306051 18.54324296 50.8285491 17.98882618 46.75 16.9375 C42.16404333 15.85983951 37.84097824 15.96595154 33.15234375 16.0625 C28.00874398 15.96052033 23.03525396 14.99990859 18 14 C18.49371094 14.51949219 18.98742187 15.03898438 19.49609375 15.57421875 C20.13675781 16.27160156 20.77742188 16.96898437 21.4375 17.6875 C22.07558594 18.37199219 22.71367187 19.05648437 23.37109375 19.76171875 C25.16221098 22.22289422 25.62798558 24.00816574 26 27 C25.01 27.33 24.02 27.66 23 28 C22.938125 27.2575 22.87625 26.515 22.8125 25.75 C21.74573419 22.13940801 19.92415207 21.31212024 17 19 C15.47101143 16.73592076 14.26259803 14.43167029 13 12 C13 12.66 13 13.32 13 14 C9.79619983 16.13586678 8.98060033 16.23132175 5.3125 16.125 C4.50425781 16.10695312 3.69601563 16.08890625 2.86328125 16.0703125 C2.24839844 16.04710937 1.63351562 16.02390625 1 16 C-0.50156874 12.99686252 -0.09281204 10.20932478 -0.0625 6.875 C-0.05347656 5.59367187 -0.04445313 4.31234375 -0.03515625 2.9921875 C-0.02355469 2.00476563 -0.01195312 1.01734375 0 0 Z " fill="#72889E" transform="translate(8,114)"/>
<path d="M0 0 C1.98 0 3.96 0 6 0 C6.50166077 1.64532788 7.00128447 3.29127699 7.5 4.9375 C7.7784375 5.85402344 8.056875 6.77054687 8.34375 7.71484375 C9 10 9 10 9 11 C9.9075 11.268125 10.815 11.53625 11.75 11.8125 C14.75745767 12.91137877 16.56813121 13.98741894 19 16 C19.99 16.66 20.98 17.32 22 18 C22.66 18.99 23.32 19.98 24 21 C22.02 20.67 20.04 20.34 18 20 C20.64 22.64 23.28 25.28 26 28 C24.68 28.33 23.36 28.66 22 29 C22 28.34 22 27.68 22 27 C21.44828125 26.89558594 20.8965625 26.79117188 20.328125 26.68359375 C17.51040666 25.85624357 15.28461673 24.54344035 12.75 23.0625 C8.13908604 20.47619083 4.13161204 19.11962444 -1 18 C-1.66 17.34 -2.32 16.68 -3 16 C-4.32 15.67 -5.64 15.34 -7 15 C-7 11.7 -7 8.4 -7 5 C-3.29847322 4.07461831 -2.36541838 3.91825838 1 5 C0.67 3.35 0.34 1.7 0 0 Z M0 10 C-0.33 11.32 -0.66 12.64 -1 14 C1.31 14.33 3.62 14.66 6 15 C4.3545622 13.31237149 2.68711423 11.6459651 1 10 C0.67 10 0.34 10 0 10 Z " fill="#A8B2C1" transform="translate(15,87)"/>
<path d="M0 0 C0.76054688 0.05285156 1.52109375 0.10570312 2.3046875 0.16015625 C3.10648438 0.20269531 3.90828125 0.24523438 4.734375 0.2890625 C14.81968393 1.02739509 23.93308534 4.41962905 32.3046875 10.16015625 C32.7996875 11.64515625 32.7996875 11.64515625 33.3046875 13.16015625 C9.68736566 13.95179832 9.68736566 13.95179832 2.3046875 9.16015625 C1.9746875 8.50015625 1.6446875 7.84015625 1.3046875 7.16015625 C-1.03569436 6.02913099 -1.03569436 6.02913099 -3.7578125 5.03515625 C-5.13646484 4.50535156 -5.13646484 4.50535156 -6.54296875 3.96484375 C-7.25324219 3.69929688 -7.96351562 3.43375 -8.6953125 3.16015625 C-5.97098369 -0.00573045 -4.18245809 -0.17618413 0 0 Z " fill="#6F888A" transform="translate(74.6953125,45.83984375)"/>
<path d="M0 0 C1.25612972 0.88721784 2.50460752 1.78527224 3.75 2.6875 C4.44609375 3.18636719 5.1421875 3.68523437 5.859375 4.19921875 C11.13770878 8.63956888 13.50258951 13.91297819 16.125 20.125 C16.81261297 21.73283851 17.50262358 23.33965428 18.1953125 24.9453125 C18.49453613 25.65187988 18.79375977 26.35844727 19.10205078 27.08642578 C20.05985773 29.25087905 20.05985773 29.25087905 22 32 C22 32.99 22 33.98 22 35 C16.95689163 33.07175268 14.56078179 28.80414686 11.4140625 24.62890625 C8.79734432 21.77930862 6.50471319 20.56084221 3 19 C0.625 17.0625 0.625 17.0625 -1 14 C-1.95730337 3.91460674 -1.95730337 3.91460674 0 0 Z " fill="#93A1AA" transform="translate(8,141)"/>
<path d="M0 0 C8.16920257 0.71036544 15.92264521 3.32780219 22 9 C21.34 10.32 20.68 11.64 20 13 C19.01 12.67 18.02 12.34 17 12 C16.67 12.66 16.34 13.32 16 14 C14.02699884 15.05226728 12.02323613 16.04788888 10 17 C9.21625 17.391875 8.4325 17.78375 7.625 18.1875 C7.08875 18.455625 6.5525 18.72375 6 19 C3.27791902 17.35242467 1.37814163 15.95807999 0.1875 12.94140625 C-0.92486357 8.36063128 -1.18924743 4.63806496 0 0 Z " fill="#1D394C" transform="translate(57,52)"/>
<path d="M0 0 C0.75015381 0.00193359 1.50030762 0.00386719 2.27319336 0.00585938 C7.84059117 0.04905005 13.28551233 0.4231603 18.8125 1.125 C18.8125 2.115 18.8125 3.105 18.8125 4.125 C19.4725 4.785 20.1325 5.445 20.8125 6.125 C15.58478537 9.16657942 11.88578688 10.63110724 5.8125 10.125 C5.8125 10.785 5.8125 11.445 5.8125 12.125 C1.8525 11.795 -2.1075 11.465 -6.1875 11.125 C-4.8675 9.805 -3.5475 8.485 -2.1875 7.125 C-2.89777344 6.94324219 -3.60804687 6.76148438 -4.33984375 6.57421875 C-5.25894531 6.32285156 -6.17804687 6.07148437 -7.125 5.8125 C-8.04152344 5.56886719 -8.95804688 5.32523437 -9.90234375 5.07421875 C-11.03349609 4.60435547 -11.03349609 4.60435547 -12.1875 4.125 C-12.5175 3.135 -12.8475 2.145 -13.1875 1.125 C-8.79270272 0.0370934 -4.49937369 -0.02785066 0 0 Z M11.1875 7.625 C10.73375 8.12 10.28 8.615 9.8125 9.125 C11.4625 8.795 13.1125 8.465 14.8125 8.125 C14.8125 7.465 14.8125 6.805 14.8125 6.125 C12.68885519 5.89890663 12.68885519 5.89890663 11.1875 7.625 Z " fill="#F2F2ED" transform="translate(45.1875,1.875)"/>
<path d="M0 0 C2.1514696 0.71715653 4.30091868 1.43760207 6.4453125 2.17578125 C8.91712874 3.01791478 8.91712874 3.01791478 11.1796875 3.48046875 C19.12359865 5.41552403 24.48220553 11.26746903 30 17 C30 17.33 30 17.66 30 18 C24.76987252 18.18034922 20.89156046 18.05445539 16 16 C15.21367188 15.70480469 14.42734375 15.40960938 13.6171875 15.10546875 C6.43611198 12.07226819 3.20935408 8.04492359 0 1 C0 0.67 0 0.34 0 0 Z " fill="#7B9BA6" transform="translate(19,80)"/>
<path d="M0 0 C0.93585937 0.01804688 1.87171875 0.03609375 2.8359375 0.0546875 C5.14167015 0.10174327 7.44530945 0.16746287 9.75 0.25 C7.9375 2.75 7.9375 2.75 5.75 5.25 C4.76 5.25 3.77 5.25 2.75 5.25 C3.08 6.24 3.41 7.23 3.75 8.25 C2.76 8.58 1.77 8.91 0.75 9.25 C3.69386623 10.72193312 6.12390036 10.09936173 9.375 9.8125 C10.56351563 9.71066406 11.75203125 9.60882813 12.9765625 9.50390625 C13.89179687 9.42011719 14.80703125 9.33632812 15.75 9.25 C15.75 9.58 15.75 9.91 15.75 10.25 C7.04283455 12.49163196 -1.88931185 13.23128007 -10.25 9.25 C-12.625 6.625 -12.625 6.625 -14.25 4.25 C-10.57501386 -1.11463494 -5.87583425 -0.21396595 0 0 Z " fill="#0C2237" transform="translate(21.25,2.75)"/>
<path d="M0 0 C0.99 0.99 1.98 1.98 3 3 C2.2575 4.0828125 2.2575 4.0828125 1.5 5.1875 C-0.07919285 8.14848659 -0.28178312 9.71253029 0 13 C0.66 13 1.32 13 2 13 C4.12508244 16.18762365 4.5020163 18.26512223 5 22 C6.98 22.33 8.96 22.66 11 23 C11 23.66 11 24.32 11 25 C1.58997722 29.59225513 1.58997722 29.59225513 -3 29 C-4.99404046 25.01191908 -4.27258758 20.01004473 -4.3125 15.625 C-4.34150391 14.57054687 -4.37050781 13.51609375 -4.40039062 12.4296875 C-4.40876953 11.41390625 -4.41714844 10.398125 -4.42578125 9.3515625 C-4.44036377 8.42166504 -4.45494629 7.49176758 -4.4699707 6.53369141 C-3.8667872 3.28182732 -2.48294974 2.09559361 0 0 Z " fill="#2E343D" transform="translate(65,13)"/>
<path d="M0 0 C2.43816585 -0.0809723 4.87364384 -0.14046972 7.3125 -0.1875 C8.34793945 -0.22520508 8.34793945 -0.22520508 9.40429688 -0.26367188 C14.59183544 -0.33885359 14.59183544 -0.33885359 16.65625 1.375 C17.0996875 1.91125 17.543125 2.4475 18 3 C20.48901793 4.2122949 20.48901793 4.2122949 23.1875 5.1875 C24.08855469 5.53167969 24.98960938 5.87585938 25.91796875 6.23046875 C26.60503906 6.48441406 27.29210937 6.73835937 28 7 C26.68 7.99 25.36 8.98 24 10 C25.98 10.66 27.96 11.32 30 12 C30 12.33 30 12.66 30 13 C24.36473035 14.20484722 18.85463885 14.1129643 13.125 14.0625 C11.66320312 14.05573242 11.66320312 14.05573242 10.171875 14.04882812 C7.78118566 14.03710906 5.3906256 14.02070219 3 14 C3.33 13.34 3.66 12.68 4 12 C4.66 12 5.32 12 6 12 C5.34 11.01 4.68 10.02 4 9 C4.99 8.67 5.98 8.34 7 8 C7 7.34 7 6.68 7 6 C8.32 5.34 9.64 4.68 11 4 C11 3.34 11 2.68 11 2 C7.37 1.67 3.74 1.34 0 1 C0 0.67 0 0.34 0 0 Z " fill="#203E5B" transform="translate(17,2)"/>
<path d="M0 0 C1.32 0 2.64 0 4 0 C4 1.32 4 2.64 4 4 C4.99 4.33 5.98 4.66 7 5 C8.38576923 6.62332967 9.72641268 8.28724465 11 10 C10.01 10 9.02 10 8 10 C7.67 11.32 7.34 12.64 7 14 C9.64 14 12.28 14 15 14 C14.01 14.33 13.02 14.66 12 15 C12 17.97 12 20.94 12 24 C8 24 8 24 5.89453125 22.2421875 C-1.10996564 14.27835052 -1.10996564 14.27835052 -1 9 C-0.76103776 5.98310169 -0.43263245 2.99514772 0 0 Z " fill="#274069" transform="translate(34,51)"/>
<path d="M0 0 C0.33 0.66 0.66 1.32 1 2 C1.99 2.33 2.98 2.66 4 3 C4 3.66 4 4.32 4 5 C4.99 5 5.98 5 7 5 C8.4375 7.125 8.4375 7.125 10 10 C11.32458708 12.00580329 12.6559907 14.00715862 14 16 C13.67 16.66 13.34 17.32 13 18 C11.68 17.67 10.36 17.34 9 17 C9.33 18.65 9.66 20.3 10 22 C10.99 21.01 11.98 20.02 13 19 C15.475 19.99 15.475 19.99 18 21 C19 27.75 19 27.75 19 30 C16.4375 30.8125 16.4375 30.8125 13 31 C10.41907773 29.61938689 8.22044902 27.8985496 6 26 C6.15339844 25.41734375 6.30679688 24.8346875 6.46484375 24.234375 C7.19537189 21.1842867 7.58184766 18.10627451 8 15 C6.35 14.67 4.7 14.34 3 14 C3.66 12.35 4.32 10.7 5 9 C4.175 8.2575 3.35 7.515 2.5 6.75 C0 4 0 4 0 0 Z " fill="#455A7C" transform="translate(38,51)"/>
<path d="M0 0 C4.49934352 4.1136855 9.07556715 9.08350967 10.51171875 15.16796875 C10.83327663 17.22461353 10.83327663 17.22461353 13.0625 18.25 C13.701875 18.4975 14.34125 18.745 15 19 C14.67 19.66 14.34 20.32 14 21 C13.39671875 20.95359375 12.7934375 20.9071875 12.171875 20.859375 C9.72452916 20.7488497 7.43372529 20.70216649 5 21 C4.34 21.70125 3.68 22.4025 3 23.125 C2.34 23.74375 1.68 24.3625 1 25 C-3.85917913 24.74182729 -8.59514929 22.98928742 -13 21 C-9.45332822 19.74872094 -7.27746562 20.27714947 -3.75 21.4375 C-2.41195312 21.86869141 -2.41195312 21.86869141 -1.046875 22.30859375 C-0.37140625 22.53675781 0.3040625 22.76492187 1 23 C1 22.01 1 21.02 1 20 C0.41734375 19.73445313 -0.1653125 19.46890625 -0.765625 19.1953125 C-3.06174228 17.96697004 -4.80356018 16.59685061 -6.75 14.875 C-7.36359375 14.33617188 -7.9771875 13.79734375 -8.609375 13.2421875 C-9.06828125 12.83226563 -9.5271875 12.42234375 -10 12 C-9.34 11.34 -8.68 10.68 -8 10 C-7.113125 10.78375 -6.22625 11.5675 -5.3125 12.375 C-1.28636617 15.7190594 1.68919523 17 7 17 C6.34 14.03 5.68 11.06 5 8 C2.03 7.505 2.03 7.505 -1 7 C-1 8.98 -1 10.96 -1 13 C-2.85776765 9.86501708 -3.20140476 7.62528568 -3 4 C-2.01 3.67 -1.02 3.34 0 3 C0 2.01 0 1.02 0 0 Z " fill="#8F9DB0" transform="translate(50,64)"/>
<path d="M0 0 C1.44010481 0.25662245 2.8770687 0.53090821 4.3125 0.8125 C5.11300781 0.96332031 5.91351563 1.11414062 6.73828125 1.26953125 C9.26740797 2.08636492 10.24715332 3.05408615 12 5 C12.7425 5.37125 13.485 5.7425 14.25 6.125 C16 8 16 8 16.03125 10.19140625 C15.77281306 12.48503409 15.43703891 14.73404824 15 17 C12.69 17 10.38 17 8 17 C8 16.34 8 15.68 8 15 C6.68 15 5.36 15 4 15 C1.84694043 11.14243493 0.60746746 8.44870215 1 4 C1.99 4 2.98 4 4 4 C4 3.34 4 2.68 4 2 C2.68 2 1.36 2 0 2 C0 1.34 0 0.68 0 0 Z " fill="#5E6F8F" transform="translate(15,55)"/>
<path d="M0 0 C0.763125 0.350625 1.52625 0.70125 2.3125 1.0625 C5.04759379 2.32360884 5.04759379 2.32360884 8 1 C8 4.96 8 8.92 8 13 C5.85423363 13.02685938 3.70837355 13.04633088 1.5625 13.0625 C0.36753906 13.07410156 -0.82742187 13.08570313 -2.05859375 13.09765625 C-5 13 -5 13 -6 12 C-6.07226502 10.14712498 -6.0838122 8.29166122 -6.0625 6.4375 C-6.05347656 5.42558594 -6.04445313 4.41367187 -6.03515625 3.37109375 C-6.02355469 2.58863281 -6.01195313 1.80617188 -6 1 C-4.02 1.99 -4.02 1.99 -2 3 C-1.34 2.01 -0.68 1.02 0 0 Z " fill="#FBB605" transform="translate(33,23)"/>
<path d="M0 0 C0.33 1.32 0.66 2.64 1 4 C0.0925 4.28875 -0.815 4.5775 -1.75 4.875 C-5.60745949 6.21027444 -8.60692216 7.73794811 -12 10 C-14.125 9.5625 -14.125 9.5625 -16 9 C-16.33 9.33 -16.66 9.66 -17 10 C-19.33297433 10.04092937 -21.66705225 10.04241723 -24 10 C-24 10.66 -24 11.32 -24 12 C-24.66 12.66 -25.32 13.32 -26 14 C-26 14.99 -26 15.98 -26 17 C-26.66 17 -27.32 17 -28 17 C-28.99467334 13.83513029 -29.20298932 12.44871324 -27.8125 9.375 C-25.19209765 5.94136933 -23.32350816 4.22458493 -18.984375 3.48828125 C-17.91703125 3.43027344 -16.8496875 3.37226563 -15.75 3.3125 C-14.67234375 3.24675781 -13.5946875 3.18101563 -12.484375 3.11328125 C-11.25460938 3.05720703 -11.25460938 3.05720703 -10 3 C-10 2.34 -10 1.68 -10 1 C-6.59437148 0.22157062 -3.49234244 -0.09978121 0 0 Z " fill="#1F2932" transform="translate(93,9)"/>
<path d="M0 0 C1.41764994 0.93601246 2.83407568 1.8738792 4.25 2.8125 C5.03890625 3.33457031 5.8278125 3.85664062 6.640625 4.39453125 C8.16876622 5.43437569 9.66713586 6.51997354 11.125 7.65625 C13.37917054 9.27173888 15.27887522 9.622066 18 10 C17.67 11.32 17.34 12.64 17 14 C10.56014376 14.67081836 7.16216577 12.75430238 2 9 C2 9.66 2 10.32 2 11 C2.66 11 3.32 11 4 11 C4 11.66 4 12.32 4 13 C6.475 13.99 6.475 13.99 9 15 C9 15.66 9 16.32 9 17 C9.639375 17.268125 10.27875 17.53625 10.9375 17.8125 C13 19 13 19 14 22 C8.19244201 19.84290703 3.08076932 17.5910258 0 12 C-0.33082932 7.97753554 -0.23116638 4.02614782 0 0 Z " fill="#335E6F" transform="translate(8,102)"/>
<path d="M0 0 C3.49107379 1.16369126 3.85222763 1.88973538 5.6875 4.9375 C6.34298828 6.00291016 6.34298828 6.00291016 7.01171875 7.08984375 C8 9 8 9 8 11 C8.515625 11.0825 9.03125 11.165 9.5625 11.25 C12 12 12 12 14.875 13.9375 C20.29970782 17.21616956 26.82349003 17.34893931 33 18 C33.495 20.475 33.495 20.475 34 23 C30.97562661 24.5121867 28.33758466 24.17263369 25 24 C22.5625 23 22.5625 23 21 22 C21 21.34 21 20.68 21 20 C20.34 19.9175 19.68 19.835 19 19.75 C14.13630346 18.53407587 9.43971627 16.86629886 6.3125 12.8125 C5.879375 11.884375 5.44625 10.95625 5 10 C4.11031051 8.41320625 3.21399338 6.83011756 2.3125 5.25 C0 1.12979351 0 1.12979351 0 0 Z " fill="#204054" transform="translate(17,80)"/>
<path d="M0 0 C2.33944736 0.28730055 4.6739143 0.61936779 7 1 C7 1.33 7 1.66 7 2 C5.02 2 3.04 2 1 2 C1.33 2.99 1.66 3.98 2 5 C3.65 4.67 5.3 4.34 7 4 C7.33 4.66 7.66 5.32 8 6 C8.99 5.01 9.98 4.02 11 3 C11.99 3.66 12.98 4.32 14 5 C14.40843923 7.71203652 14.13336867 10.2437142 14 13 C11.25494537 14.37252731 8.99672588 14.13229255 5.9375 14.125 C4.31134766 14.12886719 4.31134766 14.12886719 2.65234375 14.1328125 C0 14 0 14 -1 13 C-1.09873816 11.00200428 -1.12971799 9.00042842 -1.125 7 C-1.12757812 5.906875 -1.13015625 4.81375 -1.1328125 3.6875 C-1 1 -1 1 0 0 Z " fill="#8E8F8F" transform="translate(70,22)"/>
<path d="M0 0 C0.99 0.33 1.98 0.66 3 1 C3 1.66 3 2.32 3 3 C3.66 3.103125 4.32 3.20625 5 3.3125 C8.18528115 4.04246026 11.0932728 5.09854973 14.1328125 6.28125 C15.73853675 6.89935306 17.36771278 7.45590426 19 8 C18.814375 9.11375 18.62875 10.2275 18.4375 11.375 C17.68319343 14.82568861 17.68319343 14.82568861 19 17 C18.34 17.66 17.68 18.32 17 19 C9.99176887 16.19670755 4.82736022 11.08367036 1 4.625 C0 2 0 2 0 0 Z " fill="#1E3A56" transform="translate(39,45)"/>
<path d="M0 0 C-0.33 1.32 -0.66 2.64 -1 4 C3.72314313 4.77112541 8.21521178 5.09764874 13 5 C11 8 11 8 8 9 C6.02393439 9.20010791 4.04393039 9.36284289 2.0625 9.5 C-1.42916285 9.74229631 -4.61876204 10.12365323 -8 11 C-8.99 11 -9.98 11 -11 11 C-11.99 11.495 -11.99 11.495 -13 12 C-13 11.34 -13 10.68 -13 10 C-15.31 9.67 -17.62 9.34 -20 9 C-12.5 4 -12.5 4 -9 4 C-9 3.34 -9 2.68 -9 2 C-2.25 0 -2.25 0 0 0 Z " fill="#37516E" transform="translate(75,4)"/>
<path d="M0 0 C0.804375 0.433125 1.60875 0.86625 2.4375 1.3125 C5.93024437 2.96695786 9.37089362 4.18875206 13.046875 5.3515625 C15 6 15 6 17 7 C17 7.99 17 8.98 17 10 C9.33496683 10.23181842 1.96553358 9.52375362 -5.625 8.5 C-6.72457031 8.35691406 -7.82414062 8.21382812 -8.95703125 8.06640625 C-11.63882045 7.71660766 -14.31970553 7.36104277 -17 7 C-17 6.67 -17 6.34 -17 6 C-16.07767578 5.90912109 -16.07767578 5.90912109 -15.13671875 5.81640625 C-14.32847656 5.73261719 -13.52023438 5.64882812 -12.6875 5.5625 C-11.88699219 5.48128906 -11.08648437 5.40007812 -10.26171875 5.31640625 C-7.83912821 5.04734307 -7.83912821 5.04734307 -5 4 C-4.01 3.67 -3.02 3.34 -2 3 C-1.34 2.67 -0.68 2.34 0 2 C0 1.34 0 0.68 0 0 Z " fill="#74889C" transform="translate(56,102)"/>
<path d="M0 0 C2.80520274 1.06404242 3.82014547 1.63429579 5.171875 4.3828125 C7.61474988 7.88009063 10.55686278 8.82946301 14.4375 10.1875 C22.81711595 13.28238227 22.81711595 13.28238227 26 15 C26 15.66 26 16.32 26 17 C21.81306051 16.54324296 17.8285491 15.98882618 13.75 14.9375 C9.05361421 13.83055292 4.55799743 13.90406135 -0.24609375 13.99609375 C-3.25555331 14.00036249 -6.0624839 13.65278136 -9 13 C-9 12.67 -9 12.34 -9 12 C-5.7 12 -2.4 12 1 12 C0.67 10.02 0.34 8.04 0 6 C0.99 6.33 1.98 6.66 3 7 C3.33914005 3.99882243 3.33914005 3.99882243 1.5 2.375 C1.005 1.92125 0.51 1.4675 0 1 C0 0.67 0 0.34 0 0 Z " fill="#879CA9" transform="translate(41,116)"/>
<path d="M0 0 C3.11373372 1.49920512 6.12228205 3.08152136 9 5 C9 5.66 9 6.32 9 7 C11.56238505 7.16861758 14.12488424 7.33495773 16.6875 7.5 C17.7693457 7.57154297 17.7693457 7.57154297 18.87304688 7.64453125 C22.58828714 7.88203519 26.27694874 8.05874637 30 8 C30.042721 9.66611905 30.04063832 11.33382885 30 13 C29.67 13.33 29.34 13.66 29 14 C27.576875 13.9690625 27.576875 13.9690625 26.125 13.9375 C22.83264113 13.72305197 22.83264113 13.72305197 20 16 C19.01 15.34 18.02 14.68 17 14 C15.68 14 14.36 14 13 14 C10.25 11.625 10.25 11.625 8 9 C8 8.34 8 7.68 8 7 C5.525 6.01 5.525 6.01 3 5 C3 4.34 3 3.68 3 3 C2.34 3 1.68 3 1 3 C0.67 2.01 0.34 1.02 0 0 Z " fill="#183A52" transform="translate(9,110)"/>
<path d="M0 0 C1.65 0.33 3.3 0.66 5 1 C5 1.66 5 2.32 5 3 C7.51758117 3.98829417 10.03854724 4.9657226 12.5625 5.9375 C13.61920898 6.35418945 13.61920898 6.35418945 14.69726562 6.77929688 C19.16090498 8.4865875 23.24380456 9.50625566 28 10 C28.33 10.99 28.66 11.98 29 13 C30.485 13.495 30.485 13.495 32 14 C23.83105802 14.66384179 16.57485197 13.13048181 9 10 C8.33333333 8.66666667 7.66666667 7.33333333 7 6 C6.34 6 5.68 6 5 6 C5.33 6.99 5.66 7.98 6 9 C3 9 3 9 0.3125 6.625 C-2 4 -2 4 -2 2 C-1.34 2 -0.68 2 0 2 C0 1.34 0 0.68 0 0 Z " fill="#C9CFD5" transform="translate(48,42)"/>
<path d="M0 0 C4.34635395 3.51051665 8.14207388 7.12101349 11.640625 11.484375 C13.1188998 13.25912951 13.1188998 13.25912951 16 15 C16 15.99 16 16.98 16 18 C14.1128125 17.566875 14.1128125 17.566875 12.1875 17.125 C6.81898493 15.92819728 1.41655444 14.95169368 -4 14 C-4 13.67 -4 13.34 -4 13 C-2.02 12.34 -0.04 11.68 2 11 C1.34 10.01 0.68 9.02 0 8 C-0.25760279 5.30547479 -0.08900053 2.71451625 0 0 Z " fill="#34484E" transform="translate(79,63)"/>
<path d="M0 0 C5.20897439 6.5037766 8.09016483 14.63270396 8 23 C7.67 23.66 7.34 24.32 7 25 C6.34 25 5.68 25 5 25 C4.60167969 24.16855469 4.20335937 23.33710938 3.79296875 22.48046875 C3.26316406 21.39378906 2.73335937 20.30710938 2.1875 19.1875 C1.66542969 18.10855469 1.14335938 17.02960938 0.60546875 15.91796875 C-0.77837685 13.40280413 -1.96577747 11.93648211 -4 10 C-4 9.34 -4 8.68 -4 8 C-2.35 7.34 -0.7 6.68 1 6 C0.67 4.02 0.34 2.04 0 0 Z " fill="#56697E" transform="translate(34,141)"/>
<path d="M0 0 C0.74056641 0.00451172 1.48113281 0.00902344 2.24414062 0.01367188 C4.05862899 0.02537825 5.87307534 0.04331102 7.6875 0.0625 C7.6875 1.0525 7.6875 2.0425 7.6875 3.0625 C6.6975 3.0625 5.7075 3.0625 4.6875 3.0625 C4.3575 3.7225 4.0275 4.3825 3.6875 5.0625 C3.3575 4.7325 3.0275 4.4025 2.6875 4.0625 C4.0075 5.0525 5.3275 6.0425 6.6875 7.0625 C4.7075 7.0625 2.7275 7.0625 0.6875 7.0625 C0.3575 8.3825 0.0275 9.7025 -0.3125 11.0625 C-2.2925 11.0625 -4.2725 11.0625 -6.3125 11.0625 C-4.9925 9.7425 -3.6725 8.4225 -2.3125 7.0625 C-3.02277344 6.88074219 -3.73304687 6.69898438 -4.46484375 6.51171875 C-5.38394531 6.26035156 -6.30304687 6.00898437 -7.25 5.75 C-8.16652344 5.50636719 -9.08304688 5.26273437 -10.02734375 5.01171875 C-11.15849609 4.54185547 -11.15849609 4.54185547 -12.3125 4.0625 C-12.6425 3.0725 -12.9725 2.0825 -13.3125 1.0625 C-8.8746439 -0.04915232 -4.54293614 -0.05277763 0 0 Z " fill="#E5E9EC" transform="translate(45.3125,1.9375)"/>
<path d="M0 0 C1.27310312 0.93441535 2.543388 1.87267111 3.8125 2.8125 C4.52019531 3.33457031 5.22789063 3.85664063 5.95703125 4.39453125 C9.55603306 7.22280992 9.55603306 7.22280992 11 9 C10.6875 12.1875 10.6875 12.1875 10 15 C8.02 15.66 6.04 16.32 4 17 C4 15.68 4 14.36 4 13 C2.68 12.67 1.36 12.34 0 12 C-0.19477739 10.37585622 -0.38059458 8.75063577 -0.5625 7.125 C-0.66691406 6.22007812 -0.77132813 5.31515625 -0.87890625 4.3828125 C-1 2 -1 2 0 0 Z " fill="#798D9C" transform="translate(8,141)"/>
<path d="M0 0 C0.33 0.99 0.66 1.98 1 3 C2.65 3.33 4.3 3.66 6 4 C5.01 4.33 4.02 4.66 3 5 C3 7.64 3 10.28 3 13 C2.34 13 1.68 13 1 13 C3.24956183 17.49912365 5.84435546 19.28610969 10 22 C11.38576923 23.62332967 12.72641268 25.28724465 14 27 C14.98230498 28.0173873 15.97469597 29.02596117 17 30 C11.08187733 28.6684224 7.07073254 25.34578204 3 21 C1.765625 18.7734375 1.765625 18.7734375 1 17 C0.34 17 -0.32 17 -1 17 C-2.28519949 11.57360214 -1.92453417 6.45475158 -1 1 C-0.67 0.67 -0.34 0.34 0 0 Z " fill="#5D6C82" transform="translate(9,50)"/>
<path d="M0 0 C3.63 0.66 7.26 1.32 11 2 C11.33 4.64 11.66 7.28 12 10 C8.00439392 12.83022097 4.57262677 11.76210446 0 11 C0 7.33333333 0 3.66666667 0 0 Z " fill="#2B475F" transform="translate(50,32)"/>
<path d="M0 0 C1.1577506 3.47325181 1.06866652 6.36067448 1 10 C-1.97 10 -4.94 10 -8 10 C-8 9.01 -8 8.02 -8 7 C-9.32 6.67 -10.64 6.34 -12 6 C-11.67 4.68 -11.34 3.36 -11 2 C-11.66 1.67 -12.32 1.34 -13 1 C-8.59085217 -0.10228696 -4.51617599 -0.07654536 0 0 Z " fill="#202A37" transform="translate(49,15)"/>
<path d="M0 0 C2.375 0.1875 2.375 0.1875 5 1 C6.25 3.4375 6.25 3.4375 7 6 C7.33 6.66 7.66 7.32 8 8 C9.093125 7.79375 10.18625 7.5875 11.3125 7.375 C15 7 15 7 18 9 C18.6875 12.125 18.6875 12.125 19 15 C16 17 16 17 13 17 C11.3125 15 11.3125 15 10 13 C10.33 12.67 10.66 12.34 11 12 C8.69 11.67 6.38 11.34 4 11 C3.67 9.02 3.34 7.04 3 5 C2.34 5 1.68 5 1 5 C0.67 3.35 0.34 1.7 0 0 Z " fill="#1E395A" transform="translate(16,132)"/>
<path d="M0 0 C0 4.95 0 9.9 0 15 C-7.625 14.125 -7.625 14.125 -11 13 C-11 10.69 -11 8.38 -11 6 C-9.02 5.67 -7.04 5.34 -5 5 C-5 4.34 -5 3.68 -5 3 C-1.42307692 0 -1.42307692 0 0 0 Z " fill="#ACB4C2" transform="translate(61,19)"/>
<path d="M0 0 C2.31 0 4.62 0 7 0 C7.99 2.31 8.98 4.62 10 7 C9.01 6.67 8.02 6.34 7 6 C6.67 4.35 6.34 2.7 6 1 C4.68 1 3.36 1 2 1 C3.83656989 3.96731398 3.83656989 3.96731398 6 6 C4.68 6 3.36 6 2 6 C1.08523433 15.40527354 1.08523433 15.40527354 5 23.625 C5.556875 24.21539062 6.11375 24.80578125 6.6875 25.4140625 C8 27 8 27 8 30 C1 23 1 23 0.3125 21.1875 C-1.42617385 18.28971026 -3.7027287 17.01156683 -6.5390625 15.24609375 C-7.02117188 14.83488281 -7.50328125 14.42367187 -8 14 C-8 13.01 -8 12.02 -8 11 C-5.69 11.66 -3.38 12.32 -1 13 C0.10228696 8.59085217 0.07654536 4.51617599 0 0 Z " fill="#8B9CAC" transform="translate(32,45)"/>
<path d="M0 0 C9.78362876 0.23809716 19.16681444 2.75793337 26.25 9.8125 C27.18615333 10.85787121 28.11122209 11.91406361 29 13 C27.68 13.33 26.36 13.66 25 14 C25 13.34 25 12.68 25 12 C24.44828125 11.89558594 23.8965625 11.79117188 23.328125 11.68359375 C20.51040666 10.85624357 18.28461673 9.54344035 15.75 8.0625 C12.3192429 6.13356026 9.29144083 4.6297891 5.4375 3.8125 C2 3 2 3 0 0 Z " fill="#769BA3" transform="translate(12,102)"/>
<path d="M0 0 C0.99 0.33 1.98 0.66 3 1 C3 1.66 3 2.32 3 3 C3.515625 3.2475 4.03125 3.495 4.5625 3.75 C6.58320269 4.78625779 8.49297732 5.89493725 10.4375 7.0625 C13.26401892 8.70114998 15.71952335 9.60236647 19 10 C19.33 11.32 19.66 12.64 20 14 C17.03 13.505 17.03 13.505 14 13 C14 12.34 14 11.68 14 11 C12.824375 11.103125 11.64875 11.20625 10.4375 11.3125 C6.14993967 11.3125 3.66483035 10.08708096 0.34375 7.4453125 C-1.5200634 5.44062949 -1.92280808 3.70171714 -2 1 C-1.34 0.67 -0.68 0.34 0 0 Z " fill="#495E7E" transform="translate(9,134)"/>
<path d="M0 0 C4.3177458 0.50797009 8.03302114 1.19682779 12 3 C12 4.65 12 6.3 12 8 C11.34 8 10.68 8 10 8 C10 8.66 10 9.32 10 10 C8.35 10 6.7 10 5 10 C5 9.34 5 8.68 5 8 C4.34 8 3.68 8 3 8 C2.34 9.32 1.68 10.64 1 12 C-1.83022097 8.00439392 -0.76210446 4.57262677 0 0 Z " fill="#0E3148" transform="translate(57,52)"/>
<path d="M0 0 C1.65 0 3.3 0 5 0 C5 0.66 5 1.32 5 2 C5.804375 2.2475 6.60875 2.495 7.4375 2.75 C10 4 10 4 10.8125 6.125 C10.874375 6.74375 10.93625 7.3625 11 8 C10.34 8 9.68 8 9 8 C10.98 10.97 10.98 10.97 13 14 C9.79604584 14 7.90600261 13.25664978 5 12 C5 11.34 5 10.68 5 10 C4.01 9.67 3.02 9.34 2 9 C2.226875 8.2575 2.45375 7.515 2.6875 6.75 C3.29476698 3.94085007 3.29476698 3.94085007 1.5625 1.6875 C1.046875 1.130625 0.53125 0.57375 0 0 Z " fill="#454646" transform="translate(37,36)"/>
<path d="M0 0 C3.14560041 1.17960015 6.20999556 2.51044756 9.25 3.9375 C9.93578125 4.25589844 10.6215625 4.57429688 11.328125 4.90234375 C13 6 13 6 14 9 C4.78372955 9.30892527 -3.91214765 8.39049107 -13 7 C-13 6.67 -13 6.34 -13 6 C-8.38 6 -3.76 6 1 6 C0.67 4.02 0.34 2.04 0 0 Z " fill="#A3B3B3" transform="translate(94,50)"/>
<path d="M0 0 C5.28497409 -0.44041451 5.28497409 -0.44041451 8 0 C10.5 2.5 10.5 2.5 12 5 C11.34 5 10.68 5 10 5 C10 6.32 10 7.64 10 9 C7.69 9 5.38 9 3 9 C0 3.375 0 3.375 0 0 Z " fill="#515252" transform="translate(29,36)"/>
<path d="M0 0 C0.33 0.99 0.66 1.98 1 3 C-0.875 5.5625 -0.875 5.5625 -3 8 C-4.39085538 10.78171075 -4.1814016 13.1412918 -4.24609375 16.25 C-4.27896484 17.4978125 -4.31183594 18.745625 -4.34570312 20.03125 C-4.40689902 22.67699591 -4.46419106 25.322835 -4.51757812 27.96875 C-4.55173828 29.2165625 -4.58589844 30.464375 -4.62109375 31.75 C-4.65867798 33.47476563 -4.65867798 33.47476563 -4.69702148 35.234375 C-5 38 -5 38 -7 40 C-9.125 39.625 -9.125 39.625 -11 39 C-10.34733154 38.6292334 -9.69466309 38.2584668 -9.0222168 37.87646484 C-6.73364699 36.1394712 -6.73364699 36.1394712 -6.56176758 33.26025391 C-6.6027356 31.63482666 -6.6027356 31.63482666 -6.64453125 29.9765625 C-6.67063477 28.19765625 -6.67063477 28.19765625 -6.69726562 26.3828125 C-6.73529297 25.14273437 -6.77332031 23.90265625 -6.8125 22.625 C-6.86493422 20.17977508 -6.91326875 17.73445799 -6.95703125 15.2890625 C-6.98772705 14.20318848 -7.01842285 13.11731445 -7.05004883 11.99853516 C-7.00316369 9.18954375 -6.65034273 6.72581729 -6 4 C-7.32 3.67 -8.64 3.34 -10 3 C-5.05 1.515 -5.05 1.515 0 0 Z " fill="#E5E6E7" transform="translate(99,5)"/>
<path d="M0 0 C0.99 0.33 1.98 0.66 3 1 C3 1.66 3 2.32 3 3 C3.99 3 4.98 3 6 3 C5.814375 3.7425 5.62875 4.485 5.4375 5.25 C5.00370693 7.97669928 4.91885638 9.47733154 6 12 C6.99 12.33 7.98 12.66 9 13 C7.625 15.5 7.625 15.5 6 18 C5.34 18 4.68 18 4 18 C0.83031499 12.3763653 -1.07152487 7.5373734 -1 1 C-0.67 0.67 -0.34 0.34 0 0 Z " fill="#021425" transform="translate(8,20)"/>
<path d="M0 0 C0.33 1.32 0.66 2.64 1 4 C0.0925 4.28875 -0.815 4.5775 -1.75 4.875 C-5.60745949 6.21027444 -8.60692216 7.73794811 -12 10 C-14.1875 9.625 -14.1875 9.625 -16 9 C-16 8.34 -16 7.68 -16 7 C-15.34 7 -14.68 7 -14 7 C-13.67 6.01 -13.34 5.02 -13 4 C-12.01 3.34 -11.02 2.68 -10 2 C-10 1.67 -10 1.34 -10 1 C-6.59437148 0.22157062 -3.49234244 -0.09978121 0 0 Z " fill="#15212E" transform="translate(93,9)"/>
<path d="M0 0 C1.1446875 0.2475 1.1446875 0.2475 2.3125 0.5 C5.0671777 1.01249818 6.36386264 0.70296996 9 0 C9.99 0.33 10.98 0.66 12 1 C11.67 3.31 11.34 5.62 11 8 C10.01 8 9.02 8 8 8 C8.66 8.66 9.32 9.32 10 10 C9.67 10.99 9.34 11.98 9 13 C8.01 12.67 7.02 12.34 6 12 C6 11.34 6 10.68 6 10 C5.01 10 4.02 10 3 10 C3.33 9.01 3.66 8.02 4 7 C3.02792965 5.32419948 3.02792965 5.32419948 1.5625 3.8125 C0.716875 2.884375 -0.12875 1.95625 -1 1 C-0.67 0.67 -0.34 0.34 0 0 Z M6 1 C6.33 1.66 6.66 2.32 7 3 C7.66 2.67 8.32 2.34 9 2 C8.01 1.67 7.02 1.34 6 1 Z " fill="#94999E" transform="translate(8,13)"/>
<path d="M0 0 C2.41854446 -0.13536629 4.82949783 -0.23420279 7.25 -0.3125 C8.27287109 -0.3753418 8.27287109 -0.3753418 9.31640625 -0.43945312 C11.328125 -0.48828125 11.328125 -0.48828125 15 0 C17.484375 2.51953125 17.484375 2.51953125 19 5 C18.01 5.33 17.02 5.66 16 6 C15.01 7.485 15.01 7.485 14 9 C12.0546875 9.94921875 12.0546875 9.94921875 9.875 10.6875 C8.78832031 11.06455078 8.78832031 11.06455078 7.6796875 11.44921875 C7.12539063 11.63097656 6.57109375 11.81273437 6 12 C5.34 11.01 4.68 10.02 4 9 C4.99 8.67 5.98 8.34 7 8 C7 7.34 7 6.68 7 6 C8.32 5.34 9.64 4.68 11 4 C11 3.34 11 2.68 11 2 C7.37 1.67 3.74 1.34 0 1 C0 0.67 0 0.34 0 0 Z " fill="#3B5469" transform="translate(17,2)"/>
<path d="M0 0 C1.65 0.33 3.3 0.66 5 1 C4.814375 2.11375 4.62875 3.2275 4.4375 4.375 C3.68319343 7.82568861 3.68319343 7.82568861 5 10 C4.34 10.66 3.68 11.32 3 12 C-1.56958375 10.02677065 -4.13463296 8.07763771 -7 4 C-5.68 4.33 -4.36 4.66 -3 5 C-3 4.34 -3 3.68 -3 3 C-2.01 2.67 -1.02 2.34 0 2 C0 1.34 0 0.68 0 0 Z " fill="#30516D" transform="translate(53,52)"/>
<path d="M0 0 C1.98 0.99 1.98 0.99 4 2 C3.01 2.495 3.01 2.495 2 3 C2.33 4.98 2.66 6.96 3 9 C5.97 9.33 8.94 9.66 12 10 C11.67 7.03 11.34 4.06 11 1 C11.99 0.67 12.98 0.34 14 0 C14 3.96 14 7.92 14 12 C11.85423363 12.02685938 9.70837355 12.04633088 7.5625 12.0625 C6.36753906 12.07410156 5.17257813 12.08570313 3.94140625 12.09765625 C1 12 1 12 0 11 C-0.07226502 9.14712498 -0.0838122 7.29166122 -0.0625 5.4375 C-0.05347656 4.42558594 -0.04445313 3.41367187 -0.03515625 2.37109375 C-0.02355469 1.58863281 -0.01195313 0.80617188 0 0 Z " fill="#CFA32E" transform="translate(27,24)"/>
<path d="M0 0 C0.66 0 1.32 0 2 0 C2 0.66 2 1.32 2 2 C5.63 2.66 9.26 3.32 13 4 C13 3.34 13 2.68 13 2 C15.4375 2.75 15.4375 2.75 18 4 C18.66015625 6.078125 18.66015625 6.078125 19 8 C8.08353399 9.75847379 8.08353399 9.75847379 3.875 6.8125 C2.38137654 4.57206481 1.01481366 2.49090626 0 0 Z " fill="#4E617F" transform="translate(19,72)"/>
<path d="M0 0 C4.95 0.33 9.9 0.66 15 1 C15 1.66 15 2.32 15 3 C5.58997722 7.59225513 5.58997722 7.59225513 1 7 C0.67 4.69 0.34 2.38 0 0 Z " fill="#1C252C" transform="translate(61,35)"/>
<path d="M0 0 C2.625 0.9375 2.625 0.9375 5 2 C6 8.75 6 8.75 6 11 C4.02 11.33 2.04 11.66 0 12 C-0.66 11.01 -1.32 10.02 -2 9 C-1.34 9 -0.68 9 0 9 C0.33 8.34 0.66 7.68 1 7 C0.01 7.33 -0.98 7.66 -2 8 C-2 5.69 -2 3.38 -2 1 C-1.34 0.67 -0.68 0.34 0 0 Z " fill="#5D6F8C" transform="translate(51,70)"/>
<path d="M0 0 C3.71888239 0.50712033 6.73454239 1.11608215 10 3 C10 3.99 10 4.98 10 6 C2.33496683 6.23181842 -5.03446642 5.52375362 -12.625 4.5 C-13.72457031 4.35691406 -14.82414062 4.21382813 -15.95703125 4.06640625 C-18.63882045 3.71660766 -21.31970553 3.36104277 -24 3 C-24 2.67 -24 2.34 -24 2 C-11.13 2.495 -11.13 2.495 2 3 C2 2.34 2 1.68 2 1 C1.34 0.67 0.68 0.34 0 0 Z " fill="#BBC4CB" transform="translate(63,106)"/>
<path d="M0 0 C0.66 0 1.32 0 2 0 C2.97594109 1.15611483 3.90508872 2.35185254 4.8125 3.5625 C10.63046382 10.43160854 19.07202694 14.93938365 28 16 C25 18 25 18 22.6796875 17.75390625 C13.70762334 15.22969578 6.05325238 12.22584449 1 4 C0.32421875 1.75390625 0.32421875 1.75390625 0 0 Z " fill="#D9E5F0" transform="translate(8,67)"/>
<path d="M0 0 C2.82259936 3.36184223 4.42730929 7.03516329 6.0625 11.0625 C7.5001765 14.57158949 8.88326803 17.82490205 11 21 C11 21.99 11 22.98 11 24 C6.71095765 22.4114658 4.67654474 19.56872632 2 16 C2 15.34 2 14.68 2 14 C2.66 14 3.32 14 4 14 C3.71125 13.32453125 3.4225 12.6490625 3.125 11.953125 C2.75375 11.06109375 2.3825 10.1690625 2 9.25 C1.62875 8.36828125 1.2575 7.4865625 0.875 6.578125 C0 4 0 4 0 0 Z " fill="#C2C9CE" transform="translate(19,152)"/>
<path d="M0 0 C2.97 0 5.94 0 9 0 C9 2.31 9 4.62 9 7 C4.545 7.495 4.545 7.495 0 8 C0 5.36 0 2.72 0 0 Z " fill="#57534A" transform="translate(41,25)"/>
<path d="M0 0 C2 1.3125 2 1.3125 4 3 C4 3.99 4 4.98 4 6 C4.556875 6.061875 5.11375 6.12375 5.6875 6.1875 C8.92943577 7.32655851 10.5843041 9.5843041 13 12 C16.16645474 13.79320824 16.16645474 13.79320824 19 15 C19 15.66 19 16.32 19 17 C19.99 17.33 20.98 17.66 22 18 C20.3125 18.75 20.3125 18.75 18 19 C15.5625 17.3125 15.5625 17.3125 13 15 C9.45168527 11.90659742 6.54858266 10.2693719 2 9 C1.855625 8.071875 1.71125 7.14375 1.5625 6.1875 C1.07899889 2.99274889 1.07899889 2.99274889 0 0 Z " fill="#708497" transform="translate(21,89)"/>
<path d="M0 0 C4 2.66666667 8 5.33333333 12 8 C11.67 9.98 11.34 11.96 11 14 C7.21180727 15.43410153 4.93478721 14.51009497 1.25 13.0625 C0.26515625 12.68222656 -0.7196875 12.30195312 -1.734375 11.91015625 C-2.48203125 11.60980469 -3.2296875 11.30945313 -4 11 C-0.45332822 9.74872094 1.72253438 10.27714947 5.25 11.4375 C6.14203125 11.72496094 7.0340625 12.01242188 7.953125 12.30859375 C8.62859375 12.53675781 9.3040625 12.76492187 10 13 C10 12.01 10 11.02 10 10 C9.41734375 9.73445313 8.8346875 9.46890625 8.234375 9.1953125 C5.93825772 7.96697004 4.19643982 6.59685061 2.25 4.875 C1.63640625 4.33617188 1.0228125 3.79734375 0.390625 3.2421875 C-0.06828125 2.83226563 -0.5271875 2.42234375 -1 2 C-0.67 1.34 -0.34 0.68 0 0 Z " fill="#EBF0F6" transform="translate(41,74)"/>
<path d="M0 0 C0.81855469 0.15082031 1.63710937 0.30164062 2.48046875 0.45703125 C6.63999817 1.11023143 10.46276747 1.36094867 14.66796875 1.26953125 C12.66796875 4.26953125 12.66796875 4.26953125 9.66796875 5.26953125 C6.92931588 5.34004239 4.21769287 5.3631089 1.48046875 5.33203125 C0.73087891 5.32751953 -0.01871094 5.32300781 -0.79101562 5.31835938 C-2.63805508 5.30659479 -4.48505338 5.2886599 -6.33203125 5.26953125 C-3.00182066 0.3469441 -3.00182066 0.3469441 0 0 Z " fill="#64727F" transform="translate(73.33203125,7.73046875)"/>
<path d="M0 0 C1.32 0 2.64 0 4 0 C4 1.32 4 2.64 4 4 C4.99 4.33 5.98 4.66 7 5 C7 6.98 7 8.96 7 11 C3.37673261 12.2077558 2.35853631 11.54311128 -1 10 C-0.67 6.7 -0.34 3.4 0 0 Z " fill="#142952" transform="translate(34,51)"/>
<path d="M0 0 C3 0.5 3 0.5 5 1 C5.33 1.99 5.66 2.98 6 4 C4.68 3.67 3.36 3.34 2 3 C2 3.66 2 4.32 2 5 C0.68 5 -0.64 5 -2 5 C-2.99 5.495 -2.99 5.495 -4 6 C-6.35981813 5.06421005 -8.69631264 4.06652192 -11 3 C-8.29340383 -1.05989425 -4.37501007 -0.37451448 0 0 Z " fill="#8C9F9D" transform="translate(77,46)"/>
<path d="M0 0 C4.50419983 0.85409827 7.03017333 3.47747469 10.25 6.5625 C10.80429687 7.08263672 11.35859375 7.60277344 11.9296875 8.13867188 C13.29256828 9.41930985 14.64711683 10.7088049 16 12 C12.98968256 12.93423645 12.13349732 13.04449911 9 12 C4.89018785 8.41708684 2.51541733 4.75134384 0 0 Z " fill="#829FA7" transform="translate(33,85)"/>
<path d="M0 0 C0 0.33 0 0.66 0 1 C-5.63526965 2.20484722 -11.14536115 2.1129643 -16.875 2.0625 C-17.84953125 2.05798828 -18.8240625 2.05347656 -19.828125 2.04882812 C-22.21881434 2.03710906 -24.6093744 2.02070219 -27 2 C-26.67 1.34 -26.34 0.68 -26 0 C-23.70703125 -0.37890625 -23.70703125 -0.37890625 -20.8125 -0.5625 C-17.72674599 -0.77695395 -14.90047486 -1.02189553 -11.875 -1.6875 C-7.701722 -2.14111717 -4.020047 -1.08094597 0 0 Z " fill="#41464B" transform="translate(47,14)"/>
<path d="M0 0 C0.33 0.66 0.66 1.32 1 2 C3.64 2 6.28 2 9 2 C9 2.33 9 2.66 9 3 C6.69 3 4.38 3 2 3 C2 3.66 2 4.32 2 5 C3.65 5 5.3 5 7 5 C7 5.99 7 6.98 7 8 C7.598125 8.0825 8.19625 8.165 8.8125 8.25 C11.5966296 9.20455872 12.43311142 10.57132271 14 13 C13.01 13.33 12.02 13.66 11 14 C8.60351877 12.53118892 6.8664016 10.85830472 4.9375 8.8125 C3.07705149 6.65842144 3.07705149 6.65842144 0 7 C0 4.69 0 2.38 0 0 Z " fill="#354E6F" transform="translate(8,128)"/>
<path d="M0 0 C1.32 1.32 2.64 2.64 4 4 C3.67 4.33 3.34 4.66 3 5 C3.928125 5.268125 4.85625 5.53625 5.8125 5.8125 C8.76240366 6.91148371 10.05615186 7.62418561 12 10 C9.69 9.67 7.38 9.34 5 9 C4.67 9.99 4.34 10.98 4 12 C2.68 12.33 1.36 12.66 0 13 C0 8.71 0 4.42 0 0 Z " fill="#98A6B7" transform="translate(8,114)"/>
<path d="M0 0 C0.33 0.99 0.66 1.98 1 3 C2.65 3.33 4.3 3.66 6 4 C5.01 4.33 4.02 4.66 3 5 C3 7.64 3 10.28 3 13 C1.68 13 0.36 13 -1 13 C-1.33 13.66 -1.66 14.32 -2 15 C-2.3690205 4.44191344 -2.3690205 4.44191344 0 0 Z " fill="#7F8795" transform="translate(9,50)"/>
<path d="M0 0 C1.65 0.33 3.3 0.66 5 1 C5 1.66 5 2.32 5 3 C8.465 4.485 8.465 4.485 12 6 C10.02 6.99 10.02 6.99 8 8 C7.67 7.34 7.34 6.68 7 6 C6.34 6 5.68 6 5 6 C5.33 6.99 5.66 7.98 6 9 C3 9 3 9 0.3125 6.625 C-2 4 -2 4 -2 2 C-1.34 2 -0.68 2 0 2 C0 1.34 0 0.68 0 0 Z " fill="#C4C9CD" transform="translate(48,42)"/>
<path d="M0 0 C2 2 2 2 2 5 C2.66 5 3.32 5 4 5 C4 5.66 4 6.32 4 7 C6.475 7.99 6.475 7.99 9 9 C9 9.66 9 10.32 9 11 C9.639375 11.268125 10.27875 11.53625 10.9375 11.8125 C13 13 13 13 14 16 C8.06862948 13.79691952 3.44896486 11.49279588 0 6 C-0.25 2.6875 -0.25 2.6875 0 0 Z " fill="#354D5F" transform="translate(8,108)"/>
<path d="M0 0 C1.65 1.32 3.3 2.64 5 4 C4.01 4 3.02 4 2 4 C0.5783681 7.3171411 -0.39009109 10.44219804 -1 14 C-5.875 9.375 -5.875 9.375 -7 6 C-6.21625 5.855625 -5.4325 5.71125 -4.625 5.5625 C-2.03578982 5.12201075 -2.03578982 5.12201075 0 4 C0 2.68 0 1.36 0 0 Z " fill="#1D3960" transform="translate(40,57)"/>
<path d="M0 0 C0.61875 0.165 1.2375 0.33 1.875 0.5 C4.16786836 1.23577017 4.16786836 1.23577017 7 0 C8.0625 1.875 8.0625 1.875 9 4 C8.67 4.66 8.34 5.32 8 6 C9.65 6 11.3 6 13 6 C13 6.33 13 6.66 13 7 C8.48382401 7.07654536 4.40914783 7.10228696 0 6 C-0.38218767 4.34385343 -0.71395102 2.67542976 -1 1 C-0.67 0.67 -0.34 0.34 0 0 Z " fill="#668687" transform="translate(87,50)"/>
<path d="M0 0 C5.19897112 1.37619824 8.08143805 4.66863099 11 9 C11.875 11.9375 11.875 11.9375 12 14 C11.01 14.33 10.02 14.66 9 15 C8.938125 14.2575 8.87625 13.515 8.8125 12.75 C7.74679218 9.14298893 5.98170764 8.20078421 3 6 C0 2.48275862 0 2.48275862 0 0 Z " fill="#647284" transform="translate(22,127)"/>
<path d="M0 0 C3 1.8125 3 1.8125 6 4 C6 4.99 6 5.98 6 7 C4.741875 6.71125 3.48375 6.4225 2.1875 6.125 C-3.18101507 4.92819728 -8.58344556 3.95169368 -14 3 C-14 2.67 -14 2.34 -14 2 C-9.38 2 -4.76 2 0 2 C0 1.34 0 0.68 0 0 Z " fill="#727F80" transform="translate(89,74)"/>
<path d="M0 0 C2.7327894 0.42042914 4.59203181 0.73594729 7 2 C8.29157892 3.84259382 9.08746488 5.68452326 9.95703125 7.7578125 C11.72846887 11.56607165 14.39193244 14.73122199 17 18 C16.01 18 15.02 18 14 18 C12.63823419 16.01924973 11.30406884 14.01920337 10 12 C9.34 12 8.68 12 8 12 C7.90847656 11.39285156 7.81695313 10.78570312 7.72265625 10.16015625 C6.81960031 7.46075119 5.83021907 6.9021341 3.4375 5.4375 C1.49609375 4.24609375 1.49609375 4.24609375 0 3 C0 2.01 0 1.02 0 0 Z " fill="#9AA9BF" transform="translate(24,56)"/>
<path d="M0 0 C0.75410156 0.00451172 1.50820313 0.00902344 2.28515625 0.01367188 C4.14847127 0.02546501 6.01174555 0.04340058 7.875 0.0625 C7.875 0.7225 7.875 1.3825 7.875 2.0625 C3.42 3.5475 3.42 3.5475 -1.125 5.0625 C-2.115 4.0725 -3.105 3.0825 -4.125 2.0625 C-5.115 2.0625 -6.105 2.0625 -7.125 2.0625 C-8.115 1.7325 -9.105 1.4025 -10.125 1.0625 C-6.93675432 -0.53162284 -3.49603338 -0.03924735 0 0 Z " fill="#03192A" transform="translate(19.125,2.9375)"/>
<path d="M0 0 C0.99 0 1.98 0 3 0 C3 0.66 3 1.32 3 2 C4.32 2 5.64 2 7 2 C7 2.66 7 3.32 7 4 C6.01 4 5.02 4 4 4 C4.33 6.64 4.66 9.28 5 12 C3.35 11.67 1.7 11.34 0 11 C0.020625 9.88625 0.04125 8.7725 0.0625 7.625 C0.26380718 4.16784079 0.26380718 4.16784079 -1 2 C-0.67 1.34 -0.34 0.68 0 0 Z " fill="#2E4463" transform="translate(12,55)"/>
<path d="M0 0 C1.32 0.33 2.64 0.66 4 1 C4 1.66 4 2.32 4 3 C6.31 3 8.62 3 11 3 C11 3.66 11 4.32 11 5 C12.32 5 13.64 5 15 5 C14.67 6.65 14.34 8.3 14 10 C10.50501876 8.73792344 7.95342864 7.21507148 5 5 C3.35202764 4.28837557 1.68834592 3.60968047 0 3 C0 2.01 0 1.02 0 0 Z " fill="#061A2A" transform="translate(13,41)"/>
<path d="M0 0 C0.66 0.66 1.32 1.32 2 2 C1.01 2.495 1.01 2.495 0 3 C-0.33 3.99 -0.66 4.98 -1 6 C1.64 6.33 4.28 6.66 7 7 C7 7.99 7 8.98 7 10 C-0.625 9.125 -0.625 9.125 -4 8 C-4 5.69 -4 3.38 -4 1 C-2.125 0.375 -2.125 0.375 0 0 Z " fill="#E6EEED" transform="translate(54,24)"/>
<path d="M0 0 C1.98 0.99 1.98 0.99 4 2 C4 2.66 4 3.32 4 4 C4.99 4.33 5.98 4.66 7 5 C7.66 4.34 8.32 3.68 9 3 C9 5.97 9 8.94 9 12 C7.2421875 10.47005208 5.484375 8.94010417 3.7265625 7.41015625 C2.04367666 5.93041376 2.04367666 5.93041376 0 5 C0 3.35 0 1.7 0 0 Z " fill="#48452D" transform="translate(18,22)"/>
<path d="M0 0 C1.58468677 0.45363171 3.16769924 0.91311452 4.75 1.375 C5.63171875 1.63023438 6.5134375 1.88546875 7.421875 2.1484375 C9.76080572 2.9209934 11.83442562 3.83625676 14 5 C14 5.66 14 6.32 14 7 C8.49191603 6.40984815 3.35121931 5.43336231 -2 4 C-1.01 3.67 -0.02 3.34 1 3 C0.67 2.01 0.34 1.02 0 0 Z " fill="#D8DADD" transform="translate(53,126)"/>
<path d="M0 0 C7 7 7 7 7 10 C4.125 10.125 4.125 10.125 1 10 C-1 8 -1 8 -1.1875 4.4375 C-1 1 -1 1 0 0 Z " fill="#6F7D98" transform="translate(31,64)"/>
<path d="M0 0 C1.32 0 2.64 0 4 0 C4.66 0.66 5.32 1.32 6 2 C6.66 2 7.32 2 8 2 C7.67 3.65 7.34 5.3 7 7 C5.68 7 4.36 7 3 7 C3 6.34 3 5.68 3 5 C1.68 5.33 0.36 5.66 -1 6 C-1.042721 4.33388095 -1.04063832 2.66617115 -1 1 C-0.67 0.67 -0.34 0.34 0 0 Z " fill="#C2C4C7" transform="translate(73,26)"/>
<path d="M0 0 C2.64 0.66 5.28 1.32 8 2 C8.33 1.34 8.66 0.68 9 0 C10.7074998 1.28062485 12.37373596 2.61767557 14 4 C14 4.66 14 5.32 14 6 C14.99 6.33 15.98 6.66 17 7 C10.19775182 6.82679461 5.34589067 5.31167204 0 1 C0 0.67 0 0.34 0 0 Z " fill="#658B97" transform="translate(28,91)"/>
<path d="M0 0 C5.94 0 11.88 0 18 0 C18 0.33 18 0.66 18 1 C13.545 1.495 13.545 1.495 9 2 C9.99 2.33 10.98 2.66 12 3 C12.66 3.33 13.32 3.66 14 4 C13.67 4.66 13.34 5.32 13 6 C10.33333333 5.33333333 7.66666667 4.66666667 5 4 C4.27296875 3.87496094 3.5459375 3.74992188 2.796875 3.62109375 C2.20390625 3.41613281 1.6109375 3.21117187 1 3 C0.67 2.01 0.34 1.02 0 0 Z " fill="#B5BDC2" transform="translate(32,3)"/>
<path d="M0 0 C2.64 1.98 5.28 3.96 8 6 C7.67 7.32 7.34 8.64 7 10 C4.72970466 9.60856977 3.16591802 9.11258722 1.25 7.8125 C-0.54267046 5.21312784 -0.20510719 3.07660784 0 0 Z " fill="#45707E" transform="translate(8,102)"/>
<path d="M0 0 C3 1.5 3 1.5 6 3 C6 3.99 6 4.98 6 6 C5.40574219 5.87882812 4.81148437 5.75765625 4.19921875 5.6328125 C-2.18678908 4.34170672 -8.58647035 3.14614408 -15 2 C-15 1.67 -15 1.34 -15 1 C-9.47322267 0.80607799 -5.24385089 1.2520497 0 3 C0 2.01 0 1.02 0 0 Z " fill="#95A0B6" transform="translate(45,81)"/>
<path d="M0 0 C0.66 0.33 1.32 0.66 2 1 C2 4.20395416 1.25664978 6.09399739 0 9 C-0.66 8.67 -1.32 8.34 -2 8 C-2 7.34 -2 6.68 -2 6 C-3.94999129 6.19471111 -3.94999129 6.19471111 -6 7 C-7.28436734 8.9837767 -7.28436734 8.9837767 -8 11 C-8 8.69 -8 6.38 -8 4 C-6.02 4 -4.04 4 -2 4 C-2 3.34 -2 2.68 -2 2 C-1.34 2 -0.68 2 0 2 C0 1.34 0 0.68 0 0 Z " fill="#292D34" transform="translate(79,20)"/>
<path d="M0 0 C0.66 0.33 1.32 0.66 2 1 C-1.33323613 4.48474686 -4.43878297 5.47959432 -9 7 C-9.99 7 -10.98 7 -12 7 C-11.67 5.35 -11.34 3.7 -11 2 C-8.02148438 1.65820312 -8.02148438 1.65820312 -5.04296875 1.31640625 C-2.80603607 1.02829265 -2.80603607 1.02829265 0 0 Z " fill="#F3F3F0" transform="translate(57,7)"/>
<path d="M0 0 C2.3125 0 2.3125 0 5 1 C6.04006388 2.98835741 6.68819486 4.93984889 7.32421875 7.08984375 C7.91843885 9.20562555 7.91843885 9.20562555 10 11 C6.25 12.125 6.25 12.125 4 11 C3.375 7.9375 3.375 7.9375 3 5 C2.34 5 1.68 5 1 5 C0.67 3.35 0.34 1.7 0 0 Z " fill="#163354" transform="translate(16,132)"/>
<path d="M0 0 C2.72727273 4.09090909 2.72727273 4.09090909 3 7 C1.9375 8.75 1.9375 8.75 0 10 C-3.1875 10.1875 -3.1875 10.1875 -6 10 C-5.67 8.35 -5.34 6.7 -5 5 C-3.68 5 -2.36 5 -1 5 C-0.67 3.35 -0.34 1.7 0 0 Z " fill="#082336" transform="translate(74,61)"/>
<path d="M0 0 C3.38276494 0.60406517 5.34321071 1.85742799 8 4 C8.99 4.66 9.98 5.32 11 6 C11.99 7.485 11.99 7.485 13 9 C11.58208592 8.54554036 10.16571954 8.08625056 8.75 7.625 C7.96109375 7.36976562 7.1721875 7.11453125 6.359375 6.8515625 C4.13372042 6.04826333 2.09068328 5.10288338 0 4 C0 2.68 0 1.36 0 0 Z " fill="#97A4B4" transform="translate(26,99)"/>
<path d="M0 0 C1.44010481 0.25662245 2.8770687 0.53090821 4.3125 0.8125 C5.11300781 0.96332031 5.91351563 1.11414062 6.73828125 1.26953125 C9.26382279 2.08520702 10.25548004 3.05084427 12 5 C12.66 5.33 13.32 5.66 14 6 C14 6.66 14 7.32 14 8 C11.36 7.67 8.72 7.34 6 7 C5.34 5.35 4.68 3.7 4 2 C2.68 2 1.36 2 0 2 C0 1.34 0 0.68 0 0 Z " fill="#4D5C6A" transform="translate(15,55)"/>
<path d="M0 0 C4.42580434 5.63284189 5.23709676 8.88709728 5 16 C4.01 15.67 3.02 15.34 2 15 C0.1378492 10.2699378 -0.25833731 5.03757758 0 0 Z " fill="#7F8B96" transform="translate(7,27)"/>
<path d="M0 0 C0.99 0.33 1.98 0.66 3 1 C3 3.31 3 5.62 3 8 C4.32 8.66 5.64 9.32 7 10 C5.35 9.67 3.7 9.34 2 9 C2 8.34 2 7.68 2 7 C-0.97 6.505 -0.97 6.505 -4 6 C-3.0022242 3.00667261 -2.2477975 2.05233685 0 0 Z " fill="#030F1D" transform="translate(15,35)"/>
<path d="M0 0 C0 0.66 0 1.32 0 2 C1.65 1.67 3.3 1.34 5 1 C5 1.66 5 2.32 5 3 C3 4.625 3 4.625 1 6 C0.34 5.01 -0.32 4.02 -1 3 C-2.9239754 2.28253193 -2.9239754 2.28253193 -5.0625 1.9375 C-7.22265625 1.52734375 -7.22265625 1.52734375 -9 1 C-9.33 0.34 -9.66 -0.32 -10 -1 C-6.01146724 -2.23782051 -3.93203895 -1.31067965 0 0 Z " fill="#3E392A" transform="translate(36,21)"/>
<path d="M0 0 C0.33 1.32 0.66 2.64 1 4 C-2.98196457 5.05404945 -5.98195309 4.84098656 -10 4 C-10 3.01 -10 2.02 -10 1 C-6.59437148 0.22157062 -3.49234244 -0.09978121 0 0 Z " fill="#27384F" transform="translate(93,9)"/>
<path d="M0 0 C0.99 0.33 1.98 0.66 3 1 C2.67 2.65 2.34 4.3 2 6 C0.35 6.33 -1.3 6.66 -3 7 C-2.67 8.32 -2.34 9.64 -2 11 C-2.66 11 -3.32 11 -4 11 C-4 10.01 -4 9.02 -4 8 C-5.65 8 -7.3 8 -9 8 C-9 7.34 -9 6.68 -9 6 C-7.906875 5.896875 -6.81375 5.79375 -5.6875 5.6875 C-2.14440371 5.02692273 -1.06756277 4.7972908 1 2 C0.67 1.34 0.34 0.68 0 0 Z " fill="#2A4664" transform="translate(19,125)"/>
<path d="M0 0 C0.33 1.32 0.66 2.64 1 4 C-1.95664519 5.4783226 -4.74229737 5.06032783 -8 5 C-8.33 4.01 -8.66 3.02 -9 2 C-5.5647952 -0.29013653 -4.014669 -0.17842973 0 0 Z " fill="#183652" transform="translate(50,99)"/>
<path d="M0 0 C1.84765625 0.33984375 1.84765625 0.33984375 4.0625 0.9375 C5.16271484 1.22947266 5.16271484 1.22947266 6.28515625 1.52734375 C7.13400391 1.76130859 7.13400391 1.76130859 8 2 C7.67 3.32 7.34 4.64 7 6 C4.69 5.67 2.38 5.34 0 5 C-0.5625 3.0625 -0.5625 3.0625 -1 1 C-0.67 0.67 -0.34 0.34 0 0 Z " fill="#707F9F" transform="translate(20,64)"/>
<path d="M0 0 C4.60704103 5.44468486 5.81835444 12.01363243 6 19 C5.67 19.66 5.34 20.32 5 21 C4.34 21 3.68 21 3 21 C2.67 19.35 2.34 17.7 2 16 C2.33 16 2.66 16 3 16 C3.39875905 11.74657016 2.27267751 8.7136863 0.65625 4.8671875 C0 3 0 3 0 0 Z " fill="#C5CFDB" transform="translate(36,145)"/>
<path d="M0 0 C1.27310312 0.93441535 2.543388 1.87267111 3.8125 2.8125 C4.52019531 3.33457031 5.22789063 3.85664063 5.95703125 4.39453125 C7.79961207 5.84252498 9.46364869 7.23101505 11 9 C11 9.66 11 10.32 11 11 C7.17716957 10.45388137 5.58920048 8.76181385 3 6 C2.34 5.67 1.68 5.34 1 5 C1 4.34 1 3.68 1 3 C0.34 2.67 -0.32 2.34 -1 2 C-0.67 1.34 -0.34 0.68 0 0 Z " fill="#A8B1BA" transform="translate(8,141)"/>
<path d="M0 0 C4.0042343 3.49087093 5.62671065 5.64951939 6 11 C3.13275314 10.42655063 2.1385485 10.1385485 0 8 C-0.26991906 5.31160615 -0.08737357 2.70858064 0 0 Z " fill="#314E56" transform="translate(79,63)"/>
<path d="M0 0 C3.63 0.66 7.26 1.32 11 2 C11 2.99 11 3.98 11 5 C3.57142857 5.28571429 3.57142857 5.28571429 0 3 C0 2.01 0 1.02 0 0 Z " fill="#617A8F" transform="translate(50,32)"/>
<path d="M0 0 C2.375 0.75 2.375 0.75 5 2 C5.66 3.32 6.32 4.64 7 6 C2.38 6 -2.24 6 -7 6 C-7 5.67 -7 5.34 -7 5 C-4.36 4.67 -1.72 4.34 1 4 C0.67 2.68 0.34 1.36 0 0 Z " fill="#39556D" transform="translate(50,99)"/>
<path d="M0 0 C3.49107379 1.16369126 3.85222763 1.88973538 5.6875 4.9375 C6.34298828 6.00291016 6.34298828 6.00291016 7.01171875 7.08984375 C8 9 8 9 8 11 C8.66 11 9.32 11 10 11 C10 12.32 10 13.64 10 15 C9.34 15 8.68 15 8 15 C6.6875 13.0625 6.6875 13.0625 5 10 C4.56945312 9.24074219 4.13890625 8.48148438 3.6953125 7.69921875 C0 1.15413136 0 1.15413136 0 0 Z " fill="#405B6E" transform="translate(17,80)"/>
<path d="M0 0 C4.59306496 1.4859916 7.43569245 3.85014682 11 7 C10.34 7.66 9.68 8.32 9 9 C8.34 8.34 7.68 7.68 7 7 C4.93125966 6.3574765 4.93125966 6.3574765 3 6 C3 5.34 3 4.68 3 4 C2.01 3.67 1.02 3.34 0 3 C0 2.01 0 1.02 0 0 Z " fill="#192A3C" transform="translate(39,42)"/>
<path d="M0 0 C1.0828125 0.4640625 1.0828125 0.4640625 2.1875 0.9375 C4.80307309 1.92560539 7.25118982 2.5287754 10 3 C10.33 4.32 10.66 5.64 11 7 C8.03 6.505 8.03 6.505 5 6 C5 5.34 5 4.68 5 4 C2.36 4 -0.28 4 -3 4 C-2.01 3.34 -1.02 2.68 0 2 C0 1.34 0 0.68 0 0 Z " fill="#748497" transform="translate(18,141)"/>
<path d="M0 0 C4.31134737 1.56776268 8.05250912 3.69109024 12 6 C12.66 6.33 13.32 6.66 14 7 C14 7.66 14 8.32 14 9 C13.38125 8.731875 12.7625 8.46375 12.125 8.1875 C7.82005607 6.5516213 3.41968448 5.28728674 -1 4 C-0.34 3.34 0.32 2.68 1 2 C0.67 1.34 0.34 0.68 0 0 Z " fill="#E1EBF1" transform="translate(19,99)"/>
<path d="M0 0 C3.06322033 0.59655713 4.98332476 1.52743751 7.4375 3.4375 C10.18030391 5.4827805 12.72717652 6.90905884 16 8 C16 8.33 16 8.66 16 9 C12.28906746 9.34279875 10.44133269 9.27288035 7.2265625 7.28515625 C6.36804688 6.55167969 5.50953125 5.81820312 4.625 5.0625 C3.31402344 3.96615234 3.31402344 3.96615234 1.9765625 2.84765625 C1.32429687 2.23792969 0.67203125 1.62820312 0 1 C0 0.67 0 0.34 0 0 Z " fill="#1E4957" transform="translate(9,102)"/>
<path d="M0 0 C3.465 1.485 3.465 1.485 7 3 C6.34 4.65 5.68 6.3 5 8 C5.66 8.33 6.32 8.66 7 9 C4.36 9 1.72 9 -1 9 C-1 8.34 -1 7.68 -1 7 C0.32 7 1.64 7 3 7 C2.505 6.21625 2.01 5.4325 1.5 4.625 C0 2 0 2 0 0 Z " fill="#D5DFE5" transform="translate(9,93)"/>
<path d="M0 0 C5.2324495 0.79279538 10.34861415 2.1355321 13.9375 6.1875 C14.288125 6.785625 14.63875 7.38375 15 8 C13.68 8 12.36 8 11 8 C11 7.34 11 6.68 11 6 C10.484375 5.9175 9.96875 5.835 9.4375 5.75 C5.95544268 4.67859775 3.12799115 2.86476395 0 1 C0 0.67 0 0.34 0 0 Z " fill="#5F818D" transform="translate(26,108)"/>
<path d="M0 0 C1.8125 0.375 1.8125 0.375 4 1 C4.7425 1.185625 5.485 1.37125 6.25 1.5625 C6.8275 1.706875 7.405 1.85125 8 2 C8 2.66 8 3.32 8 4 C9.98 3.34 11.96 2.68 14 2 C14 2.99 14 3.98 14 5 C4.98468271 5.63019694 4.98468271 5.63019694 0.875 3 C0.25625 2.34 -0.3625 1.68 -1 1 C-0.67 0.67 -0.34 0.34 0 0 Z " fill="#576B7E" transform="translate(23,123)"/>
<path d="M0 0 C2.64 0.33 5.28 0.66 8 1 C8.33 2.32 8.66 3.64 9 5 C6.03 4.67 3.06 4.34 0 4 C0 2.68 0 1.36 0 0 Z " fill="#4E5052" transform="translate(61,31)"/>
<path d="M0 0 C0.33 0.99 0.66 1.98 1 3 C-0.65 4.32 -2.3 5.64 -4 7 C-4.66 6.67 -5.32 6.34 -6 6 C-6 5.34 -6 4.68 -6 4 C-7.32 3.67 -8.64 3.34 -10 3 C-5.05 1.515 -5.05 1.515 0 0 Z " fill="#8F96A2" transform="translate(99,5)"/>
<path d="M0 0 C3.37462715 0.54723683 5.08235 1.0549 8 3 C3.82262526 4.59138085 0.46839215 5.21278058 -4 5 C-2.68 3.35 -1.36 1.7 0 0 Z " fill="#E6EBF2" transform="translate(71,8)"/>
<path d="M0 0 C1.32 0 2.64 0 4 0 C3.34 3.3 2.68 6.6 2 10 C1.34 9.67 0.68 9.34 0 9 C0 6.03 0 3.06 0 0 Z " fill="#10213F" transform="translate(34,51)"/>
<path d="M0 0 C-0.33 0.99 -0.66 1.98 -1 3 C-1.99 3 -2.98 3 -4 3 C-4.33 5.64 -4.66 8.28 -5 11 C-5.66 10.67 -6.32 10.34 -7 10 C-7.625 6.9375 -7.625 6.9375 -8 4 C-7.01 3.67 -6.02 3.34 -5 3 C-5 2.34 -5 1.68 -5 1 C-3 0 -3 0 0 0 Z " fill="#19212A" transform="translate(74,18)"/>
<path d="M0 0 C0.33 0.66 0.66 1.32 1 2 C2.64363134 2.72159424 4.31050386 3.39351421 6 4 C5.67 5.65 5.34 7.3 5 9 C3.0625 8.4375 3.0625 8.4375 1 7 C0.25 3.375 0.25 3.375 0 0 Z " fill="#607587" transform="translate(8,144)"/>
<path d="M0 0 C3.3 0.33 6.6 0.66 10 1 C10 1.99 10 2.98 10 4 C7.25 4.25 7.25 4.25 4 4 C1.625 2 1.625 2 0 0 Z " fill="#638990" transform="translate(12,102)"/>
<path d="M0 0 C3.39192363 0.59283621 5.2107757 1.76743189 7.75 4.0625 C8.67039062 4.88427734 8.67039062 4.88427734 9.609375 5.72265625 C10.29773438 6.35494141 10.29773438 6.35494141 11 7 C7.98917234 7 5.84326289 6.99514201 3 6 C1.1875 2.9375 1.1875 2.9375 0 0 Z " fill="#C0CDD3" transform="translate(33,85)"/>
<path d="M0 0 C0.99 0.66 1.98 1.32 3 2 C2.67 3.65 2.34 5.3 2 7 C0.68 7.33 -0.64 7.66 -2 8 C-2 5.69 -2 3.38 -2 1 C-1.34 0.67 -0.68 0.34 0 0 Z " fill="#6A81A1" transform="translate(51,70)"/>
<path d="M0 0 C2 3.75 2 3.75 2 6 C-0.31 6 -2.62 6 -5 6 C-4.75 4.125 -4.75 4.125 -4 2 C-1.9375 0.75 -1.9375 0.75 0 0 Z " fill="#8795A6" transform="translate(58,24)"/>
<path d="M0 0 C0.99 0.33 1.98 0.66 3 1 C3 1.66 3 2.32 3 3 C3.99 3 4.98 3 6 3 C5.34 4.32 4.68 5.64 4 7 C2.68 7 1.36 7 0 7 C-0.38133299 5.0085944 -0.71325582 3.00720923 -1 1 C-0.67 0.67 -0.34 0.34 0 0 Z " fill="#272D37" transform="translate(8,20)"/>
<path d="M0 0 C0.99 0.33 1.98 0.66 3 1 C3 1.66 3 2.32 3 3 C3.66 3.66 4.32 4.32 5 5 C3.71349294 5.69710731 2.42059335 6.38242876 1.125 7.0625 C0.04605469 7.63677734 0.04605469 7.63677734 -1.0546875 8.22265625 C-1.69664063 8.47917969 -2.33859375 8.73570313 -3 9 C-3.66 8.67 -4.32 8.34 -5 8 C-3.68 7.67 -2.36 7.34 -1 7 C-1.33 6.01 -1.66 5.02 -2 4 C-1.0625 1.8125 -1.0625 1.8125 0 0 Z " fill="#DFE4EA" transform="translate(61,3)"/>
<path d="M0 0 C5.52 -0.368 5.52 -0.368 7.875 1.4375 C9 3 9 3 9 4 C6.36 4 3.72 4 1 4 C0.67 2.68 0.34 1.36 0 0 Z " fill="#69788B" transform="translate(57,106)"/>
<path d="M0 0 C0.66 0 1.32 0 2 0 C2 0.99 2 1.98 2 3 C3.65 3.33 5.3 3.66 7 4 C7.33 5.65 7.66 7.3 8 9 C7.01 9 6.02 9 5 9 C2.34105893 6.18465063 0.57363911 3.87206399 0 0 Z " fill="#44525C" transform="translate(11,41)"/>
<path d="M0 0 C1.32 0.33 2.64 0.66 4 1 C4.33 2.98 4.66 4.96 5 7 C3.68 6.67 2.36 6.34 1 6 C0.67 4.02 0.34 2.04 0 0 Z " fill="#838F99" transform="translate(18,159)"/>
<path d="M0 0 C0.99 0.33 1.98 0.66 3 1 C2.979375 1.78375 2.95875 2.5675 2.9375 3.375 C2.81315937 5.98114961 2.81315937 5.98114961 4 8 C1.5625 7.3125 1.5625 7.3125 -1 6 C-1.8125 3.375 -1.8125 3.375 -2 1 C-1.34 0.67 -0.68 0.34 0 0 Z " fill="#7D899F" transform="translate(9,134)"/>
<path d="M0 0 C2.49361571 1.20381448 4.68143083 2.45428722 7 4 C7 4.66 7 5.32 7 6 C4.69 6 2.38 6 0 6 C0 4.02 0 2.04 0 0 Z " fill="#14263C" transform="translate(18,46)"/>
<path d="M0 0 C-1.04874998 2.62187494 -1.64931313 3.79371361 -4.125 5.25 C-4.74375 5.4975 -5.3625 5.745 -6 6 C-6 5.34 -6 4.68 -6 4 C-6.99 4 -7.98 4 -9 4 C-9 3.34 -9 2.68 -9 2 C-2.25 0 -2.25 0 0 0 Z " fill="#747D8D" transform="translate(75,4)"/>
<path d="M0 0 C1.875 0.625 1.875 0.625 4 2 C5.25 5.125 5.25 5.125 6 8 C2.63279613 6.60667426 1.0140476 5.0210714 -1 2 C-0.67 1.34 -0.34 0.68 0 0 Z " fill="#354656" transform="translate(8,5)"/>
<path d="M0 0 C1.66611905 -0.042721 3.33382885 -0.04063832 5 0 C6 1 6 1 6.0625 4.5625 C6.041875 5.696875 6.02125 6.83125 6 8 C5.67 7.34 5.34 6.68 5 6 C4.34 6 3.68 6 3 6 C2.01 4.02 1.02 2.04 0 0 Z " fill="#697C89" transform="translate(34,155)"/>
<path d="M0 0 C2.4375 0.8125 2.4375 0.8125 5 2 C5.33 2.99 5.66 3.98 6 5 C3.69 5.33 1.38 5.66 -1 6 C-0.67 4.02 -0.34 2.04 0 0 Z " fill="#97A6AF" transform="translate(48,124)"/>
<path d="M0 0 C1.32 0 2.64 0 4 0 C3.67 2.31 3.34 4.62 3 7 C5.475 7.99 5.475 7.99 8 9 C7.34 9.66 6.68 10.32 6 11 C3.5 9.1875 3.5 9.1875 1 7 C1 6.01 1 5.02 1 4 C1.66 4 2.32 4 3 4 C3 3.01 3 2.02 3 1 C2.01 0.67 1.02 0.34 0 0 Z " fill="#4C5E7D" transform="translate(9,59)"/>
<path d="M0 0 C2.31 0 4.62 0 7 0 C6.01 0.33 5.02 0.66 4 1 C4 3.97 4 6.94 4 10 C3.34 10 2.68 10 2 10 C1.855625 8.906875 1.71125 7.81375 1.5625 6.6875 C1.11711896 3.06877013 1.11711896 3.06877013 0 0 Z " fill="#365076" transform="translate(42,65)"/>
<path d="M0 0 C0.33 0.99 0.66 1.98 1 3 C3.01508358 3.73323796 3.01508358 3.73323796 5 4 C5 5.32 5 6.64 5 8 C3.68 8 2.36 8 1 8 C0.67 8.66 0.34 9.32 0 10 C0 6.7 0 3.4 0 0 Z " fill="#8D97AE" transform="translate(7,55)"/>
<path d="M0 0 C0.33 0.66 0.66 1.32 1 2 C1.99 2.33 2.98 2.66 4 3 C4 3.66 4 4.32 4 5 C4.99 5 5.98 5 7 5 C7.33 6.32 7.66 7.64 8 9 C4.21304827 8.4590069 2.37254028 6.96567536 0 4 C0 2.68 0 1.36 0 0 Z " fill="#7F8B9F" transform="translate(38,51)"/>
<path d="M0 0 C1.98 0.99 1.98 0.99 4 2 C3.01 2.495 3.01 2.495 2 3 C2.33 5.31 2.66 7.62 3 10 C2.01 10.33 1.02 10.66 0 11 C0 7.37 0 3.74 0 0 Z " fill="#D5A933" transform="translate(27,24)"/>
<path d="M0 0 C0.66 0 1.32 0 2 0 C3.38232443 1.62626404 4.71937515 3.2925002 6 5 C5.34 5 4.68 5 4 5 C4 5.66 4 6.32 4 7 C3.01 7 2.02 7 1 7 C-0.0625 4.625 -0.0625 4.625 -1 2 C-0.67 1.34 -0.34 0.68 0 0 Z " fill="#020C1B" transform="translate(13,25)"/>
<path d="M0 0 C0.99 0.99 1.98 1.98 3 3 C0.69 4.65 -1.62 6.3 -4 8 C-3.50168276 4.31245243 -2.89932357 2.39509338 0 0 Z " fill="#3E464C" transform="translate(65,13)"/>
<path d="M0 0 C6.64615385 2.46153846 6.64615385 2.46153846 8.4375 5.1875 C8.623125 5.785625 8.80875 6.38375 9 7 C5.40608886 5.66511872 2.24509304 4.03977277 -1 2 C-0.67 1.34 -0.34 0.68 0 0 Z " fill="#495E75" transform="translate(13,117)"/>
<path d="M0 0 C1.32 0.99 2.64 1.98 4 3 C3.67 3.99 3.34 4.98 3 6 C0.03 5.505 0.03 5.505 -3 5 C-2.34 4.67 -1.68 4.34 -1 4 C-0.34786708 1.97536745 -0.34786708 1.97536745 0 0 Z " fill="#376477" transform="translate(16,108)"/>
<path d="M0 0 C2.97 0.495 2.97 0.495 6 1 C6 2.65 6 4.3 6 6 C4.35 5.67 2.7 5.34 1 5 C0.67 3.35 0.34 1.7 0 0 Z " fill="#102943" transform="translate(14,7)"/>
<path d="M0 0 C4.455 2.97 4.455 2.97 9 6 C8.01 6.66 7.02 7.32 6 8 C3.69 6.02 1.38 4.04 -1 2 C-0.67 1.34 -0.34 0.68 0 0 Z " fill="#DAE1EE" transform="translate(41,74)"/>
<path d="M0 0 C1.875 0.625 1.875 0.625 4 2 C5.25 5.125 5.25 5.125 6 8 C4 7 2 6 0 5 C0 3.35 0 1.7 0 0 Z " fill="#464745" transform="translate(18,22)"/>
<path d="M0 0 C1.53202706 0.25195908 3.05257128 0.57596777 4.5625 0.9375 C5.38878906 1.13214844 6.21507812 1.32679687 7.06640625 1.52734375 C8.02353516 1.76130859 8.02353516 1.76130859 9 2 C9 2.33 9 2.66 9 3 C4.38 3 -0.24 3 -5 3 C-3.68 2.34 -2.36 1.68 -1 1 C-0.67 0.67 -0.34 0.34 0 0 Z " fill="#51565C" transform="translate(38,12)"/>
<path d="M0 0 C2.31 0.66 4.62 1.32 7 2 C7 2.99 7 3.98 7 5 C4.03 4.67 1.06 4.34 -2 4 C-1.01 3.67 -0.02 3.34 1 3 C0.67 2.01 0.34 1.02 0 0 Z " fill="#C3CACD" transform="translate(53,126)"/>
<path d="M0 0 C0.99 0.66 1.98 1.32 3 2 C2.67 3.32 2.34 4.64 2 6 C0.35 6 -1.3 6 -3 6 C-3 5.01 -3 4.02 -3 3 C-2.01 3 -1.02 3 0 3 C0 2.01 0 1.02 0 0 Z " fill="#314F67" transform="translate(40,122)"/>
<path d="M0 0 C1.32 0.33 2.64 0.66 4 1 C4 1.66 4 2.32 4 3 C4.99 3.33 5.98 3.66 7 4 C6.67 5.32 6.34 6.64 6 8 C3.38472619 5.63379989 1.73559438 3.057952 0 0 Z " fill="#395366" transform="translate(38,116)"/>
<path d="M0 0 C1.32 1.32 2.64 2.64 4 4 C3.67 4.33 3.34 4.66 3 5 C3.66 5.66 4.32 6.32 5 7 C3.02 7.99 3.02 7.99 1 9 C0.67 6.03 0.34 3.06 0 0 Z " fill="#C2CED2" transform="translate(8,114)"/>
<path d="M0 0 C2.31 0.66 4.62 1.32 7 2 C7 2.99 7 3.98 7 5 C2.545 4.01 2.545 4.01 -2 3 C-1.34 2.67 -0.68 2.34 0 2 C0 1.34 0 0.68 0 0 Z " fill="#6A929E" transform="translate(29,88)"/>
<path d="M0 0 C4.99275057 1.27721526 7.57611908 3.17330957 11 7 C6.00724943 5.72278474 3.42388092 3.82669043 0 0 Z " fill="#6F7F92" transform="translate(15,73)"/>
<path d="M0 0 C2.6875 0.875 2.6875 0.875 5 2 C5 2.66 5 3.32 5 4 C5.99 4.33 6.98 4.66 8 5 C4.0507432 4.44894091 0.65079826 3.61064629 -3 2 C-2.01 1.34 -1.02 0.68 0 0 Z " fill="#C5CDCC" transform="translate(72,51)"/>
<path d="M0 0 C1.98 0 3.96 0 6 0 C6 0.66 6 1.32 6 2 C8.475 2.99 8.475 2.99 11 4 C7.52128379 5.15957207 6.65780355 4.77456651 3.3125 3.5625 C2.50425781 3.27503906 1.69601563 2.98757812 0.86328125 2.69140625 C0.24839844 2.46324219 -0.36648437 2.23507813 -1 2 C-0.67 1.34 -0.34 0.68 0 0 Z " fill="#DEE4E2" transform="translate(61,47)"/>
<path d="M0 0 C0.99 0.33 1.98 0.66 3 1 C3 2.32 3 3.64 3 5 C1.35 5.33 -0.3 5.66 -2 6 C-1.34 4.02 -0.68 2.04 0 0 Z " fill="#657695" transform="translate(53,19)"/>
<path d="M0 0 C3.34243648 1.89404734 3.97997149 2.94091591 5.25 6.6875 C5.4975 7.780625 5.745 8.87375 6 10 C4.68 9.67 3.36 9.34 2 9 C1.855625 8.071875 1.71125 7.14375 1.5625 6.1875 C1.07899889 2.99274889 1.07899889 2.99274889 0 0 Z " fill="#7E91A5" transform="translate(21,89)"/>
<path d="M0 0 C2.475 0.495 2.475 0.495 5 1 C5 1.66 5 2.32 5 3 C6.65 3 8.3 3 10 3 C9.01 4.485 9.01 4.485 8 6 C2.25 3.375 2.25 3.375 0 0 Z " fill="#8596A8" transform="translate(48,58)"/>
<path d="M0 0 C2.31 0.66 4.62 1.32 7 2 C7 3.32 7 4.64 7 6 C4.0625 5.25 4.0625 5.25 1 4 C0.125 1.875 0.125 1.875 0 0 Z " fill="#C5D0D9" transform="translate(24,56)"/>
<path d="M0 0 C2.46800047 1.15173355 4.04783565 2.04783565 6 4 C5.67 4.99 5.34 5.98 5 7 C4.01 6.67 3.02 6.34 2 6 C2 5.34 2 4.68 2 4 C1.01 4 0.02 4 -1 4 C-0.67 2.68 -0.34 1.36 0 0 Z " fill="#DEDFE8" transform="translate(12,19)"/>
<path d="M0 0 C0.66 0.99 1.32 1.98 2 3 C1.01 3.495 1.01 3.495 0 4 C-0.72159424 5.64363134 -1.39351421 7.31050386 -2 9 C-2.33 9 -2.66 9 -3 9 C-3 6.36 -3 3.72 -3 1 C-2.01 0.67 -1.02 0.34 0 0 Z " fill="#54678B" transform="translate(53,16)"/>
<path d="M0 0 C3.60654039 2.40436026 3.85452932 3.94679607 5 8 C4.34 8 3.68 8 3 8 C3 7.34 3 6.68 3 6 C0.525 5.01 0.525 5.01 -2 4 C-1.34 3.67 -0.68 3.34 0 3 C0 2.01 0 1.02 0 0 Z " fill="#1A2529" transform="translate(41,15)"/>
<path d="M0 0 C1.98 0 3.96 0 6 0 C6 0.99 6 1.98 6 3 C5.34 3 4.68 3 4 3 C3.67 4.32 3.34 5.64 3 7 C2.01 4.69 1.02 2.38 0 0 Z " fill="#242536" transform="translate(42,15)"/>
<path d="M0 0 C4.55737263 0.43820891 7.57653445 0.85041169 11 4 C3.49230769 3.38461538 3.49230769 3.38461538 1 1.4375 C0.67 0.963125 0.34 0.48875 0 0 Z " fill="#396976" transform="translate(17,106)"/>
<path d="M0 0 C1.32 0.66 2.64 1.32 4 2 C4 2.99 4 3.98 4 5 C-0.455 4.01 -0.455 4.01 -5 3 C-3.68 2.67 -2.36 2.34 -1 2 C-0.67 1.34 -0.34 0.68 0 0 Z " fill="#99A3A5" transform="translate(91,76)"/>
<path d="M0 0 C1.11375 0.350625 2.2275 0.70125 3.375 1.0625 C6.80264476 2.37239331 6.80264476 2.37239331 9 1 C9.66 1.66 10.32 2.32 11 3 C10.67 3.66 10.34 4.32 10 5 C6.05140217 4.4359146 3.29120954 3.2568294 0 1 C0 0.67 0 0.34 0 0 Z " fill="#848A92" transform="translate(65,71)"/>
<path d="M0 0 C2.31 0.66 4.62 1.32 7 2 C6.01 2.99 5.02 3.98 4 5 C2.68 4.34 1.36 3.68 0 3 C0 2.01 0 1.02 0 0 Z " fill="#8B9FA0" transform="translate(87,47)"/>
<path d="M0 0 C2 1.75 2 1.75 4 4 C4 5.32 4 6.64 4 8 C2.68 7.34 1.36 6.68 0 6 C0 4.02 0 2.04 0 0 Z " fill="#141B27" transform="translate(27,37)"/>
<path d="M0 0 C-0.33 1.32 -0.66 2.64 -1 4 C-2.32 4.33 -3.64 4.66 -5 5 C-5 4.01 -5 3.02 -5 2 C-5.66 1.67 -6.32 1.34 -7 1 C-4.50935112 0.31292445 -2.62113708 0 0 0 Z " fill="#485A78" transform="translate(54,13)"/>
<path d="M0 0 C2.5 1.3125 2.5 1.3125 5 3 C5 3.99 5 4.98 5 6 C2.69 5.67 0.38 5.34 -2 5 C-1.01 4.67 -0.02 4.34 1 4 C0.67 2.68 0.34 1.36 0 0 Z " fill="#A7ACBF" transform="translate(46,81)"/>
<path d="M0 0 C1.17539996 0.92652701 2.34010577 1.86663387 3.5 2.8125 C4.1496875 3.33457031 4.799375 3.85664062 5.46875 4.39453125 C7 6 7 6 7 9 C3.26115668 6.34345343 1.35021826 4.41889613 0 0 Z " fill="#8C93A3" transform="translate(8,70)"/>
<path d="M0 0 C0.66 0 1.32 0 2 0 C3.2890625 1.53125 3.2890625 1.53125 4.625 3.5 C5.07101563 4.1496875 5.51703125 4.799375 5.9765625 5.46875 C6.31429688 5.9740625 6.65203125 6.479375 7 7 C6.01 7 5.02 7 4 7 C0 2.65714286 0 2.65714286 0 0 Z " fill="#CED7E8" transform="translate(8,67)"/>
<path d="M0 0 C0.99 0 1.98 0 3 0 C3 0.66 3 1.32 3 2 C4.32 2.33 5.64 2.66 7 3 C5.68 3 4.36 3 3 3 C3 3.66 3 4.32 3 5 C1.68 4.34 0.36 3.68 -1 3 C-0.67 2.01 -0.34 1.02 0 0 Z " fill="#1B2B44" transform="translate(12,55)"/>
<path d="M0 0 C0 0.66 0 1.32 0 2 C1.65 2 3.3 2 5 2 C5 2.33 5 2.66 5 3 C-3.57142857 3.28571429 -3.57142857 3.28571429 -7 1 C-4.50935112 0.31292445 -2.62113708 0 0 0 Z " fill="#617B7A" transform="translate(95,54)"/>
<path d="M0 0 C2.31 1.65 4.62 3.3 7 5 C6.67 5.99 6.34 6.98 6 8 C1.3125 4.38671875 1.3125 4.38671875 0 3 C0 2.01 0 1.02 0 0 Z " fill="#171824" transform="translate(15,24)"/>
<path d="M0 0 C2.33944736 0.28730055 4.6739143 0.61936779 7 1 C7 1.33 7 1.66 7 2 C5.02 2 3.04 2 1 2 C1 5.3 1 8.6 1 12 C0.67 12 0.34 12 0 12 C-0.19401633 10.18818595 -0.38004375 8.37551468 -0.5625 6.5625 C-0.66691406 5.55316406 -0.77132812 4.54382813 -0.87890625 3.50390625 C-0.91886719 2.67761719 -0.95882812 1.85132812 -1 1 C-0.67 0.67 -0.34 0.34 0 0 Z " fill="#7E848B" transform="translate(70,22)"/>
<path d="M0 0 C0.66 0 1.32 0 2 0 C2 0.66 2 1.32 2 2 C3.32 2 4.64 2 6 2 C6 2.66 6 3.32 6 4 C3.69 4 1.38 4 -1 4 C-0.67 2.68 -0.34 1.36 0 0 Z " fill="#262B28" transform="translate(42,21)"/>
<path d="M0 0 C-2.64738916 1.4606285 -3.89448334 2 -7 2 C-7.99 2.495 -7.99 2.495 -9 3 C-9 2.34 -9 1.68 -9 1 C-9.66 0.67 -10.32 0.34 -11 0 C-6.94952424 -1.35015859 -4.2079832 -0.62084998 0 0 Z " fill="#46586E" transform="translate(71,13)"/>
<path d="M0 0 C0.66 0.33 1.32 0.66 2 1 C1.67 2.65 1.34 4.3 1 6 C-0.32 5.34 -1.64 4.68 -3 4 C-3 3.34 -3 2.68 -3 2 C-2.01 2 -1.02 2 0 2 C0 1.34 0 0.68 0 0 Z " fill="#30465B" transform="translate(36,150)"/>
<path d="M0 0 C2 1.3125 2 1.3125 4 3 C4 3.99 4 4.98 4 6 C2.68 6 1.36 6 0 6 C0 4.02 0 2.04 0 0 Z " fill="#9AA7AE" transform="translate(8,94)"/>
<path d="M0 0 C2.97 0.495 2.97 0.495 6 1 C6 1.66 6 2.32 6 3 C7.32 3.33 8.64 3.66 10 4 C10 4.66 10 5.32 10 6 C6.40992874 4.66654496 3.20429093 3.1056769 0 1 C0 0.67 0 0.34 0 0 Z " fill="#4A6F7C" transform="translate(28,91)"/>
<path d="M0 0 C2.0625 2.3125 2.0625 2.3125 4 5 C3.67 5.99 3.34 6.98 3 8 C2.34 8 1.68 8 1 8 C-0.35439668 5.29120665 -0.06501451 2.99066732 0 0 Z " fill="#BBBFC8" transform="translate(7,70)"/>
<path d="M0 0 C0.66 0.33 1.32 0.66 2 1 C2 1.66 2 2.32 2 3 C3.65 3.33 5.3 3.66 7 4 C6.34 4.66 5.68 5.32 5 6 C1.535 4.02 1.535 4.02 -2 2 C-1.34 1.34 -0.68 0.68 0 0 Z " fill="#15212F" transform="translate(66,68)"/>
<path d="M0 0 C1.65 0.33 3.3 0.66 5 1 C5 1.66 5 2.32 5 3 C4.01 3.66 3.02 4.32 2 5 C1.01 4.67 0.02 4.34 -1 4 C-0.67 2.68 -0.34 1.36 0 0 Z " fill="#49667C" transform="translate(53,52)"/>
<path d="M0 0 C2.475 0.495 2.475 0.495 5 1 C5.33 2.32 5.66 3.64 6 5 C5.01 5 4.02 5 3 5 C1.3125 2.5 1.3125 2.5 0 0 Z " fill="#596B7C" transform="translate(41,50)"/>
<path d="M0 0 C0.33 0 0.66 0 1 0 C1 1.65 1 3.3 1 5 C1.66 5.33 2.32 5.66 3 6 C1.68 6.33 0.36 6.66 -1 7 C-1.66 6.01 -2.32 5.02 -3 4 C-2.67 3.34 -2.34 2.68 -2 2 C-1.34 2 -0.68 2 0 2 C0 1.34 0 0.68 0 0 Z " fill="#1C2A37" transform="translate(49,35)"/>
<path d="M0 0 C0.66 0.33 1.32 0.66 2 1 C2 1.66 2 2.32 2 3 C2.99 3.33 3.98 3.66 5 4 C4.67 4.99 4.34 5.98 4 7 C2.02 5.35 0.04 3.7 -2 2 C-1.34 1.34 -0.68 0.68 0 0 Z " fill="#D2D9DE" transform="translate(13,14)"/>
<path d="M0 0 C2.31 0.66 4.62 1.32 7 2 C3.25 5 3.25 5 1 5 C0.67 3.35 0.34 1.7 0 0 Z " fill="#39576A" transform="translate(38,7)"/>
<path d="M0 0 C2.88575819 0.39803561 3.82189513 0.79009069 5.75 3.0625 C6.1625 3.701875 6.575 4.34125 7 5 C6.67 5.66 6.34 6.32 6 7 C1.125 2.25 1.125 2.25 0 0 Z " fill="#657D96" transform="translate(25,95)"/>
<path d="M0 0 C0.99 0.33 1.98 0.66 3 1 C2.34 1 1.68 1 1 1 C1.185625 1.928125 1.37125 2.85625 1.5625 3.8125 C2 7 2 7 1 10 C0.01 9.67 -0.98 9.34 -2 9 C-1.67 8.01 -1.34 7.02 -1 6 C-0.64763503 4.00326516 -0.31165441 2.00349261 0 0 Z " fill="#486185" transform="translate(46,67)"/>
<path d="M0 0 C0.99 0.99 1.98 1.98 3 3 C2.01 3.495 2.01 3.495 1 4 C0.67 4.66 0.34 5.32 0 6 C-0.66 5.34 -1.32 4.68 -2 4 C-2 3.01 -2 2.02 -2 1 C-1.34 0.67 -0.68 0.34 0 0 Z " fill="#7982A3" transform="translate(33,67)"/>
<path d="M0 0 C1.32 0.33 2.64 0.66 4 1 C4 1.99 4 2.98 4 4 C3.34 4.66 2.68 5.32 2 6 C1.34 4.02 0.68 2.04 0 0 Z " fill="#3A4852" transform="translate(74,59)"/>
<path d="M0 0 C1.32 0 2.64 0 4 0 C4 0.66 4 1.32 4 2 C5.65 2 7.3 2 9 2 C6.74778616 3.36741555 5.47442242 4.04066478 2.8125 3.8125 C2.214375 3.544375 1.61625 3.27625 1 3 C0.67 2.01 0.34 1.02 0 0 Z " fill="#E0EAEB" transform="translate(65,52)"/>
<path d="M0 0 C2.64 0 5.28 0 8 0 C8.33 0.99 8.66 1.98 9 3 C7.68 3.33 6.36 3.66 5 4 C5 3.34 5 2.68 5 2 C3.35 1.67 1.7 1.34 0 1 C0 0.67 0 0.34 0 0 Z " fill="#5E5343" transform="translate(29,36)"/>
<path d="M0 0 C2 1.1875 2 1.1875 4 3 C4.25 5.6875 4.25 5.6875 4 8 C3.34 8 2.68 8 2 8 C0.23537317 4.91190305 0 3.76687864 0 0 Z " fill="#0B2439" transform="translate(10,30)"/>
<path d="M0 0 C1.32 0 2.64 0 4 0 C3.67 1.65 3.34 3.3 3 5 C2.01 4.67 1.02 4.34 0 4 C0 2.68 0 1.36 0 0 Z " fill="#9C9D9D" transform="translate(77,28)"/>
<path d="M0 0 C1.9375 0.8125 1.9375 0.8125 4 2 C4.33 2.99 4.66 3.98 5 5 C2.03 4.505 2.03 4.505 -1 4 C-0.67 2.68 -0.34 1.36 0 0 Z " fill="#E3AF24" transform="translate(33,23)"/>
<path d="M0 0 C0.66 0.33 1.32 0.66 2 1 C0.36587557 2.70840281 -0.86906094 3.93453047 -3 5 C-3.99 4.34 -4.98 3.68 -6 3 C-4.03533587 1.93224776 -2.03144641 0.93446535 0 0 Z " fill="#FAFBFB" transform="translate(57,7)"/>
<path d="" fill="#FFFFFF" transform="translate(0,0)"/>
</svg>
