<?xml version="1.0" encoding="UTF-8"?>
<svg version="1.1" xmlns="http://www.w3.org/2000/svg" width="400" height="131">
<path d="M0 0 C132 0 264 0 400 0 C400 43.23 400 86.46 400 131 C268 131 136 131 0 131 C0 87.77 0 44.54 0 0 Z " fill="#FDFDFD" transform="translate(0,0)"/>
<path d="M0 0 C132 0 264 0 400 0 C400 0.99 400 1.98 400 3 C394.06 3 388.12 3 382 3 C383.11375 5.041875 384.2275 7.08375 385.375 9.1875 C391.21763167 20.5614047 393.33551703 35.14525739 390.359375 47.703125 C389.85036722 49.17026506 389.30893189 50.6268109 388.7265625 52.06640625 C387.81551025 54.27974413 387.81551025 54.27974413 387.4375 57.9375 C387 61 387 61 385 63 C384.01 63 383.02 63 382 63 C381.49964055 57.62113587 381.49964055 57.62113587 383.8125 54.75 C388.85941697 48.40530438 389.37941961 40.84133859 389 33 C388.78085937 33.53367188 388.56171875 34.06734375 388.3359375 34.6171875 C386.44493383 39.06027742 384.36664881 43.35178728 382 47.5625 C381.525625 48.40941406 381.05125 49.25632813 380.5625 50.12890625 C379.7890625 51.05509766 379.7890625 51.05509766 379 52 C377.68 52 376.36 52 375 52 C375 50.35 375 48.7 375 47 C376.98 46.67 378.96 46.34 381 46 C381.268125 45.175 381.53625 44.35 381.8125 43.5 C382.41804659 41.71523109 383.0322034 39.9278958 383.80078125 38.20703125 C387.58141836 29.51694121 386.34407519 20.93678667 384 12 C383.62875 13.7325 383.62875 13.7325 383.25 15.5 C381.48503559 22.3664369 379.08131411 27.17418099 373.8125 32 C369.58723057 35.95241993 369.28767814 38.34232998 369 44 C367.4375 46 367.4375 46 366 47 C365.01 46.67 364.02 46.34 363 46 C363 44.02 363 42.04 363 40 C364.98 39.01 364.98 39.01 367 38 C367 37.01 367 36.02 367 35 C365.68 34.67 364.36 34.34 363 34 C362.67 35.32 362.34 36.64 362 38 C360.68 38.33 359.36 38.66 358 39 C358.93068875 34.2136007 358.93068875 34.2136007 359.62109375 32.0859375 C360.08707352 29.5206468 359.59135215 28.27758195 358.625 25.875 C356.8319185 20.95426036 356.31504672 16.20370278 356 11 C355.34 11 354.68 11 354 11 C350.87159568 41.37839647 350.87159568 41.37839647 358.63671875 70.23046875 C360 73 360 73 360 75 C360.58265625 75.14050781 361.1653125 75.28101562 361.765625 75.42578125 C369.72573589 77.47147408 376.04293648 80.8080423 381.7109375 86.8125 C385.88159654 93.88998201 382.70523344 105.40257603 381 113 C374.10122546 112.0373803 368.82056035 110.23918796 364 105 C358.83309844 97.43417986 356.70902491 90.38686072 357.1875 81.1875 C357.4130124 74.04406322 355.99867816 68.94089327 352 63 C351.62875 64.155 351.2575 65.31 350.875 66.5 C347.65716636 74.87823043 343.32348469 79.43281917 335.171875 83.1875 C333 84 333 84 331 84 C330.65551901 73.76125958 330.91298731 64.0482397 338 56 C346.45057034 49 346.45057034 49 350 49 C349.98952637 48.37134033 349.97905273 47.74268066 349.96826172 47.0949707 C349.80044916 35.48297899 349.82055213 24.42962354 352 13 C352.38357674 10.0030433 352.69429051 7.00614336 353 4 C352.61328125 4.61488281 352.2265625 5.22976562 351.828125 5.86328125 C351.30734375 6.67152344 350.7865625 7.47976562 350.25 8.3125 C349.73953125 9.11300781 349.2290625 9.91351563 348.703125 10.73828125 C346.95426724 13.06073226 345.5008152 14.52528264 343 16 C341.68 16 340.36 16 339 16 C339.33 16.66 339.66 17.32 340 18 C340.44837758 23.26843658 340.44837758 23.26843658 338.8125 25.9375 C337 27 337 27 334.3125 26.6875 C333.549375 26.460625 332.78625 26.23375 332 26 C331.3125 22.75 331.3125 22.75 331 19 C331.69609375 18.08734375 331.69609375 18.08734375 332.40625 17.15625 C334.45197555 14.38850366 334.70884616 12.13739644 335.1875 8.75 C335.34605469 7.67234375 335.50460937 6.5946875 335.66796875 5.484375 C335.83232422 4.25460937 335.83232422 4.25460937 336 3 C334.1128125 3.185625 334.1128125 3.185625 332.1875 3.375 C331.47980469 3.44460938 330.77210938 3.51421875 330.04296875 3.5859375 C327.70011858 3.92665391 327.70011858 3.92665391 325 6 C324.01 6 323.02 6 322 6 C313.69947126 9.94369012 309.40499798 18.38007277 305 26 C304.45730469 26.9178125 303.91460937 27.835625 303.35546875 28.78125 C300.56612803 33.86154779 299.42918772 38.06160525 299.3359375 43.87109375 C298.91579213 46.53364291 298.13388339 47.39958746 296 49 C293.375 49.25 293.375 49.25 291 49 C290 48 290 48 289.6875 45.1875 C290 42 290 42 291.8125 39.6875 C294 38 294 38 297 37 C298.15012093 35.29839689 298.15012093 35.29839689 299.04296875 33.18359375 C299.39423828 32.41982422 299.74550781 31.65605469 300.10742188 30.86914062 C300.46384766 30.06669922 300.82027344 29.26425781 301.1875 28.4375 C301.55552734 27.63119141 301.92355469 26.82488281 302.30273438 25.99414062 C303.21124489 24.00013702 304.10980336 22.00223042 305 20 C300.69368774 22.4258621 296.91596145 25.30550433 293.0625 28.375 C292.46759766 28.84421875 291.87269531 29.3134375 291.25976562 29.796875 C288.365409 32.08705445 285.52433807 34.41118305 282.73828125 36.83203125 C280 39 280 39 277.125 39.3125 C276.42375 39.209375 275.7225 39.10625 275 39 C275.33 37.35 275.66 35.7 276 34 C277.02738281 33.92394531 278.05476563 33.84789062 279.11328125 33.76953125 C283.53475343 32.8941242 285.67537904 31.46357491 289.1875 28.6875 C290.19167969 27.90761719 291.19585937 27.12773437 292.23046875 26.32421875 C297.43522976 22.31982636 297.43522976 22.31982636 299.5 16.4375 C300 13 300 13 301.6875 11.1875 C304 10 304 10 307 9.125 C310.61349097 7.76994089 311.73125335 6.041294 314 3 C302.62559121 2.62633348 295.41689973 4.61821106 286.01171875 11.06640625 C283 13 283 13 280 13 C279.875 5.25 279.875 5.25 281 3 C267.33989646 3.32797367 260.05320391 5.04487613 250 15 C248.21618058 18.56763884 248.33611478 22.92654672 248.01367188 26.8828125 C247.49122316 31.85763392 246.30033618 35.06069998 243 39 C240.8515625 40.390625 240.8515625 40.390625 238.625 41.25 C237.83738281 41.559375 237.04976562 41.86875 236.23828125 42.1875 C235.49964844 42.455625 234.76101562 42.72375 234 43 C232.948125 43.4125 231.89625 43.825 230.8125 44.25 C227.765663 45.06248987 225.13949586 45.1494998 222 45 C220.62415896 51.19128467 219.56546347 59.27146893 221.88671875 65.3046875 C222.90222429 67.16034393 222.90222429 67.16034393 225 68 C225 69.65 225 71.3 225 73 C220.125 72.125 220.125 72.125 219 71 C218.84313751 69.44051458 218.74923361 67.87457332 218.68359375 66.30859375 C218.62075195 64.89223633 218.62075195 64.89223633 218.55664062 63.44726562 C218.51732422 62.45404297 218.47800781 61.46082031 218.4375 60.4375 C218.39431641 59.44041016 218.35113281 58.44332031 218.30664062 57.41601562 C218.20019702 54.9441585 218.09818072 52.4721969 218 50 C213.2897763 59.72556812 213.05409418 68.43199117 215 79 C213.02 79.99 213.02 79.99 211 81 C209 79 209 79 208.8125 75.9375 C209 73 209 73 210 72 C210.24887295 69.89807303 210.4734719 67.79326036 210.6875 65.6875 C211.86335159 57.07921335 214.78291839 49.27536287 220.75 42.8125 C223.33128676 39.58589155 223.89370079 37.2487237 224.54296875 33.24609375 C225.96958601 26.23494056 229.3415957 23.78390668 235.046875 19.78125 C238.31461807 17.81023037 241.33194551 16.77709304 244.984375 15.78515625 C248.53414956 14.40239523 250.53872242 11.83993566 253 9 C252.11957031 8.89042969 251.23914063 8.78085938 250.33203125 8.66796875 C249.17058594 8.50941406 248.00914062 8.35085938 246.8125 8.1875 C245.08966797 7.96126953 245.08966797 7.96126953 243.33203125 7.73046875 C240 7 240 7 237.71891785 5.48554993 C234.34692692 3.64317691 231.99742429 3.57563705 228.1652832 3.50073242 C227.49786606 3.48423141 226.83044891 3.46773041 226.14280701 3.45072937 C223.94539593 3.4020137 221.74862204 3.37653732 219.55078125 3.35546875 C218.79556875 3.34573847 218.04035625 3.33600819 217.26225853 3.32598305 C213.26312277 3.27523789 209.26430458 3.24242759 205.26489258 3.22436523 C201.15595908 3.2023739 197.05060915 3.11999087 192.94285297 3.02324963 C189.76408969 2.95949774 186.58616816 2.94104492 183.4068203 2.934412 C181.89372659 2.92356406 180.38064881 2.89611628 178.86818886 2.85100365 C169.91125976 2.57818108 169.91125976 2.57818108 161.90063477 6.19290161 C159.40526961 8.68348323 157.20302796 11.25203189 155 14 C152.87982354 15.95761283 150.66075379 17.7402624 148.375 19.5 C147.79435791 19.95084961 147.21371582 20.40169922 146.61547852 20.86621094 C140.31259438 25.66474087 133.66654688 29.87286753 126.85058594 33.89941406 C125.21103259 34.87449408 123.59208506 35.88403961 121.9765625 36.8984375 C106.93140439 45.81259284 88.820066 50.57132632 71.52392578 52.28198242 C66.37496705 52.93904755 63.60123775 53.85855035 60.1171875 57.8203125 C59.05979533 59.19968199 58.01874454 60.59184591 57 62 C43.39255482 77.7189453 27.32313251 91.054785 9 101 C8.34 101 7.68 101 7 101 C5.99841931 104.3789982 5.80421884 107.56276528 5.68359375 111.078125 C5.64169922 112.23828125 5.59980469 113.3984375 5.55664062 114.59375 C5.51732422 115.8003125 5.47800781 117.006875 5.4375 118.25 C5.37272461 120.08304688 5.37272461 120.08304688 5.30664062 121.953125 C5.20062645 124.9686392 5.09856064 127.98423448 5 131 C3.35 131 1.7 131 0 131 C0 87.77 0 44.54 0 0 Z " fill="#C1C9C6" transform="translate(0,0)"/>
<path d="M0 0 C29.7 0 59.4 0 90 0 C83.29305424 13.41389152 76.12846348 26.20976377 67.24124146 38.26727295 C66.32125421 39.55154103 65.45735815 40.87638713 64.6257019 42.21954346 C62.33109765 45.64497419 60.46076273 48.41629539 56.55012512 49.97894287 C53.67027608 50.50026874 50.87067008 50.76360531 47.94921875 50.9375 C46.89523392 51.03337402 45.84124908 51.12924805 44.75532532 51.22802734 C41.40133949 51.52427787 38.04614503 51.76307813 34.6875 52 C32.44303732 52.18759204 30.19888707 52.37896273 27.95507812 52.57421875 C22.97752173 53.00133352 17.99864866 53.39230139 13.01567078 53.75048828 C8.67200961 54.10987578 4.33687296 54.5663127 0 55 C0 36.85 0 18.7 0 0 Z " fill="#FDFEFE" transform="translate(5,3)"/>
<path d="M0 0 C1.1033862 0.00414807 1.1033862 0.00414807 2.22906303 0.00837994 C3.49531013 0.00219395 3.49531013 0.00219395 4.78713799 -0.00411701 C5.71502129 0.00666882 6.64290459 0.01745464 7.59890556 0.02856731 C8.57455467 0.02812923 9.55020378 0.02769115 10.55541801 0.0272398 C13.79130645 0.02933554 17.02668148 0.05270378 20.26247978 0.07617474 C22.50164316 0.08176789 24.7408102 0.08603931 26.97997856 0.0890379 C32.88198746 0.10050871 38.78377593 0.12999521 44.68569756 0.16314983 C50.70475087 0.19380251 56.72383971 0.20753295 62.74294853 0.22265911 C74.55945179 0.2548627 86.37579123 0.30608608 98.19216728 0.36914349 C98.19216728 1.35914349 98.19216728 2.34914349 98.19216728 3.36914349 C92.25216728 3.36914349 86.31216728 3.36914349 80.19216728 3.36914349 C81.30591728 5.41101849 82.41966728 7.45289349 83.56716728 9.55664349 C89.40979895 20.93054818 91.52768432 35.51440088 88.55154228 48.07226849 C88.04253451 49.53940855 87.50109917 50.99595438 86.91872978 52.43554974 C86.00767754 54.64888761 86.00767754 54.64888761 85.62966728 58.30664349 C85.19216728 61.36914349 85.19216728 61.36914349 83.19216728 63.36914349 C82.20216728 63.36914349 81.21216728 63.36914349 80.19216728 63.36914349 C79.69180783 57.99027936 79.69180783 57.99027936 82.00466728 55.11914349 C87.05158425 48.77444787 87.57158689 41.21048208 87.19216728 33.36914349 C86.97302666 33.90281536 86.75388603 34.43648724 86.52810478 34.98633099 C84.63710111 39.42942091 82.55881609 43.72093076 80.19216728 47.93164349 C79.71779228 48.77855755 79.24341728 49.62547161 78.75466728 50.49804974 C77.98122978 51.42424114 77.98122978 51.42424114 77.19216728 52.36914349 C75.87216728 52.36914349 74.55216728 52.36914349 73.19216728 52.36914349 C73.19216728 50.71914349 73.19216728 49.06914349 73.19216728 47.36914349 C75.17216728 47.03914349 77.15216728 46.70914349 79.19216728 46.36914349 C79.46029228 45.54414349 79.72841728 44.71914349 80.00466728 43.86914349 C80.61021388 42.08437458 81.22437068 40.29703929 81.99294853 38.57617474 C85.77358564 29.8860847 84.53624247 21.30593015 82.19216728 12.36914349 C81.82091728 14.10164349 81.82091728 14.10164349 81.44216728 15.86914349 C79.67720287 22.73558038 77.27348139 27.54332448 72.00466728 32.36914349 C67.77939785 36.32156341 67.47984542 38.71147346 67.19216728 44.36914349 C65.62966728 46.36914349 65.62966728 46.36914349 64.19216728 47.36914349 C62.70716728 46.87414349 62.70716728 46.87414349 61.19216728 46.36914349 C61.19216728 44.38914349 61.19216728 42.40914349 61.19216728 40.36914349 C62.51216728 39.70914349 63.83216728 39.04914349 65.19216728 38.36914349 C65.19216728 37.37914349 65.19216728 36.38914349 65.19216728 35.36914349 C63.21216728 34.87414349 63.21216728 34.87414349 61.19216728 34.36914349 C60.86216728 35.68914349 60.53216728 37.00914349 60.19216728 38.36914349 C58.87216728 38.69914349 57.55216728 39.02914349 56.19216728 39.36914349 C57.12285604 34.58274418 57.12285604 34.58274418 57.81326103 32.45508099 C58.2792408 29.88979028 57.78351943 28.64672543 56.81716728 26.24414349 C55.02408578 21.32340385 54.50721401 16.57284627 54.19216728 11.36914349 C53.53216728 11.36914349 52.87216728 11.36914349 52.19216728 11.36914349 C49.06376296 41.74753996 49.06376296 41.74753996 56.82888603 70.59961224 C58.19216728 73.36914349 58.19216728 73.36914349 58.19216728 75.36914349 C58.77482353 75.5096513 59.35747978 75.65015911 59.95779228 75.79492474 C67.91790317 77.84061757 74.23510376 81.17718579 79.90310478 87.18164349 C84.07376382 94.25912549 80.89740072 105.77171952 79.19216728 113.36914349 C72.29339274 112.40652378 67.01272763 110.60833145 62.19216728 105.36914349 C57.02526573 97.80332335 54.90119219 90.75600421 55.37966728 81.55664349 C55.60517968 74.41320671 54.19084544 69.31003676 50.19216728 63.36914349 C49.63529228 65.10164349 49.63529228 65.10164349 49.06716728 66.86914349 C45.84933365 75.24737392 41.51565197 79.80196266 33.36404228 83.55664349 C31.19216728 84.36914349 31.19216728 84.36914349 29.19216728 84.36914349 C28.8476863 74.13040306 29.10515459 64.41738319 36.19216728 56.36914349 C44.64273762 49.36914349 44.64273762 49.36914349 48.19216728 49.36914349 C48.18169365 48.74048382 48.17122002 48.11182415 48.160429 47.46411419 C47.99261644 35.85212247 48.01271942 24.79876703 50.19216728 13.36914349 C50.57574402 10.37218679 50.88645779 7.37528685 51.19216728 4.36914349 C50.80544853 4.9840263 50.41872978 5.59890911 50.02029228 6.23242474 C49.49951103 7.04066692 48.97872978 7.84890911 48.44216728 8.68164349 C47.67646416 9.8824052 47.67646416 9.8824052 46.89529228 11.10742474 C45.14643453 13.42987575 43.69298248 14.89442613 41.19216728 16.36914349 C39.87216728 16.36914349 38.55216728 16.36914349 37.19216728 16.36914349 C37.68716728 17.35914349 37.68716728 17.35914349 38.19216728 18.36914349 C38.64054486 23.63758006 38.64054486 23.63758006 37.00466728 26.30664349 C35.19216728 27.36914349 35.19216728 27.36914349 32.50466728 27.05664349 C31.74154228 26.82976849 30.97841728 26.60289349 30.19216728 26.36914349 C29.50466728 23.11914349 29.50466728 23.11914349 29.19216728 19.36914349 C29.65622978 18.76070599 30.12029228 18.15226849 30.59841728 17.52539349 C32.64414283 14.75764715 32.90101344 12.50653992 33.37966728 9.11914349 C33.61749931 7.50265911 33.61749931 7.50265911 33.86013603 5.85351849 C33.96970634 5.03367474 34.07927666 4.21383099 34.19216728 3.36914349 C32.93404228 3.49289349 31.67591728 3.61664349 30.37966728 3.74414349 C29.67197197 3.81375286 28.96427666 3.88336224 28.23513603 3.95508099 C25.89228586 4.2957974 25.89228586 4.2957974 23.19216728 6.36914349 C22.20216728 6.36914349 21.21216728 6.36914349 20.19216728 6.36914349 C11.89163855 10.31283361 7.59716526 18.74921625 3.19216728 26.36914349 C2.64947197 27.28695599 2.10677666 28.20476849 1.54763603 29.15039349 C-1.24170469 34.23069128 -2.378645 38.43074873 -2.47189522 44.24023724 C-2.89204059 46.90278639 -3.67394933 47.76873094 -5.80783272 49.36914349 C-8.43283272 49.61914349 -8.43283272 49.61914349 -10.80783272 49.36914349 C-11.80783272 48.36914349 -11.80783272 48.36914349 -12.12033272 45.55664349 C-11.80783272 42.36914349 -11.80783272 42.36914349 -9.99533272 40.05664349 C-7.80783272 38.36914349 -7.80783272 38.36914349 -4.80783272 37.36914349 C-3.65771179 35.66754038 -3.65771179 35.66754038 -2.76486397 33.55273724 C-2.41359444 32.7889677 -2.06232491 32.02519817 -1.70041084 31.23828411 C-1.34398506 30.4358427 -0.98755928 29.6334013 -0.62033272 28.80664349 C-0.0682917 27.5971806 -0.0682917 27.5971806 0.49490166 26.36328411 C1.40341217 24.36928051 2.30197064 22.3713739 3.19216728 20.36914349 C-1.11414498 22.79500559 -4.89187127 25.67464782 -8.74533272 28.74414349 C-9.63768623 29.44797161 -9.63768623 29.44797161 -10.54806709 30.16601849 C-13.44242372 32.45619794 -16.28349465 34.78032654 -19.06955147 37.20117474 C-21.80783272 39.36914349 -21.80783272 39.36914349 -24.68283272 39.68164349 C-25.38408272 39.57851849 -26.08533272 39.47539349 -26.80783272 39.36914349 C-26.47783272 37.71914349 -26.14783272 36.06914349 -25.80783272 34.36914349 C-24.78044991 34.2930888 -23.75306709 34.21703411 -22.69455147 34.13867474 C-18.27307929 33.26326768 -16.13245368 31.8327184 -12.62033272 29.05664349 C-11.61615303 28.27676067 -10.61197334 27.49687786 -9.57736397 26.69336224 C-4.37260296 22.68896984 -4.37260296 22.68896984 -2.30783272 16.80664349 C-1.80783272 13.36914349 -1.80783272 13.36914349 -0.12033272 11.55664349 C2.19216728 10.36914349 2.19216728 10.36914349 5.19216728 9.49414349 C8.85781866 8.41141311 8.85781866 8.41141311 12.19216728 3.36914349 C6.91216728 3.36914349 1.63216728 3.36914349 -3.80783272 3.36914349 C-1.80783272 0.36914349 -1.80783272 0.36914349 0 0 Z " fill="#C6D0CC" transform="translate(301.8078327178955,-0.3691434860229492)"/>
<path d="M0 0 C21.78 0 43.56 0 66 0 C57.32255147 10.12368995 48.0866074 17.75004671 37 25 C36.10317505 25.59675537 36.10317505 25.59675537 35.18823242 26.20556641 C22.27200942 34.58815112 7.36045608 39.94187582 -7.375 44.125 C-8.40165771 44.42003418 -9.42831543 44.71506836 -10.48608398 45.01904297 C-16.5091414 46.64133878 -21.76546328 47.2968827 -28 47 C-26.75254664 43.52752165 -25.37894557 40.995342 -23 38.1875 C-19.75610527 34.1158064 -16.89497123 29.90003437 -14.125 25.5 C-13.75117187 24.91500732 -13.37734375 24.33001465 -12.9921875 23.72729492 C-8.20820412 16.03803831 -4.25941697 8.04556539 0 0 Z " fill="#FDFDFD" transform="translate(96,3)"/>
<path d="M0 0 C-1.5024543 3.5432211 -3.56252265 5.77071524 -6.3125 8.4375 C-7.07175781 9.17871094 -7.83101562 9.91992188 -8.61328125 10.68359375 C-9.40089844 11.44800781 -10.18851563 12.21242188 -11 13 C-11.81339844 13.8146875 -12.62679687 14.629375 -13.46484375 15.46875 C-20.79018423 22.78280336 -28.23269376 29.39938761 -36.6875 35.375 C-37.37553711 35.86234619 -38.06357422 36.34969238 -38.77246094 36.85180664 C-51.9755207 46 -51.9755207 46 -56 46 C-56 33.13 -56 20.26 -56 7 C-52.7 6.34 -49.4 5.68 -46 5 C-44.44667969 4.66226563 -42.89335938 4.32453125 -41.29296875 3.9765625 C-34.6884468 2.65746509 -28.00847982 2.04221507 -21.3125 1.375 C-20.03310547 1.2409375 -18.75371094 1.106875 -17.43554688 0.96875 C-11.58803501 0.37336697 -5.88346205 -0.06989145 0 0 Z " fill="#FCFCFC" transform="translate(61,54)"/>
<path d="M0 0 C0.33 0 0.66 0 1 0 C1.02578125 1.11375 1.0515625 2.2275 1.078125 3.375 C1.51959951 16.67056949 3.22136316 29.35640814 9.265625 41.3984375 C10 43 10 43 10 45 C10.58265625 45.14050781 11.1653125 45.28101563 11.765625 45.42578125 C19.72573589 47.47147408 26.04293648 50.8080423 31.7109375 56.8125 C35.88159654 63.88998201 32.70523344 75.40257603 31 83 C24.10122546 82.0373803 18.82056035 80.23918796 14 75 C8.83309844 67.43417986 6.70902491 60.38686072 7.1875 51.1875 C7.4130124 44.04406322 5.99867816 38.94089327 2 33 C1.62875 34.155 1.2575 35.31 0.875 36.5 C-2.34283364 44.87823043 -6.67651531 49.43281917 -14.828125 53.1875 C-17 54 -17 54 -19 54 C-19.34448099 43.76125958 -19.08701269 34.0482397 -12 26 C-3.54942966 19 -3.54942966 19 0 19 C0 12.73 0 6.46 0 0 Z " fill="#A3ABA5" transform="translate(350,30)"/>
<path d="M0 0 C22.39875 -0.0928125 22.39875 -0.0928125 45.25 -0.1875 C49.96442383 -0.21481201 54.67884766 -0.24212402 59.53613281 -0.27026367 C65.29443359 -0.28381348 65.29443359 -0.28381348 67.99041748 -0.28633118 C69.87276333 -0.29093698 71.75510035 -0.3014863 73.63739014 -0.31672668 C76.48921072 -0.33866218 79.3404906 -0.34171885 82.19238281 -0.34057617 C83.44957563 -0.35676766 83.44957563 -0.35676766 84.73216629 -0.37328625 C89.59845055 -0.34715576 90.92752525 -0.05435606 95 3 C65.3 3 35.6 3 5 3 C5 21.15 5 39.3 5 58 C11.27 57.01 17.54 56.02 24 55 C39.48185118 53.68239564 39.48185118 53.68239564 46 55 C46 55.33 46 55.66 46 56 C45.41621582 56.0501123 44.83243164 56.10022461 44.23095703 56.15185547 C41.52843666 56.38715882 38.82675227 56.63104124 36.125 56.875 C35.2071875 56.95363281 34.289375 57.03226563 33.34375 57.11328125 C28.05732714 57.59724954 22.9481091 58.31283066 17.77294922 59.50439453 C13.55308145 60.2586058 9.26546326 60.57345367 5 61 C5 73.87 5 86.74 5 100 C16.46199499 93.56807481 16.46199499 93.56807481 27.125 86.1875 C27.78387207 85.68831055 28.44274414 85.18912109 29.12158203 84.67480469 C34.63880386 80.42914572 39.73432624 75.81484608 44.7421875 70.984375 C47 69 47 69 49 69 C49.23460937 68.43410156 49.46921875 67.86820312 49.7109375 67.28515625 C51.8036393 63.57536669 55.01317509 61.00975895 58.1015625 58.12109375 C60.33345759 56.1018657 60.33345759 56.1018657 60 53 C60.99 53.33 61.98 53.66 63 54 C60.88418585 58.64485833 57.66143962 61.88349995 54.1875 65.5625 C53.17925171 66.63105225 53.17925171 66.63105225 52.15063477 67.72119141 C39.81210416 80.61349515 24.98480604 92.87549115 9 101 C8.34 101 7.68 101 7 101 C5.99841931 104.3789982 5.80421884 107.56276528 5.68359375 111.078125 C5.64169922 112.23828125 5.59980469 113.3984375 5.55664062 114.59375 C5.51732422 115.8003125 5.47800781 117.006875 5.4375 118.25 C5.37272461 120.08304688 5.37272461 120.08304688 5.30664062 121.953125 C5.20062645 124.9686392 5.09856064 127.98423448 5 131 C3.35 131 1.7 131 0 131 C0 87.77 0 44.54 0 0 Z " fill="#BFC8C5" transform="translate(0,0)"/>
<path d="M0 0 C9.9 0 19.8 0 30 0 C30 0.66 30 1.32 30 2 C29.01 2.515625 28.02 3.03125 27 3.5625 C22.24803614 6.26821003 16.4937517 10.0124966 14 15 C13.62726472 18.2918799 13.28278473 21.58088842 13.01367188 24.8828125 C12.49122316 29.85763392 11.30033618 33.06069998 8 37 C5.8515625 38.390625 5.8515625 38.390625 3.625 39.25 C2.83738281 39.559375 2.04976562 39.86875 1.23828125 40.1875 C0.49964844 40.455625 -0.23898438 40.72375 -1 41 C-2.051875 41.4125 -3.10375 41.825 -4.1875 42.25 C-7.234337 43.06248987 -9.86050414 43.1494998 -13 43 C-14.37584104 49.19128467 -15.43453653 57.27146893 -13.11328125 63.3046875 C-12.09777571 65.16034393 -12.09777571 65.16034393 -10 66 C-10 67.65 -10 69.3 -10 71 C-14.875 70.125 -14.875 70.125 -16 69 C-16.15686249 67.44051458 -16.25076639 65.87457332 -16.31640625 64.30859375 C-16.37924805 62.89223633 -16.37924805 62.89223633 -16.44335938 61.44726562 C-16.48267578 60.45404297 -16.52199219 59.46082031 -16.5625 58.4375 C-16.60568359 57.44041016 -16.64886719 56.44332031 -16.69335938 55.41601562 C-16.79980298 52.9441585 -16.90181928 50.4721969 -17 48 C-21.7102237 57.72556812 -21.94590582 66.43199117 -20 77 C-21.98 77.99 -21.98 77.99 -24 79 C-26 77 -26 77 -26.1875 73.9375 C-26 71 -26 71 -25 70 C-24.75112705 67.89807303 -24.5265281 65.79326036 -24.3125 63.6875 C-23.13664841 55.07921335 -20.21708161 47.27536287 -14.25 40.8125 C-11.66871324 37.58589155 -11.10629921 35.2487237 -10.45703125 31.24609375 C-9.03041399 24.23494056 -5.6584043 21.78390668 0.046875 17.78125 C3.31461807 15.81023037 6.33194551 14.77709304 9.984375 13.78515625 C13.53414956 12.40239523 15.53872242 9.83993566 18 7 C16.67935547 6.83564453 16.67935547 6.83564453 15.33203125 6.66796875 C14.17058594 6.50941406 13.00914062 6.35085937 11.8125 6.1875 C10.08966797 5.96126953 10.08966797 5.96126953 8.33203125 5.73046875 C4.95710138 4.9905955 2.75777676 4.06184063 0 2 C0 1.34 0 0.68 0 0 Z " fill="#475C4A" transform="translate(235,2)"/>
<path d="M0 0 C0.33 0.66 0.66 1.32 1 2 C2.11375 2.1546875 2.11375 2.1546875 3.25 2.3125 C7.17845401 3.2946135 8.51911657 4.80096611 11 8 C13.18685661 13.22754568 14.44980604 18.30245677 14 24 C15.27450447 23.40361667 16.54446877 22.79752584 17.8125 22.1875 C18.52019531 21.85105469 19.22789062 21.51460937 19.95703125 21.16796875 C22.0923057 19.94722867 23.43239779 18.89125042 25 17 C25.40988049 15.07435138 25.40988049 15.07435138 25.29296875 12.98828125 C25.28330078 12.23095703 25.27363281 11.47363281 25.26367188 10.69335938 C25.23853516 9.90767578 25.21339844 9.12199219 25.1875 8.3125 C25.17396484 7.51521484 25.16042969 6.71792969 25.14648438 5.89648438 C25.11117089 3.93070033 25.05736447 1.96526418 25 0 C35.41096202 12.58175835 37.2322033 26.98135704 36 43 C35.41361359 45.4742646 34.67859901 47.71300758 33.7265625 50.06640625 C32.81551025 52.27974413 32.81551025 52.27974413 32.4375 55.9375 C32 59 32 59 30 61 C29.01 61 28.02 61 27 61 C26.49964055 55.62113587 26.49964055 55.62113587 28.8125 52.75 C33.85941697 46.40530438 34.37941961 38.84133859 34 31 C33.67128906 31.80050781 33.67128906 31.80050781 33.3359375 32.6171875 C31.44493383 37.06027742 29.36664881 41.35178728 27 45.5625 C26.2884375 46.83287109 26.2884375 46.83287109 25.5625 48.12890625 C24.7890625 49.05509766 24.7890625 49.05509766 24 50 C22.68 50 21.36 50 20 50 C20 48.35 20 46.7 20 45 C22.97 44.505 22.97 44.505 26 44 C26.268125 43.175 26.53625 42.35 26.8125 41.5 C27.41804659 39.71523109 28.0322034 37.9278958 28.80078125 36.20703125 C32.58141836 27.51694121 31.34407519 18.93678667 29 10 C28.7525 11.155 28.505 12.31 28.25 13.5 C26.48503559 20.3664369 24.08131411 25.17418099 18.8125 30 C14.58723057 33.95241993 14.28767814 36.34232998 14 42 C12.4375 44 12.4375 44 11 45 C10.01 44.67 9.02 44.34 8 44 C8 42.02 8 40.04 8 38 C9.32 37.34 10.64 36.68 12 36 C12 35.01 12 34.02 12 33 C10.68 32.67 9.36 32.34 8 32 C7.67 33.32 7.34 34.64 7 36 C5.02 36.495 5.02 36.495 3 37 C3.93068875 32.2136007 3.93068875 32.2136007 4.62109375 30.0859375 C5.08707352 27.5206468 4.59135215 26.27758195 3.625 23.875 C1.8319185 18.95426036 1.31504672 14.20370278 1 9 C0.34 9 -0.32 9 -1 9 C-1.66 21.21 -2.32 33.42 -3 46 C-3.33 46 -3.66 46 -4 46 C-5.10644302 29.75977801 -4.72086206 15.70473446 0 0 Z " fill="#A8AFA9" transform="translate(355,2)"/>
<path d="M0 0 C0.49242187 0.53625 0.98484375 1.0725 1.4921875 1.625 C3.1150379 3.39737961 3.1150379 3.39737961 6.6875 3.1875 C7.780625 3.125625 8.87375 3.06375 10 3 C7.52637184 4.64908544 5.52562869 5.65514453 2.8125 6.75 C-4.30404238 9.8760156 -4.30404238 9.8760156 -10 15 C-11.08689234 18.29386457 -11.73335157 21.44851196 -12.234375 24.87890625 C-13.16186748 28.65985772 -14.09026026 30.39802119 -17 33 C-19.89780617 33.68953821 -22.32443858 34.09799329 -25.25 34.3125 C-25.99507812 34.38533203 -26.74015625 34.45816406 -27.5078125 34.53320312 C-29.33670704 34.70905837 -31.16822091 34.85729163 -33 35 C-33.11282181 29.69737492 -32.94477316 26.51531884 -30 22 C-24.49496523 16.73963344 -19.12783009 14.18742136 -11.8359375 12.5390625 C-9.45811685 11.84089388 -7.81559047 10.66429127 -6 9 C-6.59167969 8.90203125 -7.18335938 8.8040625 -7.79296875 8.703125 C-12.88564853 7.73942051 -16.17978449 6.70785623 -20 3 C-20.8971875 2.2265625 -20.8971875 2.2265625 -21.8125 1.4375 C-23 0 -23 0 -23 -3 C-14.78912478 -5.18956673 -7.08718232 -4.89392035 0 0 Z " fill="#A3ABA5" transform="translate(184,27)"/>
<path d="M0 0 C2.29634463 4.08239045 2.49015885 7.40004775 2 12 C1 14.5 1 14.5 0 16 C-3 14 -3 14 -3.6875 11.875 C-3.790625 11.25625 -3.89375 10.6375 -4 10 C-11.57045083 25.28876935 -11.57045083 25.28876935 -13 42 C-11.66881935 45.57831151 -11.66881935 45.57831151 -10 49 C-7.9695203 54.4822952 -7.22308882 59.37486697 -9 65 C-11.50195706 67.9901438 -13.219504 69.75705979 -17.17578125 70.296875 C-19.375 70.3125 -19.375 70.3125 -23 70 C-23.33 69.01 -23.66 68.02 -24 67 C-24.66 67 -25.32 67 -26 67 C-26.64452284 61.07038985 -25.04824643 57.62999903 -22.23828125 52.4375 C-21.1380558 50.27175652 -20.41257613 48.34176052 -19.8125 46 C-19 43 -19 43 -17 41 C-16.54299276 38.99211659 -16.1597248 36.96725031 -15.8125 34.9375 C-13.19656634 22.1470304 -8.25074627 10.20685025 0 0 Z " fill="#F97B7A" transform="translate(324,6)"/>
<path d="M0 0 C0.66 0.33 1.32 0.66 2 1 C-0.31 3.31 -2.62 5.62 -5 8 C-4.19175781 7.50628906 -3.38351562 7.01257813 -2.55078125 6.50390625 C-1.48214844 5.86324219 -0.41351563 5.22257813 0.6875 4.5625 C2.27111328 3.60537109 2.27111328 3.60537109 3.88671875 2.62890625 C6.71009314 1.15168276 8.86866977 0.41247578 12 0 C11.34 1.32 10.68 2.64 10 4 C9.34 3.67 8.68 3.34 8 3 C-1.34635342 8.19025054 -5.8982688 14.96302038 -11 24 C-11.54011719 24.91652344 -12.08023437 25.83304688 -12.63671875 26.77734375 C-15.43673013 31.85587443 -16.5707723 36.05911423 -16.6640625 41.87109375 C-17.08420787 44.53364291 -17.86611661 45.39958746 -20 47 C-22.625 47.25 -22.625 47.25 -25 47 C-26 46 -26 46 -26.3125 43.1875 C-26 40 -26 40 -24.1875 37.6875 C-22 36 -22 36 -19 35 C-17.84987907 33.29839689 -17.84987907 33.29839689 -16.95703125 31.18359375 C-16.60576172 30.41982422 -16.25449219 29.65605469 -15.89257812 28.86914062 C-15.53615234 28.06669922 -15.17972656 27.26425781 -14.8125 26.4375 C-14.26045898 25.22803711 -14.26045898 25.22803711 -13.69726562 23.99414062 C-12.78875511 22.00013702 -11.89019664 20.00223042 -11 18 C-15.30631226 20.4258621 -19.08403855 23.30550433 -22.9375 26.375 C-23.82985352 27.07882813 -23.82985352 27.07882813 -24.74023438 27.796875 C-27.634591 30.08705445 -30.47566193 32.41118305 -33.26171875 34.83203125 C-36 37 -36 37 -38.875 37.3125 C-39.57625 37.209375 -40.2775 37.10625 -41 37 C-40.67 35.35 -40.34 33.7 -40 32 C-38.97261719 31.92394531 -37.94523437 31.84789063 -36.88671875 31.76953125 C-32.46524657 30.8941242 -30.32462096 29.46357491 -26.8125 26.6875 C-25.80832031 25.90761719 -24.80414063 25.12773437 -23.76953125 24.32421875 C-18.56477024 20.31982636 -18.56477024 20.31982636 -16.5 14.4375 C-16 11 -16 11 -14.3125 9.1875 C-12 8 -12 8 -9.125 7.1875 C-4.93816663 5.59650332 -3.00496661 3.2911539 0 0 Z " fill="#6C6B56" transform="translate(316,2)"/>
<path d="M0 0 C4.26560884 1.41418383 7.0059986 3.48251131 10.3125 6.5 C11.19550781 7.2940625 12.07851562 8.088125 12.98828125 8.90625 C15 11 15 11 15 13 C17.31 13 19.62 13 22 13 C21.34 13.33 20.68 13.66 20 14 C19.65846063 15.66500443 19.32550502 17.33178677 19 19 C18.34 19.66 17.68 20.32 17 21 C17 19.35 17 17.7 17 16 C15.02 16 13.04 16 11 16 C10.731875 16.928125 10.46375 17.85625 10.1875 18.8125 C8.31884452 23.82836472 5.58761005 25.53981059 0.91796875 28.1484375 C-2.04378239 29.46343088 -4.78187141 29.73729562 -8 30 C-8 26.8125 -8 26.8125 -7 23 C-4.5576255 20.87969687 -1.88969021 19.43007164 1 18 C1.66 17.67 2.32 17.34 3 17 C-2.28 17.33 -7.56 17.66 -13 18 C-10.22002359 15.22002359 -7.30390772 15.34226189 -3.5625 14.9375 C1.79073328 14.34236308 1.79073328 14.34236308 7 13 C6.21625 12.731875 5.4325 12.46375 4.625 12.1875 C2 11 2 11 0 8 C-0.25760279 5.30547479 -0.08900053 2.71451625 0 0 Z " fill="#A9AFAB" transform="translate(207,12)"/>
<path d="M0 0 C3.29159316 -0.05790353 6.58305603 -0.09356261 9.875 -0.125 C10.81214844 -0.14175781 11.74929688 -0.15851563 12.71484375 -0.17578125 C13.61074219 -0.18222656 14.50664062 -0.18867187 15.4296875 -0.1953125 C16.25710449 -0.20578613 17.08452148 -0.21625977 17.93701172 -0.22705078 C20 0 20 0 22 2 C22.77399321 7.342608 23.5700387 13.49058421 20.609375 18.22265625 C17.25260249 21.19267018 14.42628413 22.28904245 10 23 C9.81824219 22.11957031 9.63648438 21.23914063 9.44921875 20.33203125 C9.19785156 19.17058594 8.94648438 18.00914063 8.6875 16.8125 C8.32205078 15.08966797 8.32205078 15.08966797 7.94921875 13.33203125 C6.43596612 8.0200786 4.40830878 5.1922236 0 2 C0 1.34 0 0.68 0 0 Z " fill="#F8F9F8" transform="translate(359,3)"/>
<path d="M0 0 C0.49242187 0.53625 0.98484375 1.0725 1.4921875 1.625 C3.1150379 3.39737961 3.1150379 3.39737961 6.6875 3.1875 C7.780625 3.125625 8.87375 3.06375 10 3 C7.52637184 4.64908544 5.52562869 5.65514453 2.8125 6.75 C-3.32115853 9.43598119 -9.27259894 12.6406327 -12 19 C-12 17.68 -12 16.36 -12 15 C-15.3 15.66 -18.6 16.32 -22 17 C-21.67 16.34 -21.34 15.68 -21 15 C-18.28224444 14.14199783 -15.53636584 13.52718828 -12.76171875 12.87890625 C-9.95695151 11.98629999 -8.22359772 10.89613202 -6 9 C-6.59167969 8.90203125 -7.18335938 8.8040625 -7.79296875 8.703125 C-12.88564853 7.73942051 -16.17978449 6.70785623 -20 3 C-20.598125 2.484375 -21.19625 1.96875 -21.8125 1.4375 C-23 0 -23 0 -23 -3 C-14.78912478 -5.18956673 -7.08718232 -4.89392035 0 0 Z " fill="#A7AFA8" transform="translate(184,27)"/>
<path d="M0 0 C10.41096202 12.58175835 12.2322033 26.98135704 11 43 C10.41361359 45.4742646 9.67859901 47.71300758 8.7265625 50.06640625 C7.81551025 52.27974413 7.81551025 52.27974413 7.4375 55.9375 C7 59 7 59 5 61 C4.01 61 3.02 61 2 61 C1.49964055 55.62113587 1.49964055 55.62113587 3.8125 52.75 C8.85941697 46.40530438 9.37941961 38.84133859 9 31 C8.78085937 31.53367187 8.56171875 32.06734375 8.3359375 32.6171875 C6.44493383 37.06027742 4.36664881 41.35178728 2 45.5625 C1.525625 46.40941406 1.05125 47.25632813 0.5625 48.12890625 C-0.2109375 49.05509766 -0.2109375 49.05509766 -1 50 C-2.32 50 -3.64 50 -5 50 C-5 48.35 -5 46.7 -5 45 C-2.03 44.505 -2.03 44.505 1 44 C1.268125 43.175 1.53625 42.35 1.8125 41.5 C2.41804659 39.71523109 3.0322034 37.9278958 3.80078125 36.20703125 C7.58141836 27.51694121 6.34407519 18.93678667 4 10 C3.7525 11.155 3.505 12.31 3.25 13.5 C1.25809437 21.32929572 -2.03977076 26.58160978 -8 32 C-8.66 31.67 -9.32 31.34 -10 31 C-6.535 27.535 -6.535 27.535 -3 24 C-4.32 24.33 -5.64 24.66 -7 25 C-8.33333333 25.33333333 -9.66666667 25.66666667 -11 26 C-9.40265192 24.23636647 -8.10516784 23.05188012 -5.95703125 21.9921875 C-3.2316423 20.57240382 -1.7970596 19.53012587 0 17 C1.05193697 11.42150379 0.45052067 5.61899391 0 0 Z " fill="#969895" transform="translate(380,2)"/>
<path d="M0 0 C5 0 10 0 15 0 C14.59579069 5.65893033 12.79663015 8.02257794 9 12 C6 14 6 14 2 14 C2.33 14.66 2.66 15.32 3 16 C3.44837758 21.26843658 3.44837758 21.26843658 1.8125 23.9375 C0 25 0 25 -2.6875 24.6875 C-3.450625 24.460625 -4.21375 24.23375 -5 24 C-5.6875 20.75 -5.6875 20.75 -6 17 C-5.54625 16.401875 -5.0925 15.80375 -4.625 15.1875 C-2.49939589 12.32610985 -2.0418203 9.72295383 -1.3125 6.25 C-1.06113281 5.07953125 -0.80976563 3.9090625 -0.55078125 2.703125 C-0.36902344 1.81109375 -0.18726563 0.9190625 0 0 Z " fill="#A1A9A1" transform="translate(337,2)"/>
<path d="M0 0 C0.69738281 0.00451172 1.39476562 0.00902344 2.11328125 0.01367188 C3.82555803 0.0253998 5.53779033 0.04333347 7.25 0.0625 C7.25 0.3925 7.25 0.7225 7.25 1.0625 C4.94 1.3925 2.63 1.7225 0.25 2.0625 C-0.08 3.3825 -0.41 4.7025 -0.75 6.0625 C0.9 6.0625 2.55 6.0625 4.25 6.0625 C2.22858862 10.61067561 -0.25344677 12.28074963 -4.609375 14.28125 C-7.67431223 15.39984023 -10.50348803 15.79195734 -13.75 16.0625 C-15.89978703 13.73356405 -16.71248682 12.28288995 -17.25 9.125 C-16.57760125 5.00655763 -14.97074609 3.62445712 -11.75 1.0625 C-7.9682574 -0.35565347 -3.97990114 -0.04890238 0 0 Z " fill="#F5CABC" transform="translate(275.75,32.9375)"/>
<path d="M0 0 C0.66 0.99 1.32 1.98 2 3 C2.77472656 3.93070313 3.54945313 4.86140625 4.34765625 5.8203125 C13.28453004 16.6063638 13.28453004 16.6063638 13 25 C11.35 25 9.7 25 8 25 C7.34 26.98 6.68 28.96 6 31 C4.35 30.67 2.7 30.34 1 30 C1.11859375 29.16597656 1.2371875 28.33195312 1.359375 27.47265625 C2.14535681 20.61103506 2.20977394 16.06188995 -1.07421875 9.9453125 C-2.35306905 7.25810807 -2.29964266 4.9215159 -2 2 C-2.66 1.67 -3.32 1.34 -4 1 C-2.68 0.67 -1.36 0.34 0 0 Z " fill="#F1F1EE" transform="translate(232,43)"/>
<path d="M0 0 C2.29634463 4.08239045 2.49015885 7.40004775 2 12 C1 14.5 1 14.5 0 16 C-3 14 -3 14 -3.6875 11.875 C-3.790625 11.25625 -3.89375 10.6375 -4 10 C-10.39393562 23.01548706 -14.47525743 33.50206362 -12 48 C-13 49 -13 49 -16.0625 49.0625 C-17.031875 49.041875 -18.00125 49.02125 -19 49 C-19.6875 46.6875 -19.6875 46.6875 -20 44 C-19.30583984 43.36384766 -19.30583984 43.36384766 -18.59765625 42.71484375 C-16.3355139 40.28677409 -16.27874872 38.13058143 -15.75 34.875 C-13.20994986 22.09537271 -8.23135018 10.1828557 0 0 Z " fill="#62654F" transform="translate(324,6)"/>
<path d="M0 0 C9.9 0 19.8 0 30 0 C30 0.66 30 1.32 30 2 C29.01 2.515625 28.02 3.03125 27 3.5625 C22.24803614 6.26821003 16.4937517 10.0124966 14 15 C13.77141886 17.0374763 13.58975722 19.08040303 13.4375 21.125 C13.35371094 22.22070312 13.26992187 23.31640625 13.18359375 24.4453125 C13.12300781 25.28835937 13.06242188 26.13140625 13 27 C12.67 27 12.34 27 12 27 C9.97219731 15.66816143 9.97219731 15.66816143 12.4921875 11.578125 C14.24680519 9.87283391 15.98359937 8.38281839 18 7 C17.11957031 6.89042969 16.23914063 6.78085938 15.33203125 6.66796875 C14.17058594 6.50941406 13.00914062 6.35085937 11.8125 6.1875 C10.66394531 6.03667969 9.51539063 5.88585937 8.33203125 5.73046875 C4.95710138 4.9905955 2.75777676 4.06184063 0 2 C0 1.34 0 0.68 0 0 Z " fill="#627365" transform="translate(235,2)"/>
<path d="M0 0 C0.66 0.33 1.32 0.66 2 1 C2 1.99 2 2.98 2 4 C1.34 4 0.68 4 0 4 C-1.37584104 10.19128467 -2.43453653 18.27146893 -0.11328125 24.3046875 C0.90222429 26.16034393 0.90222429 26.16034393 3 27 C3 28.65 3 30.3 3 32 C-1.875 31.125 -1.875 31.125 -3 30 C-3.15686249 28.44051458 -3.25076639 26.87457332 -3.31640625 25.30859375 C-3.37924805 23.89223633 -3.37924805 23.89223633 -3.44335938 22.44726562 C-3.48267578 21.45404297 -3.52199219 20.46082031 -3.5625 19.4375 C-3.60568359 18.44041016 -3.64886719 17.44332031 -3.69335938 16.41601562 C-3.79980298 13.9441585 -3.90181928 11.4721969 -4 9 C-8.7102237 18.72556812 -8.94590582 27.43199117 -7 38 C-8.32 38.66 -9.64 39.32 -11 40 C-13 38 -13 38 -13.1875 34.9375 C-13 32 -13 32 -12 31 C-11.75112705 28.89807303 -11.5265281 26.79326036 -11.3125 24.6875 C-10.00057196 15.02066179 -6.22300558 7.44874911 0 0 Z " fill="#919692" transform="translate(222,41)"/>
<path d="M0 0 C0.72425817 5.50436209 -1.30873217 8.829829 -3.8203125 13.51953125 C-5.36205633 16.76127738 -5.76792063 19.44144964 -6 23 C-5.34 23 -4.68 23 -4 23 C-3.67 23.66 -3.34 24.32 -3 25 C-0.47266765 25.65555119 -0.47266765 25.65555119 2 26 C2 26.33 2 26.66 2 27 C-3.5 27.36666667 -3.5 27.36666667 -5.875 25.625 C-7 24 -7 24 -7 22 C-7.9590625 21.690625 -7.9590625 21.690625 -8.9375 21.375 C-11 20 -11 20 -11.875 17.1875 C-12.0063445 13.83821527 -11.48399085 11.9679817 -10 9 C-9.34 9 -8.68 9 -8 9 C-7.95875 8.443125 -7.9175 7.88625 -7.875 7.3125 C-6.80627473 4.4880118 -3.30886781 0 0 0 Z " fill="#F4BEB3" transform="translate(304,50)"/>
<path d="M0 0 C0.33 0 0.66 0 1 0 C1.02505615 0.65597168 1.0501123 1.31194336 1.07592773 1.98779297 C1.1917326 4.95040183 1.31452886 7.91268031 1.4375 10.875 C1.47681641 11.90753906 1.51613281 12.94007812 1.55664062 14.00390625 C1.61948242 15.48310547 1.61948242 15.48310547 1.68359375 16.9921875 C1.72025146 17.90339355 1.75690918 18.81459961 1.79467773 19.75341797 C1.86577065 22.03483481 1.86577065 22.03483481 3 24 C2.38125 24.28875 1.7625 24.5775 1.125 24.875 C-1.13325765 25.93720042 -1.13325765 25.93720042 -3 28 C-6.16067504 22.76592213 -5.57423659 16.90450329 -5 11 C-2.61938959 2.61938959 -2.61938959 2.61938959 0 0 Z " fill="#FAF9F8" transform="translate(218,49)"/>
<path d="M0 0 C3.13143526 4.69715289 2.53013879 9.20434622 1.5 14.63671875 C0.05331447 20.13576771 -1.57116157 23.40904992 -6 27 C-6.33 26.01 -6.66 25.02 -7 24 C-8.65 23.67 -10.3 23.34 -12 23 C-11.01 22.34 -10.02 21.68 -9 21 C-4.8321871 14.76098739 -1.12952638 7.45487414 0 0 Z " fill="#F3EFEC" transform="translate(388,30)"/>
<path d="M0 0 C4.26250811 1.4106142 6.96293679 3.46881596 10.25 6.5 C11.55710938 7.69109375 11.55710938 7.69109375 12.890625 8.90625 C15 11 15 11 16 13 C16.99 13.66 17.98 14.32 19 15 C17.02 15 15.04 15 13 15 C13 14.34 13 13.68 13 13 C12.39671875 12.97421875 11.7934375 12.9484375 11.171875 12.921875 C7.41959852 12.65558441 4.68651959 12.41860951 1.4375 10.4375 C-0.68239049 6.84290308 -0.275522 4.13282995 0 0 Z " fill="#A8ACAB" transform="translate(207,12)"/>
<path d="M0 0 C1.90845703 0.04060547 1.90845703 0.04060547 3.85546875 0.08203125 C5.31919922 0.13423828 5.31919922 0.13423828 6.8125 0.1875 C5.30583313 4.41739706 2.68501026 5.77618509 -1.125 7.9375 C-2.71634766 8.85789062 -2.71634766 8.85789062 -4.33984375 9.796875 C-7.1875 11.1875 -7.1875 11.1875 -10.1875 11.1875 C-10.55146075 3.78696476 -10.55146075 3.78696476 -9.125 1.4375 C-6.13635117 -0.49066053 -3.50371405 -0.0964325 0 0 Z " fill="#59695B" transform="translate(290.1875,1.8125)"/>
<path d="M0 0 C0.33 0 0.66 0 1 0 C0.96519531 1.13888672 0.96519531 1.13888672 0.9296875 2.30078125 C0.91164063 3.29464844 0.89359375 4.28851563 0.875 5.3125 C0.84019531 6.79169922 0.84019531 6.79169922 0.8046875 8.30078125 C0.79317361 11.22406527 0.79317361 11.22406527 3 14 C3.33142708 17.18170002 3.50608328 19.17428518 1.8125 21.9375 C0 23 0 23 -2.6875 22.6875 C-3.450625 22.460625 -4.21375 22.23375 -5 22 C-5.6875 18.75 -5.6875 18.75 -6 15 C-5.01439389 13.65599167 -4.01241685 12.32392972 -3 11 C-2.00712396 8.2002665 -2.00712396 8.2002665 -1.3125 5.25 C-1.06113281 4.26515625 -0.80976563 3.2803125 -0.55078125 2.265625 C-0.36902344 1.51796875 -0.18726563 0.7703125 0 0 Z " fill="#E48583" transform="translate(337,4)"/>
<path d="M0 0 C0.66 0.33 1.32 0.66 2 1 C-0.31 3.31 -2.62 5.62 -5 8 C-4.19175781 7.50628906 -3.38351562 7.01257813 -2.55078125 6.50390625 C-1.48214844 5.86324219 -0.41351563 5.22257813 0.6875 4.5625 C1.74324219 3.92441406 2.79898437 3.28632812 3.88671875 2.62890625 C6.71009314 1.15168276 8.86866977 0.41247578 12 0 C11.34 1.32 10.68 2.64 10 4 C9.34 3.67 8.68 3.34 8 3 C2.58004353 6.651893 -2.58990583 10.14889642 -7 15 C-7 14.34 -7 13.68 -7 13 C-8.32 12.34 -9.64 11.68 -11 11 C-11 10.01 -11 9.02 -11 8 C-9.948125 7.690625 -9.948125 7.690625 -8.875 7.375 C-5.04274884 5.54218423 -2.89547493 3.09748481 0 0 Z " fill="#414528" transform="translate(316,2)"/>
<path d="M0 0 C0.33 0.66 0.66 1.32 1 2 C-4.52046037 15.05959655 -13.8018821 26.54631182 -22 38 C-20.68 38.33 -19.36 38.66 -18 39 C-20.64 39 -23.28 39 -26 39 C-25.64808594 38.53851563 -25.29617187 38.07703125 -24.93359375 37.6015625 C-17.71151751 28.06012496 -11.21198561 18.22768341 -5 8 C-3.34155913 5.32806749 -1.67142704 2.66383684 0 0 Z " fill="#C9CAC9" transform="translate(90,12)"/>
<path d="M0 0 C2.0625 2.3125 2.0625 2.3125 4 5 C3.67 5.99 3.34 6.98 3 8 C3.12375 9.7634375 3.12375 9.7634375 3.25 11.5625 C3.31899068 17.80615688 0.30372331 23.28085118 -3.66796875 27.96875 C-5.05778948 29.36847444 -6.52193434 30.69380244 -8 32 C-8.66 31.67 -9.32 31.34 -10 31 C-6.535 27.535 -6.535 27.535 -3 24 C-4.32 24.33 -5.64 24.66 -7 25 C-8.33333333 25.33333333 -9.66666667 25.66666667 -11 26 C-9.40265192 24.23636647 -8.10516784 23.05188012 -5.95703125 21.9921875 C-3.2316423 20.57240382 -1.7970596 19.53012587 0 17 C1.05193697 11.42150379 0.45052067 5.61899391 0 0 Z " fill="#888C88" transform="translate(380,2)"/>
<path d="M0 0 C0.66 0.99 1.32 1.98 2 3 C1.67 3.66 1.34 4.32 1 5 C1 8.64002859 2.0960438 10.89610464 3.5 14.25 C5.44593787 19.15595603 6.60865836 22.76553808 6 28 C4.68 28.33 3.36 28.66 2 29 C1.14285261 25.85712623 1.00364012 23.98279218 1.6875 20.75 C2.06310588 16.24272941 0.89351664 14.10524474 -1.07421875 10.15625 C-2.27350322 7.36297985 -2.3076669 4.99975226 -2 2 C-2.66 1.67 -3.32 1.34 -4 1 C-2.68 0.67 -1.36 0.34 0 0 Z " fill="#91918E" transform="translate(232,43)"/>
<path d="M0 0 C0 0.99 0 1.98 0 3 C-1.79330315 4.73651521 -3.55117121 6.26976193 -5.5 7.8125 C-6.04374268 8.25392334 -6.58748535 8.69534668 -7.14770508 9.15014648 C-10.88897539 12.16979532 -14.69236795 15.10436001 -18.57421875 17.94140625 C-19.97996371 18.9312269 -19.97996371 18.9312269 -21 20 C-22.66617115 20.04063832 -24.33388095 20.042721 -26 20 C-25.67 18.35 -25.34 16.7 -25 15 C-23.97003906 14.92265625 -22.94007813 14.8453125 -21.87890625 14.765625 C-17.48956694 13.89924987 -15.41294517 12.5157034 -11.9375 9.75 C-10.91011719 8.94175781 -9.88273437 8.13351563 -8.82421875 7.30078125 C-7.89222656 6.54152344 -6.96023438 5.78226563 -6 5 C-5.30519531 4.43667969 -4.61039062 3.87335937 -3.89453125 3.29296875 C-2.58267405 2.21169928 -1.28823214 1.10931101 0 0 Z " fill="#5F614C" transform="translate(301,19)"/>
<path d="M0 0 C0 0.66 0 1.32 0 2 C0.99 1.34 1.98 0.68 3 0 C6.1875 -0.125 6.1875 -0.125 9 0 C8.34 0.33 7.68 0.66 7 1 C6.65846063 2.66500443 6.32550502 4.33178677 6 6 C5.34 6.66 4.68 7.32 4 8 C4 6.35 4 4.7 4 3 C0.7 2.67 -2.6 2.34 -6 2 C-6 2.66 -6 3.32 -6 4 C-6.60328125 3.98839844 -7.2065625 3.97679687 -7.828125 3.96484375 C-8.62734375 3.95582031 -9.4265625 3.94679688 -10.25 3.9375 C-11.03890625 3.92589844 -11.8278125 3.91429687 -12.640625 3.90234375 C-14.91901512 3.99664798 -16.8022625 4.43284194 -19 5 C-21.33300933 5.03888349 -23.66709801 5.0448635 -26 5 C-23.55740319 2.55740319 -22.43551957 2.58095346 -19.0625 2.1484375 C-18.08539063 2.01953125 -17.10828125 1.890625 -16.1015625 1.7578125 C-14.56628906 1.56832031 -14.56628906 1.56832031 -13 1.375 C-11.97648438 1.2409375 -10.95296875 1.106875 -9.8984375 0.96875 C-2.40545281 0 -2.40545281 0 0 0 Z " fill="#C0C2C1" transform="translate(220,25)"/>
<path d="M0 0 C0.66 0.66 1.32 1.32 2 2 C-3.26073956 7.12922108 -8.12609747 7.60437871 -15.22460938 7.72241211 C-20.09959576 7.81665716 -23.80306205 8.35229654 -27.75 11.3125 C-29.34776706 13.46948554 -29.64426042 15.36752711 -30 18 C-30.33 18 -30.66 18 -31 18 C-31.3627204 10.62468514 -31.3627204 10.62468514 -29.875 8.0625 C-25.04743623 5.32688053 -19.01797845 5.87411056 -13.625 5.9375 C-12.88894531 5.94201172 -12.15289062 5.94652344 -11.39453125 5.95117188 C-9.59631842 5.96284858 -7.79814803 5.98077989 -6 6 C-6 5.34 -6 4.68 -6 4 C-4.03852126 2.61061923 -2.03833424 1.2739589 0 0 Z " fill="#F9E5E2" transform="translate(289,26)"/>
<path d="M0 0 C0.66 0.33 1.32 0.66 2 1 C-3.44275723 6.30480716 -8.99402081 10.89315555 -15.375 15 C-15.96941895 15.38534912 -16.56383789 15.77069824 -17.17626953 16.16772461 C-20.05200293 17.97494408 -22.61731538 19.46676893 -26 20 C-22.18178044 15.65512947 -17.8425925 12.93975814 -12.9375 9.9140625 C-8.36356331 6.93370481 -4.18618107 3.49605143 0 0 Z " fill="#BBBBBB" transform="translate(152,13)"/>
<path d="M0 0 C0.69738281 0.00451172 1.39476562 0.00902344 2.11328125 0.01367188 C3.82555803 0.0253998 5.53779033 0.04333347 7.25 0.0625 C7.25 0.3925 7.25 0.7225 7.25 1.0625 C6.13625 1.165625 5.0225 1.26875 3.875 1.375 C2.67875 1.601875 1.4825 1.82875 0.25 2.0625 C-0.74 3.5475 -0.74 3.5475 -1.75 5.0625 C-1.75 4.4025 -1.75 3.7425 -1.75 3.0625 C-3.3565676 3.31870684 -4.9602483 3.59305871 -6.5625 3.875 C-7.45582031 4.02582031 -8.34914063 4.17664062 -9.26953125 4.33203125 C-11.97317546 5.12822254 -13.09975944 5.79821644 -14.75 8.0625 C-14.75 9.0525 -14.75 10.0425 -14.75 11.0625 C-15.41 11.0625 -16.07 11.0625 -16.75 11.0625 C-17.0625 8.875 -17.0625 8.875 -16.75 6.0625 C-11.68625902 -0.12651675 -7.60316548 -0.09342264 0 0 Z " fill="#E49E99" transform="translate(275.75,32.9375)"/>
<path d="M0 0 C1.65 1.65 3.3 3.3 5 5 C3.25 9.875 3.25 9.875 1 11 C-0.67654729 10.72057545 -2.34608154 10.39171753 -4 10 C-4.25 6.6875 -4.25 6.6875 -4 3 C-2 1.0625 -2 1.0625 0 0 Z " fill="#DE8986" transform="translate(304,10)"/>
<path d="M0 0 C3.2146905 5.74051875 4.629285 11.39360089 3.66015625 17.91015625 C2.45985228 21.70993508 0.37947755 23.09520356 -3 25 C-5.81120611 25.3835757 -8.14216439 25.24636514 -11 25 C-11 24.01 -11 23.02 -11 22 C-8.69 22.66 -6.38 23.32 -4 24 C-4 23.34 -4 22.68 -4 22 C-2.35 21.34 -0.7 20.68 1 20 C1.05441656 18.10448978 1.09298035 16.2085208 1.125 14.3125 C1.14820313 13.25675781 1.17140625 12.20101562 1.1953125 11.11328125 C0.99762167 7.96208944 0.17248943 5.89181216 -1 3 C-0.67 2.01 -0.34 1.02 0 0 Z " fill="#E58F8F" transform="translate(312,51)"/>
<path d="M0 0 C3.465 1.485 3.465 1.485 7 3 C6.42655063 5.86724686 6.1385485 6.8614515 4 9 C1.4375 9.1875 1.4375 9.1875 -1 9 C-2 8 -2 8 -2.1875 5.0625 C-2 2 -2 2 0 0 Z " fill="#E37876" transform="translate(292,40)"/>
<path d="M0 0 C0.66 0.33 1.32 0.66 2 1 C0.14080332 7.75181951 -2.40149455 14.61446428 -7 20 C-8.32 20 -9.64 20 -11 20 C-11 18.35 -11 16.7 -11 15 C-9.02 14.67 -7.04 14.34 -5 14 C-4.731875 13.175 -4.46375 12.35 -4.1875 11.5 C-2.87475078 7.63084439 -1.44898716 3.82005706 0 0 Z " fill="#ACA6A3" transform="translate(386,32)"/>
<path d="M0 0 C2.82338429 3.1916518 3.62384955 5.76830741 4 10 C3 11 3 11 -0.0625 11.0625 C-1.031875 11.041875 -2.00125 11.02125 -3 11 C-3.6875 8.6875 -3.6875 8.6875 -4 6 C-2.625 4.375 -2.625 4.375 -1 3 C-0.67 2.01 -0.34 1.02 0 0 Z " fill="#454622" transform="translate(308,44)"/>
<path d="M0 0 C2.52055505 3.78083258 2.46702178 7.61718019 2 12 C1 14.5 1 14.5 0 16 C-0.66 15.67 -1.32 15.34 -2 15 C-2.51953125 12.63671875 -2.51953125 12.63671875 -2.8125 9.6875 C-2.92207031 8.72199219 -3.03164063 7.75648437 -3.14453125 6.76171875 C-2.97584372 3.53841924 -2.15065761 2.33960427 0 0 Z " fill="#454F27" transform="translate(324,6)"/>
<path d="M0 0 C6.93 0 13.86 0 21 0 C21 0.66 21 1.32 21 2 C19.68 2 18.36 2 17 2 C16.67 2.66 16.34 3.32 16 4 C14.68 4 13.36 4 12 4 C12 3.34 12 2.68 12 2 C10.20793453 2.14084796 8.41635083 2.28783701 6.625 2.4375 C5.12839844 2.55931641 5.12839844 2.55931641 3.6015625 2.68359375 C1.02072387 2.84965626 1.02072387 2.84965626 -1 4 C-0.67 2.68 -0.34 1.36 0 0 Z " fill="#BDCAC3" transform="translate(340,0)"/>
<path d="M0 0 C0.66 0.33 1.32 0.66 2 1 C-5.13640373 7.05708307 -12.63657765 12.73319587 -21 17 C-21.66 16.67 -22.32 16.34 -23 16 C-15.35602461 10.63368771 -7.68277759 5.31050928 0 0 Z " fill="#B8B9B9" transform="translate(33,82)"/>
<path d="M0 0 C0.33 0.99 0.66 1.98 1 3 C-0.32295768 4.32295768 -1.65621227 5.63570564 -3 6.9375 C-5.62159734 9.64102226 -6.96537538 11.16900901 -7.125 15 C-7.08375 15.99 -7.0425 16.98 -7 18 C-7 18.99 -7 19.98 -7 21 C-8.5625 19.4375 -8.5625 19.4375 -10 17 C-9.77100357 13.67955183 -9.4949015 10.989803 -8 8 C-7.34 8 -6.68 8 -6 8 C-5.938125 7.4225 -5.87625 6.845 -5.8125 6.25 C-4.67972699 3.11309013 -2.65802405 1.90832496 0 0 Z " fill="#EFD2CA" transform="translate(302,51)"/>
<path d="M0 0 C4.74328558 3.66526613 9.25332854 7.17252447 10.46484375 13.3828125 C10.71755767 15.59146289 10.90131441 17.77957425 11 20 C9.68 19.34 8.36 18.68 7 18 C7.185625 16.515 7.185625 16.515 7.375 15 C7.42041476 10.53118733 5.2018066 8.09669811 2.41015625 4.796875 C1 3 1 3 0 0 Z " fill="#9B9694" transform="translate(234,48)"/>
<path d="M0 0 C4.29 0 8.58 0 13 0 C11 2.5625 11 2.5625 8 5 C5.10883176 5.14963532 2.86600184 4.63149193 0 4 C0 2.68 0 1.36 0 0 Z " fill="#435A47" transform="translate(250,3)"/>
<path d="M0 0 C0.33 0 0.66 0 1 0 C0.98839844 0.73605469 0.97679687 1.47210938 0.96484375 2.23046875 C0.95582031 3.20628906 0.94679688 4.18210937 0.9375 5.1875 C0.92589844 6.15042969 0.91429687 7.11335937 0.90234375 8.10546875 C0.99513378 10.85576513 1.37888315 13.32479591 2 16 C0.02 16 -1.96 16 -4 16 C-3.31092878 12.34056353 -2.43178734 8.77558041 -1.4375 5.1875 C-1.16808594 4.21167969 -0.89867187 3.23585938 -0.62109375 2.23046875 C-0.41613281 1.49441406 -0.21117187 0.75835937 0 0 Z " fill="#4D4B29" transform="translate(337,4)"/>
<path d="M0 0 C0.66 0 1.32 0 2 0 C3.61949011 2.57213134 4.04408751 3.67669159 3.625 6.75 C3.41875 7.4925 3.2125 8.235 3 9 C1.68 9 0.36 9 -1 9 C-2 8 -2 8 -2.1875 5.0625 C-2 2 -2 2 0 0 Z " fill="#E68D8F" transform="translate(211,71)"/>
<path d="M0 0 C1.45792884 -0.05399736 2.91642712 -0.09279177 4.375 -0.125 C5.18710938 -0.14820313 5.99921875 -0.17140625 6.8359375 -0.1953125 C9 0 9 0 11 2 C10.44570312 2.38671875 9.89140625 2.7734375 9.3203125 3.171875 C8.23363281 3.95304687 8.23363281 3.95304687 7.125 4.75 C6.40570313 5.26046875 5.68640625 5.7709375 4.9453125 6.296875 C2.91429435 8.07503547 2.02144988 9.52701607 1 12 C1 10.68 1 9.36 1 8 C-2.3 8.66 -5.6 9.32 -9 10 C-8.67 9.34 -8.34 8.68 -8 8 C-5.28224444 7.14199783 -2.53636584 6.52718828 0.23828125 5.87890625 C3.04304849 4.98629999 4.77640228 3.89613202 7 2 C4.69 1.67 2.38 1.34 0 1 C0 0.67 0 0.34 0 0 Z " fill="#C2C5C3" transform="translate(171,34)"/>
<path d="M0 0 C1.18613892 0.00785522 1.18613892 0.00785522 2.39624023 0.01586914 C3.67724609 0.02070312 3.67724609 0.02070312 4.98413086 0.02563477 C5.88196289 0.03401367 6.77979492 0.04239258 7.70483398 0.05102539 C8.6065332 0.05553711 9.50823242 0.06004883 10.43725586 0.06469727 C12.67234712 0.07652315 14.90730835 0.09300319 17.14233398 0.11352539 C17.47233398 0.77352539 17.80233398 1.43352539 18.14233398 2.11352539 C17.15233398 2.11352539 16.16233398 2.11352539 15.14233398 2.11352539 C14.81233398 2.77352539 14.48233398 3.43352539 14.14233398 4.11352539 C14.14233398 3.45352539 14.14233398 2.79352539 14.14233398 2.11352539 C13.08272461 2.20891602 12.02311523 2.30430664 10.93139648 2.40258789 C9.54342089 2.51512645 8.15539738 2.62707505 6.76733398 2.73852539 C5.71932617 2.83520508 5.71932617 2.83520508 4.65014648 2.93383789 C2.81864288 3.07472278 0.97920651 3.10114198 -0.85766602 3.11352539 C-1.51766602 2.45352539 -2.17766602 1.79352539 -2.85766602 1.11352539 C-1.85766602 0.11352539 -1.85766602 0.11352539 0 0 Z " fill="#BAC9C0" transform="translate(282.857666015625,-0.113525390625)"/>
<path d="M0 0 C4.92307692 4.30769231 4.92307692 4.30769231 5.3125 7.8125 C5.209375 8.534375 5.10625 9.25625 5 10 C0.125 9.125 0.125 9.125 -1 8 C-1.125 4.5 -1.125 4.5 -1 1 C-0.67 0.67 -0.34 0.34 0 0 Z " fill="#DE9292" transform="translate(220,63)"/>
<path d="M0 0 C0 2.64 0 5.28 0 8 C-1.98 8.99 -1.98 8.99 -4 10 C-5 9 -5 9 -5.3125 6.125 C-5 3 -5 3 -3.0625 1.125 C-1 0 -1 0 0 0 Z " fill="#E6898F" transform="translate(368,37)"/>
<path d="M0 0 C0.33 0 0.66 0 1 0 C1.03758423 0.98395752 1.03758423 0.98395752 1.07592773 1.98779297 C1.1917326 4.95040183 1.31452886 7.91268031 1.4375 10.875 C1.47681641 11.90753906 1.51613281 12.94007812 1.55664062 14.00390625 C1.59853516 14.99003906 1.64042969 15.97617188 1.68359375 16.9921875 C1.72025146 17.90339355 1.75690918 18.81459961 1.79467773 19.75341797 C1.86577065 22.03483481 1.86577065 22.03483481 3 24 C1.35 24.66 -0.3 25.32 -2 26 C-1.835 25.03835937 -1.67 24.07671875 -1.5 23.0859375 C-0.85689792 18.59101627 -0.92656534 14.15591828 -1 9.625 C-1.04536505 6.74431934 -1.04753578 3.88185649 -1 1 C-0.67 0.67 -0.34 0.34 0 0 Z " fill="#E8E4DF" transform="translate(218,49)"/>
<path d="M0 0 C1.94908295 2.92362443 3.33667844 5.72576646 4.75 8.9375 C5.45382812 10.49791016 5.45382812 10.49791016 6.171875 12.08984375 C7 15 7 15 6.140625 17.37890625 C5.76421875 17.91386719 5.3878125 18.44882813 5 19 C4.66226562 18.07316406 4.32453125 17.14632812 3.9765625 16.19140625 C3.30753906 14.39509766 3.30753906 14.39509766 2.625 12.5625 C2.18414062 11.36753906 1.74328125 10.17257813 1.2890625 8.94140625 C0.32914764 5.89803102 0.32914764 5.89803102 -2 5 C-2 4.01 -2 3.02 -2 2 C-1.34 2 -0.68 2 0 2 C0 1.34 0 0.68 0 0 Z " fill="#B9BBBA" transform="translate(353,58)"/>
<path d="M0 0 C0.66 0.33 1.32 0.66 2 1 C-1.66666667 4.66666667 -5.33333333 8.33333333 -9 12 C-10.32 11.34 -11.64 10.68 -13 10 C-12.22914063 9.44570313 -11.45828125 8.89140625 -10.6640625 8.3203125 C-9.66117187 7.59585937 -8.65828125 6.87140625 -7.625 6.125 C-6.62726563 5.40570312 -5.62953125 4.68640625 -4.6015625 3.9453125 C-2.00530106 2.1005342 -2.00530106 2.1005342 0 0 Z " fill="#EAEBDF" transform="translate(297,24)"/>
<path d="M0 0 C1.32 0.33 2.64 0.66 4 1 C3.236875 1.7425 2.47375 2.485 1.6875 3.25 C-2.63090159 7.66882953 -4.34519429 9.95157503 -4.6875 16.25 C-4.78611328 17.86648437 -4.78611328 17.86648437 -4.88671875 19.515625 C-4.92410156 20.33546875 -4.96148437 21.1553125 -5 22 C-5.33 22 -5.66 22 -6 22 C-8.03456281 10.63038432 -8.03456281 10.63038432 -5.5078125 6.6484375 C-3.5625 4.8125 -3.5625 4.8125 -1.56640625 3.26953125 C-1.04949219 2.85058594 -0.53257812 2.43164062 0 2 C0 1.34 0 0.68 0 0 Z " fill="#889089" transform="translate(253,7)"/>
<path d="M0 0 C1.32 0 2.64 0 4 0 C4 2.31 4 4.62 4 7 C2.68 7.33 1.36 7.66 0 8 C-0.79953138 4.71303767 -1.09658936 3.28976808 0 0 Z " fill="#E78586" transform="translate(234,64)"/>
<path d="M0 0 C0.66 0.33 1.32 0.66 2 1 C2.125 3.875 2.125 3.875 2 7 C1.34 7.66 0.68 8.32 0 9 C-0.99 9 -1.98 9 -3 9 C-3.36923077 3.46153846 -3.36923077 3.46153846 -1.5 1.125 C-1.005 0.75375 -0.51 0.3825 0 0 Z " fill="#E78789" transform="translate(385,54)"/>
<path d="M0 0 C1.32 0.33 2.64 0.66 4 1 C4 1.99 4 2.98 4 4 C3.01 4.66 2.02 5.32 1 6 C0.26656572 9.06556598 0.26656572 9.06556598 0 12 C-0.66 11.34 -1.32 10.68 -2 10 C-2 8.68 -2 7.36 -2 6 C-2.99 5.67 -3.98 5.34 -5 5 C-4.360625 4.731875 -3.72125 4.46375 -3.0625 4.1875 C-0.66868314 3.11332248 -0.66868314 3.11332248 0 0 Z " fill="#F7E9E3" transform="translate(363,34)"/>
<path d="M0 0 C0 0.66 0 1.32 0 2 C-2.3359375 3.76171875 -2.3359375 3.76171875 -5.375 5.6875 C-6.37273437 6.33074219 -7.37046875 6.97398438 -8.3984375 7.63671875 C-9.25695312 8.08660156 -10.11546875 8.53648438 -11 9 C-11.66 8.67 -12.32 8.34 -13 8 C-11.78719339 6.65176834 -10.55401909 5.32183918 -9.3125 4 C-8.62800781 3.2575 -7.94351562 2.515 -7.23828125 1.75 C-4.58663012 -0.3231932 -3.2828659 -0.36795695 0 0 Z " fill="#DFE4D2" transform="translate(323,2)"/>
<path d="M0 0 C4.57167782 5.61069551 5.23901086 9.94917972 5 17 C2.25153201 13.84712528 1.50332977 11.42712622 0.9375 7.3125 C0.57983281 4.44791642 0.57983281 4.44791642 0 2 C-0.66 1.67 -1.32 1.34 -2 1 C-1.34 0.67 -0.68 0.34 0 0 Z " fill="#B4B8B4" transform="translate(384,8)"/>
<path d="M0 0 C1 2 2 4 3 6 C2.01 6 1.02 6 0 6 C-0.66 7.98 -1.32 9.96 -2 12 C-3.65 11.67 -5.3 11.34 -7 11 C-6.67 10.34 -6.34 9.68 -6 9 C-5.01 9 -4.02 9 -3 9 C-2.80083984 8.15115234 -2.80083984 8.15115234 -2.59765625 7.28515625 C-2.42105469 6.55167969 -2.24445313 5.81820312 -2.0625 5.0625 C-1.88847656 4.33160156 -1.71445313 3.60070312 -1.53515625 2.84765625 C-1 1 -1 1 0 0 Z " fill="#F7DBDB" transform="translate(240,62)"/>
<path d="M0 0 C0.66 0.33 1.32 0.66 2 1 C1.01 6.28 0.02 11.56 -1 17 C-3 14 -3 14 -2.79296875 11.40625 C-2.59316406 10.4471875 -2.39335937 9.488125 -2.1875 8.5 C-1.89939453 7.06140625 -1.89939453 7.06140625 -1.60546875 5.59375 C-1 3 -1 3 0 0 Z " fill="#737662" transform="translate(311,30)"/>
<path d="M0 0 C0.33 0 0.66 0 1 0 C1.33 6.93 1.66 13.86 2 21 C0.02 21 -1.96 21 -4 21 C-2.68 20.34 -1.36 19.68 0 19 C0 12.73 0 6.46 0 0 Z " fill="#ADAFAD" transform="translate(350,30)"/>
<path d="M0 0 C2.0625 2.3125 2.0625 2.3125 4 5 C3.67 5.99 3.34 6.98 3 8 C2.93334624 9.39439664 2.91461801 10.79169875 2.9375 12.1875 C2.958125 13.445625 2.97875 14.70375 3 16 C0.14206684 13.14206684 0.59200059 10.85334416 0.375 6.875 C0.30023438 5.59367188 0.22546875 4.31234375 0.1484375 2.9921875 C0.09945313 2.00476563 0.05046875 1.01734375 0 0 Z " fill="#999E9A" transform="translate(380,2)"/>
<path d="M0 0 C1.65 0 3.3 0 5 0 C4.67 1.65 4.34 3.3 4 5 C2.35 5 0.7 5 -1 5 C-0.67 3.35 -0.34 1.7 0 0 Z " fill="#3E3C12" transform="translate(276,34)"/>
<path d="M0 0 C-0.5859375 6.15234375 -0.5859375 6.15234375 -1 8 C-1.99 8.495 -1.99 8.495 -3 9 C-3.99 7.35 -4.98 5.7 -6 4 C-2.25 0 -2.25 0 0 0 Z " fill="#ABAFA5" transform="translate(336,7)"/>
<path d="M0 0 C1.09570312 0.00902344 2.19140625 0.01804688 3.3203125 0.02734375 C4.16335938 0.03894531 5.00640625 0.05054688 5.875 0.0625 C5.875 0.7225 5.875 1.3825 5.875 2.0625 C1.86547425 3.39900858 -1.94516197 3.26475023 -6.125 3.0625 C-6.785 2.4025 -7.445 1.7425 -8.125 1.0625 C-5.36047967 -0.31976016 -3.0788637 -0.03275387 0 0 Z " fill="#BCC8BD" transform="translate(321.125,-0.0625)"/>
<path d="M0 0 C0 3 0 3 -2.375 5.6875 C-5 8 -5 8 -7 8 C-6.875 5.6875 -6.875 5.6875 -6 3 C-2.9375 1.1875 -2.9375 1.1875 0 0 Z " fill="#EDF1EE" transform="translate(377,24)"/>
<path d="M0 0 C0.66 0.66 1.32 1.32 2 2 C-2.9265384 6.19279864 -5.79258598 7.5546903 -12.27734375 7.17578125 C-12.84582031 7.11777344 -13.41429687 7.05976562 -14 7 C-14 6.67 -14 6.34 -14 6 C-11.36 6 -8.72 6 -6 6 C-6 5.34 -6 4.68 -6 4 C-4.03852126 2.61061923 -2.03833424 1.2739589 0 0 Z " fill="#F1F1E4" transform="translate(289,26)"/>
<path d="M0 0 C0.33 0.66 0.66 1.32 1 2 C-0.92333011 6.06036357 -3.40069448 8.37347975 -7 11 C-7.66 10.67 -8.32 10.34 -9 10 C-8.2575 9.278125 -7.515 8.55625 -6.75 7.8125 C-4.30709485 5.31407427 -2.1318953 2.76356798 0 0 Z " fill="#F2EEE3" transform="translate(283,35)"/>
<path d="M0 0 C2.38825352 3.64429796 1.94295451 6.0693436 1.125 10.25 C0.92132813 11.32765625 0.71765625 12.4053125 0.5078125 13.515625 C0.34023438 14.33546875 0.17265625 15.1553125 0 16 C-0.33 16 -0.66 16 -1 16 C-1.07347656 15.04287109 -1.07347656 15.04287109 -1.1484375 14.06640625 C-1.22320312 13.24011719 -1.29796875 12.41382813 -1.375 11.5625 C-1.44460938 10.73878906 -1.51421875 9.91507813 -1.5859375 9.06640625 C-1.79089844 8.04353516 -1.79089844 8.04353516 -2 7 C-2.66 6.67 -3.32 6.34 -4 6 C-3.01 5.67 -2.02 5.34 -1 5 C-0.67 3.35 -0.34 1.7 0 0 Z " fill="#BEB8B2" transform="translate(369,28)"/>
<path d="M0 0 C4.95 0 9.9 0 15 0 C15 0.33 15 0.66 15 1 C13.88625 1.103125 12.7725 1.20625 11.625 1.3125 C10.42875 1.539375 9.2325 1.76625 8 2 C7.01 3.485 7.01 3.485 6 5 C6 4.01 6 3.02 6 2 C4.02 2 2.04 2 0 2 C0 1.34 0 0.68 0 0 Z " fill="#D0968C" transform="translate(268,33)"/>
<path d="M0 0 C0.33 0 0.66 0 1 0 C1.36421725 5.46325879 1.36421725 5.46325879 -0.1875 7.75 C-2.35192673 9.24270809 -4.52531245 10.13051518 -7 11 C-3.25 5.125 -3.25 5.125 -1 4 C-0.34786708 1.97536745 -0.34786708 1.97536745 0 0 Z " fill="#F3C8BB" transform="translate(303,50)"/>
<path d="M0 0 C-8.03501094 4.07877462 -8.03501094 4.07877462 -12.0625 3.75 C-12.701875 3.5025 -13.34125 3.255 -14 3 C-9.30516132 0.47200994 -5.26738261 -1.6006486 0 0 Z " fill="#BABCBB" transform="translate(106,43)"/>
<path d="M0 0 C1.98 0 3.96 0 6 0 C5.01 0.495 5.01 0.495 4 1 C3.65846063 2.66500443 3.32550502 4.33178677 3 6 C2.34 6.66 1.68 7.32 1 8 C1 6.35 1 4.7 1 3 C-0.98 3 -2.96 3 -5 3 C-5 2.67 -5 2.34 -5 2 C-3.35 1.67 -1.7 1.34 0 1 C0 0.67 0 0.34 0 0 Z " fill="#D7DEDA" transform="translate(223,25)"/>
<path d="M0 0 C-0.66 1.32 -1.32 2.64 -2 4 C-2.66 3.67 -3.32 3.34 -4 3 C-5.79540511 3.76501555 -5.79540511 3.76501555 -7.625 4.9375 C-8.73875 5.618125 -9.8525 6.29875 -11 7 C-11.33 6.34 -11.66 5.68 -12 5 C-10.75747321 4.15556432 -9.5056114 3.3248542 -8.25 2.5 C-7.55390625 2.0359375 -6.8578125 1.571875 -6.140625 1.09375 C-4 0 -4 0 0 0 Z " fill="#5E6550" transform="translate(328,2)"/>
<path d="M0 0 C0.99 0.33 1.98 0.66 3 1 C-0.3 4.3 -3.6 7.6 -7 11 C-7.66 10.67 -8.32 10.34 -9 10 C-8.27683594 9.29423828 -8.27683594 9.29423828 -7.5390625 8.57421875 C-6.90742187 7.95160156 -6.27578125 7.32898437 -5.625 6.6875 C-4.68527344 5.76517578 -4.68527344 5.76517578 -3.7265625 4.82421875 C-1.81913393 2.91187472 -1.81913393 2.91187472 0 0 Z " fill="#EEF1F0" transform="translate(64,53)"/>
<path d="M0 0 C1.65 0 3.3 0 5 0 C4.67 1.65 4.34 3.3 4 5 C2.68 5 1.36 5 0 5 C0 3.35 0 1.7 0 0 Z " fill="#E88583" transform="translate(375,47)"/>
<path d="M0 0 C1.98 0 3.96 0 6 0 C5.34 1.65 4.68 3.3 4 5 C1.525 4.01 1.525 4.01 -1 3 C-0.67 2.01 -0.34 1.02 0 0 Z " fill="#EA746D" transform="translate(303,15)"/>
<path d="M0 0 C-1.4006216 3.501554 -2.62264089 4.46483677 -6 6 C-6.53625 6.53625 -7.0725 7.0725 -7.625 7.625 C-8.07875 8.07875 -8.5325 8.5325 -9 9 C-9.66 9 -10.32 9 -11 9 C-11 8.34 -11 7.68 -11 7 C-9.1015625 5.2734375 -9.1015625 5.2734375 -6.625 3.375 C-5.40683594 2.42753906 -5.40683594 2.42753906 -4.1640625 1.4609375 C-2 0 -2 0 0 0 Z " fill="#647366" transform="translate(238,19)"/>
<path d="M0 0 C2.31 0 4.62 0 7 0 C5.35 1.65 3.7 3.3 2 5 C1.01 4.67 0.02 4.34 -1 4 C-0.67 2.68 -0.34 1.36 0 0 Z " fill="#4E5E51" transform="translate(256,3)"/>
<path d="M0 0 C-0.99 0.33 -1.98 0.66 -3 1 C-3 1.66 -3 2.32 -3 3 C-4.98 3.66 -6.96 4.32 -9 5 C-8.875 3.125 -8.875 3.125 -8 1 C-2.71910112 -1.35955056 -2.71910112 -1.35955056 0 0 Z " fill="#CED7CE" transform="translate(242,41)"/>
<path d="M0 0 C0 0.66 0 1.32 0 2 C-1.45264038 2.8638129 -2.9123163 3.71580454 -4.375 4.5625 C-5.59316406 5.27599609 -5.59316406 5.27599609 -6.8359375 6.00390625 C-7.55007812 6.33261719 -8.26421875 6.66132812 -9 7 C-9.66 6.67 -10.32 6.34 -11 6 C-9.54550599 4.9944239 -8.08627557 3.99569565 -6.625 3 C-5.40683594 2.1646875 -5.40683594 2.1646875 -4.1640625 1.3125 C-2 0 -2 0 0 0 Z " fill="#B3B3B3" transform="translate(137,26)"/>
<path d="M0 0 C1.32 0 2.64 0 4 0 C4 1.98 4 3.96 4 6 C2.68 5.34 1.36 4.68 0 4 C0 2.68 0 1.36 0 0 Z " fill="#E88D90" transform="translate(241,62)"/>
<path d="M0 0 C-0.66 1.65 -1.32 3.3 -2 5 C-2.33 3.68 -2.66 2.36 -3 1 C-6.3 1.66 -9.6 2.32 -13 3 C-12 1 -12 1 -10.0390625 0.33203125 C-9.24242187 0.16058594 -8.44578125 -0.01085938 -7.625 -0.1875 C-6.43777344 -0.45626953 -6.43777344 -0.45626953 -5.2265625 -0.73046875 C-3 -1 -3 -1 0 0 Z " fill="#CACECA" transform="translate(175,41)"/>
<path d="M0 0 C0.33 0.99 0.66 1.98 1 3 C0.34 3.66 -0.32 4.32 -1 5 C-1.6425235 7.06874034 -1.6425235 7.06874034 -2 9 C-2.66 9 -3.32 9 -4 9 C-4.33 7.02 -4.66 5.04 -5 3 C-3.35 2.67 -1.7 2.34 0 2 C0 1.34 0 0.68 0 0 Z " fill="#F8EAE5" transform="translate(360,30)"/>
<path d="M0 0 C0.33 0 0.66 0 1 0 C0.67 3.3 0.34 6.6 0 10 C-0.66 9.01 -1.32 8.02 -2 7 C-2.66 6.67 -3.32 6.34 -4 6 C-2.69593116 3.98079663 -1.36176581 1.98075027 0 0 Z " fill="#EBEFEA" transform="translate(353,3)"/>
<path d="M0 0 C0.33 0 0.66 0 1 0 C1.14285714 8.57142857 1.14285714 8.57142857 0 12 C-3 11 -3 11 -5 9 C-4.0409375 8.7215625 -4.0409375 8.7215625 -3.0625 8.4375 C-0.57873787 7.05753944 -0.57873787 7.05753944 -0.25 3.375 C-0.1675 2.26125 -0.085 1.1475 0 0 Z " fill="#F4D6D3" transform="translate(387,54)"/>
<path d="M0 0 C1.32 0.33 2.64 0.66 4 1 C2.37660195 2.70884005 0.70680947 4.37446717 -1 6 C-1.66 6 -2.32 6 -3 6 C-2.67 4.68 -2.34 3.36 -2 2 C-1.34 2 -0.68 2 0 2 C0 1.34 0 0.68 0 0 Z " fill="#DCBFAF" transform="translate(276,39)"/>
<path d="M0 0 C0.66 0 1.32 0 2 0 C2 1.65 2 3.3 2 5 C0.68 5.33 -0.64 5.66 -2 6 C-1.125 1.125 -1.125 1.125 0 0 Z " fill="#E18D90" transform="translate(360,33)"/>
<path d="M0 0 C0.99 0.33 1.98 0.66 3 1 C3 1.66 3 2.32 3 3 C4.65 3 6.3 3 8 3 C6.68 4.32 5.36 5.64 4 7 C4 6.34 4 5.68 4 5 C2.68 4.34 1.36 3.68 0 3 C0 2.01 0 1.02 0 0 Z " fill="#574425" transform="translate(305,10)"/>
<path d="M0 0 C1.65 0 3.3 0 5 0 C5.33 1.32 5.66 2.64 6 4 C4.35 3.67 2.7 3.34 1 3 C0.67 2.01 0.34 1.02 0 0 Z " fill="#433A17" transform="translate(293,39)"/>
<path d="M0 0 C0.66 1.32 1.32 2.64 2 4 C0.35 4.33 -1.3 4.66 -3 5 C-3 3.68 -3 2.36 -3 1 C-2.01 0.67 -1.02 0.34 0 0 Z " fill="#EB7B80" transform="translate(336,22)"/>
<path d="M0 0 C-0.57344937 2.86724686 -0.8614515 3.8614515 -3 6 C-3 5.34 -3 4.68 -3 4 C-3.99 3.67 -4.98 3.34 -6 3 C-3.375 0 -3.375 0 0 0 Z " fill="#EBE6DB" transform="translate(305,20)"/>
<path d="M0 0 C0.66 0.33 1.32 0.66 2 1 C1.38722388 3.96175123 0.74627478 5.38058783 -1 8 C-1.66 8 -2.32 8 -3 8 C-1.125 2.25 -1.125 2.25 0 0 Z " fill="#F18984" transform="translate(304,54)"/>
<path d="M0 0 C0 0.66 0 1.32 0 2 C0.66 2 1.32 2 2 2 C2 2.66 2 3.32 2 4 C0.02 4 -1.96 4 -4 4 C-4 3.01 -4 2.02 -4 1 C-2 0 -2 0 0 0 Z " fill="#4D390F" transform="translate(309,51)"/>
<path d="M0 0 C0.99 0 1.98 0 3 0 C1.125 3.875 1.125 3.875 0 5 C-1.66617115 5.04063832 -3.33388095 5.042721 -5 5 C-4.67 4.34 -4.34 3.68 -4 3 C-2.68 3 -1.36 3 0 3 C0 2.01 0 1.02 0 0 Z " fill="#E28587" transform="translate(296,44)"/>
<path d="M0 0 C0.66 0.66 1.32 1.32 2 2 C1.875 4.5 1.875 4.5 1 7 C-0.98 7.99 -0.98 7.99 -3 9 C-2.01 6.03 -1.02 3.06 0 0 Z " fill="#E6E7DA" transform="translate(316,22)"/>
<path d="M0 0 C0.66 0.33 1.32 0.66 2 1 C0.25 6.75 0.25 6.75 -2 9 C-3 6 -3 6 -1.5625 2.8125 C-1.046875 1.884375 -0.53125 0.95625 0 0 Z " fill="#EAEFDF" transform="translate(314,18)"/>
<path d="M0 0 C1.32 0 2.64 0 4 0 C3.67 0.99 3.34 1.98 3 3 C0.4375 4.1875 0.4375 4.1875 -2 5 C-1.34 3.35 -0.68 1.7 0 0 Z " fill="#556358" transform="translate(292,3)"/>
<path d="M0 0 C0.33 0 0.66 0 1 0 C1 1.98 1 3.96 1 6 C-0.98 6.99 -0.98 6.99 -3 8 C-1.125 2.25 -1.125 2.25 0 0 Z " fill="#E4E5D9" transform="translate(302,30)"/>
<path d="M0 0 C0.33 0 0.66 0 1 0 C2.35384615 7.38461538 2.35384615 7.38461538 0.5625 10.5 C0.046875 10.995 -0.46875 11.49 -1 12 C-1.66 11.67 -2.32 11.34 -3 11 C-2.690625 10.484375 -2.38125 9.96875 -2.0625 9.4375 C-0.70940713 6.33334577 -0.38640576 3.34884993 0 0 Z " fill="#E3E5DA" transform="translate(326,11)"/>
</svg>
