<?xml version="1.0" encoding="UTF-8"?>
<svg version="1.1" viewBox="0 0 2048 661" width="1280" height="1280" xmlns="http://www.w3.org/2000/svg">
<path transform="translate(0)" d="m0 0h2048v661h-2048z" fill="#FCFCFC"/>
<path transform="translate(881,232)" d="m0 0 2 1 1 3v36l-3 58-3 21-8 35-6 17-7 16-9 15-11 14-12 12-12 8-14 11-8 9-3 6-2 20-6 11 1 2 14-16 16-16 7-6 6-7h3l2-4 12-10 9-7 13-11 18-13 10-7 11-7h3v-2l13-6h2v-2l17-8 5-2 5 1 5 8v9l-6 21-6 15-10 18-11 14-8 10-5 6h-2v2h-2l-1 4-16 15-19 12-16 7-22 7-3 2-25 4-18 1-10 1-3-1-2 6-2 18-6 17-2 5v7l7-3 17-13 13-8 21-9 24-10 10-4 13-4 12-6 18-5 10-4 37-8 23-4 20-1 7 2 1 1-1 8-10 19-7 9-3 5h-2l-1 5h-2l-2 4-16 16-7 6h-2l-1 3h-3v2l-24 16-16 7h-2l-1 3-21 2-27 3-11 1h-15l-2 1h-7v-3l-24-2-16-2-9-2h-5l-2 4-5 5-2 13-1 2h-7v-15l3-7 5-1 2-4-15-3-12-4-13-7-6-2v-2l-9-3-8-5-5-2v-2h-3v-2l-5-1v-2h-3v-2h-3v-2l-4-1-3-2v-2h-3v-2l-4-1v-2l-4-1-1-3-4-1-5-5-8-7-8-8-9-11-1-4h-2v-3l-3-1-6-9-4-4v-2l-3-1-3-5v-2h-2l-3-9h-2l-3-9h-2l-8-16-3-9-1-11 1-3 5-2h14l9 3 14 7 12 3 4 2v2l5 1 15 8v2h3v2l7 2 15 10 12 9 12 11 8 7 11 14 8 10 2 4 5 5 6 9 6 12 4 9 4 3 3-4 4-13 3-18 1-2v-6l-5-5-11-9-25-25v-3l-4-2-13-19-4-5v-3h-2l-6-13v-2h-2l-1-5h-2l-12-24v-4h-2l-7-18v-8h-2l-6-24-2-12v-18l4-8 3-3 5-1 8 4 10 9 19 19 7 8 10 11 12 17 12 20 11 23 13 42 6 30 3 3 2-5v-81l3-23 8-38 10-33 1-5 2-1 5-13 9-19 11-17 12-17 11-14 22-22 7-5z" fill="#92BAB1"/>
<path transform="translate(310,198)" d="m0 0 5 1 9 6 9 10 10 14 6 12 8 24 3 31v30l-5 13-9 16-12 18-4 7-3 6-10 41-1 6v23l4-1 9-17 12-21 12-22 13-21 8-16 8-24 7-26 8-16 9-13 11-12 8-8 14-11 18-14 20-14 16-9 22-9 6 1 3 7 2 4-5 13-16 33-9 15-12 16-9 11-13 16-4 5-12 9-13 12-19 14-14 9-8 4-10 8-7 10-11 17-5 8-1 6 16-1 10-4 16-13 8-8 10-7 18-11 11-6 6-4 6-1h11l39-8h11l28 4 18 4 4 2-1 5-6 8-8 8-11 9-16 12-19 13-18 12-11 7-11 1-19-1-17-3v-3l-9-2-14-3-8-1h-23l-13 3-12 8-10 5-10 13-13 19-12 20-12 19-15 22-9 14-8 17 6-1 8-3 15-15 9-14 15-30 10-13 11-10 15-10 33-16 23-11 6-2h9l5 4 2 1-1 8-11 25-3 6-6 10-4 8-14 15-14 14-10 6-6 3-24 5-7 6-5 1-18 1-10 3-11 9-11 6-11 4-9 7-12 19-14 27-1 2h-2l-1 5-5 9-3 13h-11l-1-21-3-13-4-5-9-7-13-11-7-5h-17l-14-9-9-4-2-1v-2l-4-2-9-11-8-16-3-12 1-5 4-6 11-5 6-5 5-5 11-4 10 14 7 15 9 24 3 12 4 6 12 13 6 4 4 1-2-17-3-17-1-14-3-111-1-12-9-11-6-10-3-9-1-5v-25l7-48 3-32 2-23 5-4 5-2 8 1 9 6 9 10 12 20 6 14 5 19 1 14-2 21-7 28-10 19-11 15-1 11-5 6-6-3v35l3 29 2 25 1 3 6-11 5-8 2-6 2-17 7-21 7-13 11-12 17-13 15-12 9-3 4 2 2 5-2 20-7 31-7 16-7 10-13 11-16 9-15 8-12 9-7 8 1 17 4 32 3 13 5 8 7 1 2-5 5-13 16-29 15-26 15-25 15-27 5-6 3-11 1-12 2-60 1-9 4-6 1-5-10-14-7-11-8-16-3-14v-12l2-14 10-30 6-29 3-22 2-21z" fill="#E7C9AD"/>
<path transform="translate(1287,298)" d="m0 0 6 1 9 6 8 10 2 7 4 35 4 43 5 81 1 43 2-2 3-14 4-47 3-38 6-31 6-21 3-4 7-3 7 1 8 4 10 1v45l-2 21-4 23-6 25-7 26-9 21-3 10-4 5h-2l-3 10-1 5 3 9 7 10 5 21 3 6 4-5 5-3 5-22 9-21 10-24 7-17 13-25 10-13 9-9 8-7 7-4h7l7 4 6 8 3 10v8l-3 14-8 21-11 21-10 16-15 22-7 9-11 14-12 14-3 4h-2l-2 4-5 6-5 2-2 10-1 13-1 4h-5l-1-8-5-1-21-1-31-4-25-6-16-4-8-4-18-7-17-9-13-10-1-1v-12l4-6-1-7-9-15 1-7 4-5 10 1 40 13 24 9 25 13 17 12 13 10 10 9 3 1-3-12-6-12-6-16-6-12-3-2h-21l-8-2-12-7-15-6-10-6-11-9-19-19-9-11-8-11-13-20-8-16-3-10v-20l5-9 3-4 7-1 12 6 14 11 16 13 7 6 9 11 12 14 5 8 4 3 2 4 4 4v2l4 2v3l3 1v3l3 1v3l4 2 4 5 3 2 3 10 4 6v-15l-3-1-5-5-3-7-3-12-6-16-2-7v-5h-2l-1-5h-2l-3-8-3-12-5-12-5-18-5-17-3-18-1-11v-26l3-30 3-7 7-5z" fill="#92BAB1"/>
<path transform="translate(1733,207)" d="m0 0 9 1 6 4 7 7 8 13 11 23 2 25v47l-5 42-5 32-2 16-5 16-4 18-3 15-3 12-3 25-1 22 6-5 13-18 12-17 14-21 15-25 12-21 13-20 12-18 13-18 13-16 9-10 14-14 11-7 6-2h9l8 3 6 5 2 7-1 21-2 15-6 15-11 21-10 14-8 10-9 11-9 10-7 8-59 59-8 7-11 10-20 15-14 10-8 5-4 2v28l-2 57-1 15h-11v-132l-2-31-3-15-11-24-10-18-12-26-4-8-5-13-4-8-3-14-7-43v-21l6-32 4-17 2-4 4-2 12-2 10-6 8-8 4-9 2-12 7-8z" fill="#C8DBE2"/>
<path transform="translate(571,459)" d="m0 0h14l9 3 14 7 12 3 4 2v2l5 1 15 8v2h3v2l7 2 15 10 12 9 12 11 8 7 11 14 8 10 2 4 3 2 3 11 5 8 9 29 5 5 9 3 7-2 2-4 16-12 13-8 21-9 24-10 10-4 13-4 12-6 18-5 10-4 37-8 23-4 20-1 7 2 1 1-1 8-10 19-7 9-3 5h-2l-1 5h-2l-2 4-16 16-7 6h-2l-1 3h-3v2l-24 16-16 7h-2l-1 3-21 2-27 3-11 1h-15l-2 1h-7v-3l-24-2-16-2-9-2h-5l-2 4-5 5-2 13-1 2h-7v-15l3-7 5-1 2-4-15-3-12-4-13-7-6-2v-2l-9-3-8-5-5-2v-2h-3v-2l-5-1v-2h-3v-2h-3v-2l-4-1-3-2v-2h-3v-2l-4-1v-2l-4-1-1-3-4-1-5-5-8-7-8-8-9-11-1-4h-2v-3l-3-1-6-9-4-4v-2l-3-1-3-5v-2h-2l-3-9h-2l-3-9h-2l-8-16-3-9-1-11 1-3z" fill="#93BAB1"/>
<path transform="translate(515,202)" d="m0 0 6 1 3 7 2 4-5 13-16 33-9 15-12 16-9 11-13 16-4 5-12 9-13 12-19 14-14 9-8 4-10 8-7 10-11 17-5 8-1 6 16-1 10-4 16-13 8-8 10-7 18-11 11-6 6-4 6-1h11l39-8h11l28 4 18 4 4 2-1 5-6 8-8 8-11 9-16 12-19 13-18 12-11 7-11 1-19-1-17-3v-3l-9-2-14-3-8-1h-23l-13 3-12 8-10 5-10 13-4 6-2-3v-6l3-1 2-5 6-8 1-2-2-1 4-3-2-4 4-7 1-7-4 2 2-6 13-23 11-18 8-16 7-22 7-26 8-16 9-13 11-12 8-8 14-11 18-14 20-14 16-9z" fill="#E7D5C4"/>
<path transform="translate(1908,313)" d="m0 0h9l8 3 6 5 2 7-1 21-2 15-6 15-11 21-10 14-8 10-9 11-9 10-7 8-59 59-8 7-11 10-20 15-14 10-8 5-4 2v28l-2 57-1 15h-11v-132l-2-31-1-11 2 3 2 5 4 9 3-1 3-10 2-4 2 1-2 35 6-5 13-18 12-17 14-21 15-25 12-21 13-20 12-18 13-18 13-16 9-10 14-14 11-7z" fill="#C8DBE2"/>
<path transform="translate(191,261)" d="m0 0 8 1 9 6 9 10 12 20 6 14 5 19 1 14-2 21-7 28-10 19-11 15-1 11-5 6-6-3v35l3 29 2 25 1 3 6-11 5-8 2-6 2-17 7-21 7-13 11-12 17-13 15-12 9-3 4 2 2 5-2 20-7 31-7 16-7 10-13 11-16 9-15 8-11 8-2-2-6-1-1 6-3 1 1 20-1 15-1 3v28l-6-3-9-8 1-2 7 5 4 1-2-17-3-17-1-14-3-111-1-12-9-11-6-10-3-9-1-5v-25l7-48 3-32 2-23 5-4z" fill="#E7D5C5"/>
<path transform="translate(1589,404)" d="m0 0h9l10 4 10 9 12 17 12 25 5 15 9 34 4 23 3 30 5 12 8 21 2 3 4-2 12-16 15-11 5-1 5 3 4 6 1 3v9l-9 13-18 18-5 3 1 6 12 26 1 7h-12l-3-8-9-19-8-14-6-9-3-4-22 3-32 6-12 3h-13l-13-4-6-4-4-5-2-7v-6l9-8 5-4 2-5 8-1h21l24 2 13 4 13 6 1-4-12-17-9-11-12-14-14-15-11-12-9-11-9-12-7-14-6-28v-9l5-17 6-12 7-6z" fill="#C7DBE2"/>
<path transform="translate(881,232)" d="m0 0 2 1 1 3v36l-3 58-3 21-8 35-6 17-7 16-9 15-11 14-12 12-12 8-14 11-3 3-4-2-3-2-6-23-1-15 4-35 3-9 2-12 6-14 1-19 2-10 5-11 7-16 8-14 11-16 10-14 9-11 21-21 7-5z" fill="#92BAB1"/>
<path transform="translate(2e3 437)" d="m0 0h9l9 6 4 5-1 9-5 13-9 17-9 13-8 10-11 13-20 20-8 7-12 12-8 7-10 10-8 7-12 12-9 11-10 12-3 5 18-2 8-2h30l22 4 14 5 9 7 6 7 5 12 1 4h-147l1-6 4-8 6-10 9-13 12-17 11-17 8-15 9-30 8-24 9-17 8-10 13-13 8-7 8-8 28-22 10-6z" fill="#B6D0D1"/>
<path transform="translate(1287,298)" d="m0 0 6 1 9 6 8 10 2 7 4 35 4 43 5 81 1 43 2-2 3-14 4-47 3-38 6-31 6-21 3-4 7-3 7 1 8 4 10 1v45l-2 21-4 23-6 25-6 22-1-4v-12l3-6 2-3-2-15-7-15-5-5-6-1-5 3-4 9-4 6-5 47-3 13-3 6-3-3v9l3 7 4 6v6l-4-2-6-11-4-6 1-2 3 4v-15l-3-1-5-5-3-7-3-12-6-16-2-7v-5h-2l-1-5h-2l-3-8-3-12-5-12-5-18-5-17-3-18-1-11v-26l3-30 3-7 7-5z" fill="#B6D0D1"/>
<path transform="translate(1449,457)" d="m0 0h7l7 4 6 8 3 10v8l-3 14-8 21-11 21-10 16-15 22-7 9-11 14-12 14-3 4h-2l-2 4-5 6-5 2-2 10-1 13-1 4h-5l-1-8-5-1-21-1-31-4-25-6v-2h-4l2-7 1-9 6-8 12-9 2-1h11l22 9 5 3 6 7v2h8l-1-7-1-8h9l2 4-1 5 5-2 3-5 1-21 2-15 9-21 10-24 7-17 13-25 10-13 9-9 8-7z" fill="#92BAB1"/>
<path transform="translate(509,357)" d="m0 0h11l28 4 18 4 4 2-1 5-6 8-8 8-11 9-16 12-19 13-18 12-11 7-11 1-19-1-17-3v-3l-9-2-14-3-8-1-23-1 2-4-10-2-11-1v-1l14-1 10-4 16-13 8-8 10-7 18-11 11-6 6-4 6-1h11z" fill="#E7D5C5"/>
<path transform="translate(1692,325)" d="m0 0 9 1 13 4 6 3 9 6 10 6 7 5v2l4 2 5 6 3 5 4 25 2 10 2 1-2 16-5 16-4 18-3 15-3 12-2 12h-2l-4 12-2 3-3-1-4-9-2-5v-3h-2l-5-13-8-16-13-25-7-16-5-10-5-13-4-8-3-14-1-8-1-23 5-9 6-5z" fill="#B6D0D1"/>
<path transform="translate(926,545)" d="m0 0h10l20 10h11l5 4v10l-11 14-10 4-5 6-3 2-2 8-5 1-2 5-5 3-2 3-6 3-5 1-7 2-8 3-2 2-8-1-5-1-3 1-2 6-4 4-5 3v1l-31 3h-17l-21-1-4-2h2l-1-4-3-1 1-4 8-5 7-8 2-5-3-5-1-5 4-8 4-4h2v-2l4-3 5 2 1 1h6l8-4 14-3 5-4 4-12h2v-2l6-5h10l8-3h6l1-3 11-5h8z" fill="#6AA191"/>
<path transform="translate(447,565)" d="m0 0h24l11 1 3 3-2 6-10 13-9 11-11 12-12 12-8 7-9 8-15 10-10 7-5 6h-82l3-11 8-13 7-8 8-8 7-8 14-14 8-7 13-9 11-5 20-5 7-3 21-4z" fill="#E8D6C5"/>
<path transform="translate(1522,541)" d="m0 0 6 1 6 7 5 13 3 14v12l-6 20-7 13-11 15-11 17-5 8h-80l5-15 9-17 9-14 27-36 14-19 10-11 7-5 7-2z" fill="#B6D0D1"/>
<path transform="translate(1829,513)" d="m0 0h9l7 4 7 7 7 11 1 3v20l-12 61-14 41-1 1h-40l-6-13-2-6-2-19v-25l2-19 6-15 10-22 10-14 9-10 6-4z" fill="#B6D0D1"/>
<path transform="translate(416,444)" d="m0 0h9l5 4 2 1-1 8-11 25-3 6-6 10-4 8-14 15-14 14-10 6-6 3-24 5-7 6-5 1-18 1-8 1 4-4v-17l-2 1 2-6 13-26 10-13 11-10 15-10 33-16 23-11z" fill="#E7D5C5"/>
<path transform="translate(881,232)" d="m0 0 2 1 1 3v36l-3 58-3 21-8 35-6 17-7 16-9 15-11 14-12 12-12 8-13 10v-3l6-5 3-8 1-11-2-15-1-23v-25l4-8 7-6 9-5 4-3 5 1 4 4 5 13 5 8 2 4 5-1 6-12 1-9v-21l-2-12-3-9-2-21-3-14-5-14-8-6v-2l-3-1 11-14 22-22 7-5z" fill="#B6D0D1"/>
<path transform="translate(503,597)" d="m0 0h21l25 1 25 6 30 10 8 4 10 4 2 1v2l5 1 6 3v2l5 1 2 3 8 4 6 4 1 2 3 1v2l5 1 4 2v2h2l2 3v5h-135l-7-12-10-15-11-16-8-13-2-4v-3z" fill="#93BAB1"/>
<path transform="translate(1212,554)" d="m0 0 10 1 40 13 24 9 25 13 17 12 13 10 10 9 3 1-3-12-6-12-6-16-5-10 1-2 2 1 2-5 3-1 2-4 3 9 7 10 5 21 3 6 4-5 5-3 4-18h1l-2 32-5 7h-4v-7l-1-1h-8l2 14-1 1h-6l-8-8v-2l-5-2-22-9h-11l-9 6-7 6-4 8v8l-1 3h-2v2l4 1-10-1-7-3-25-10-17-9-13-10-1-1v-12l4-6-1-7-9-15 1-7z" fill="#B6D0D1"/>
<path transform="translate(310,198)" d="m0 0 5 1 9 6 9 10 10 14 6 12 8 24 3 31v30l-5 13-9 16-12 18-4 7-3 6-1 5-2-2v-6l7-14 10-15 1-4v-15l-3-9-5-10-9-9-4-6-10-4-7 1-9 4-9 13h-2v-8l11-34 6-29 3-22 2-21z" fill="#E8D5C4"/>
<path transform="translate(1206,417)" d="m0 0 9 3 10 7 14 11 11 9 7 6 9 11 12 14 3 4-1 2-3-3-6 1-2 2-1 4v29l6 15 3 6 7 11 4 4v4l3 1-2 1-15-6-10-6-11-9-19-19-9-11-8-11-13-20-8-16-3-10v-20l5-9 3-4z" fill="#B6D0D1"/>
<path transform="translate(1589,404)" d="m0 0h9l10 4 10 9 12 17 12 25 5 15 9 34 3 16v6l-5-5-7-9-4-6-7-5-16-8-13-7-7-6-3-1v-2l-5-1-2-4-4-2-6-1-5-1v5h-1l-6-28v-9l5-17 6-12 7-6z" fill="#C8DBE2"/>
<path transform="translate(0)" d="m0 0h7l1 32 1 451v178h-9z" fill="#B6D0D1"/>
<path transform="translate(1449,457)" d="m0 0h7l7 4 6 8 3 10v8l-3 14-8 21-11 21-10 16-15 22-7 9-8 10v-3l5-10 6-17v-11l-4-6-5-5v-8l-2-7-5-3-4 1-3 6-4 2-2 5-1-2 10-25 10-20 9-14 11-12 12-11z" fill="#B6D0D1"/>
<path transform="translate(284,418)" d="m0 0 6 2 2 5-2 20-7 31-7 16-7 10-13 11-16 9-15 8-11 8-2-2h-7l2-6 9-15 2-6 2-17 7-21 7-13 11-12 17-13 15-12z" fill="#E8D6C5"/>
<path transform="translate(1094,474)" d="m0 0h8l7 3 6 7 1 3v17l-6 12-8 7-2 1v137h-3l-1-33-1-17-4-1-11-8-11-4-14-1-9-3-11-9-5-8v-11l5-10 4-5 6-4 6-2h9l10 3 8 6 1 2 1 35 2 6 11 8 1 1v-60l-1-20-15-8-6-7v-16l4-11 5-6 7-3z" fill="#EAF1AC"/>
<path transform="translate(1360,364)" d="m0 0 7 1 8 4 10 1v45l-2 21-4 23-6 25-6 22-1-4v-12l3-6 2-3-2-15-7-15-5-5-6-1-5 3-4 9-3 4h-2l-1-7 1-22 4-26 6-26 4-11 5-3z" fill="#B6D0D1"/>
<path transform="translate(142,512)" d="m0 0 5 5 7 11 6 13 9 24 3 12 4 6 3 3-1 2-4-3h-2v2l-5-1-6-2h-4l-2 3-2 9 1 2-4-2-14-8-7-3v-2l-4-2-9-11-8-16-3-12 1-5 4-6 11-5 6-5 5-5z" fill="#E7D5C5"/>
<path transform="translate(1733,207)" d="m0 0 9 1 6 4 7 7 8 13 10 20-1 3-8-6-9-3-11 1-2 4-13 13-8 10-8 6-5 3-20 3-6 2-8 16-2-3 8-39 3-7 4-2 12-2 10-6 8-8 4-9 2-12 7-8z" fill="#C8DBE2"/>
<path transform="translate(307,296)" d="m0 0 7 1 8 4 7 9 7 7 6 13 1 7v13l-3 7-10 15-6 14h-2l1-11-7 1-5-3-5-6-6-10-4-4-6-12-1-7 1-10 3-10-3 5-2 5-2 1-1 6-2-2v-12l1-2h2l2-4 6-9 7-4z" fill="#D8C4AD"/>
<path transform="translate(1575,472)" d="m0 0h9l6 4 4 4 3 1v2l4 1 9 7 23 12 9 5 5 6 4 6v2l3 1 6 8 1 19v6l-2 6-3 11-2 3-5-5-13-16-12-14-14-15-11-12-9-11-9-12-6-11z" fill="#B6D0D1"/>
<path transform="translate(1212,554)" d="m0 0 10 1 40 13 12 5-1 4-5 4-4 16-5 9-6 5-8 3-2 2-2 7 3-1 2-2 1 1 3-3-1 6 5-3h7l4 1 1 10-2 2-20-8-17-9-13-10-1-1v-12l4-6-1-7-9-15 1-7z" fill="#B6D0D1"/>
<path transform="translate(1299,401)" d="m0 0 8 1 6 5 3 7 4 12 4 57v18l-1 22-5-2-5-5-3-7-3-12-6-16-2-7v-5h-2l-1-5h-2l-3-8-3-12-5-12-1-2-1-13 8-7 1-2h2l2-4z" fill="#92BAB1"/>
<path transform="translate(360,612)" d="m0 0 12 4 3 4v2l3 1 6 12 6 5 5 3 3 4-1 10-3 4h-82l3-11 8-13 7-8 8-8 9-6 6-2z" fill="#D8C4AD"/>
<path transform="translate(100,583)" d="m0 0 9 1 9 7 8 9 1 10 1 13-1 8-5 8-16 8-3 10-1 4h-2l-4-12-15-14-6-7-2-5v-16l5-10 10-11 6-2z" fill="#B6D0D1"/>
<path transform="translate(351,486)" d="m0 0 7 1 8 5 4 9 2 5 2 10 2 5-4 8-1 1-9 1-21 10-17 4-6 3h-7l-4-3 1-9 4-9 3-15 6-10 5-2 2-4 5-4 9-5z" fill="#D8C4AD"/>
<path transform="translate(503,597)" d="m0 0h21l25 1 25 6 10 3-4 1-10-3v2l-7 6-1 7 1 8-3 14-8 14-2 5h-12l-7-12-10-15-11-16-8-13-2-4v-3z" fill="#B6D0D1"/>
<path transform="translate(461,374)" d="m0 0 4 1-1 5-3 3h-2l-2 4-1 1v9l1 9-7 15-4 10-8 3-14-1-8-2v-2l-8-1-7-7v-8l6-11 4-6h2l2-4 5-3 5-2h3v-2l11-4 10-2z" fill="#D8C4AD"/>
<path transform="translate(1829,513)" d="m0 0h9l7 4 7 7 7 11 1 3v20l-2 11h-2v-11l-3-6-2-1h-12l-14 3-17 8-10 6-6 7h-2v2l-2 1-3 15h-1v-8l3-12 9-20 7-14 12-16 9-8z" fill="#C8DBE2"/>
<path transform="translate(1585,575)" d="m0 0h21l12 1 3 5 5 16-1 5-5 4-13 4-4 1v2l-12 4-10 1-12-5-6-7-2-7v-6l9-8 5-4 2-5z" fill="#B6D0D1"/>
<path transform="translate(2e3 437)" d="m0 0h9l9 6 4 5-1 9-5 13h-3l-7-6-8 1-16 8-9 4-9 5-10 7-8 6-6 2v2l-6 4-9 8-4 6h-2l-1 3-3 3-7 18-1-3 6-17 9-17 8-10 13-13 8-7 8-8 28-22 10-6z" fill="#C8DBE2"/>
<path transform="translate(206,535)" d="m0 0h6l1 4-7 8 1 17 4 32 3 13 5 8 4 6-1 7-1 6 8-4-2 7-5 9-3 13h-11l-1-21-3-13-4-5-9-7-13-11-7-5h-17l-2-4 3-9 2-3 6 1 9 3v-2l3-1 11 10 3 5 9 7 2 1v-27l1-3 1-16v-19l2-1z" fill="#E7C9AD"/>
<path transform="translate(733,527)" d="m0 0 4 2 7 7 10 7 7 3 5 1h10l16-7 8-4h6l10 7 3 2h18l11-2 12-5 12-6 2 1-10 6-17 7-19 6-3 2-25 4-18 1-10 1-3-1-2 6-2 18-6 17-2 5v7l6-1-4 3-5 1-9-4-5-7-8-27-6-11-1-6 3 3 7 10 6 15 5 6 4-4 4-13 3-18 1-2v-6l-5-5-11-9-9-9z" fill="#B8D1D2"/>
<path transform="translate(1206,417)" d="m0 0 9 3 10 7 10 8v2l-6 4-2 7-1 16-1 12-3 19-1 5-3-1-10-16-8-13-6-15-1-4v-20l5-9 3-4z" fill="#B6D0D1"/>
<path transform="translate(1134,593)" d="m0 0 9 2 6 4 6 7 4 12v11l-4 6-7 6-10 4-3 1h-9l-14-5-2-1v-2h-2l1-11 5-14 8-13 6-5z" fill="#F4F3BE"/>
<path transform="translate(799,341)" d="m0 0h1l-1 10-1 19-6 14-2 12-3 9-4 35 1 15 5 20v3l4 2 2 3-6 8-1 3-2 20-6 11 1 2 14-16 16-16 1 2-6 11-4 6-4 5h-2l-2 4-11 7-6 3-5-2-3-4-1-10-4-10-4-16-4-13-2-11-5-16-12-26-8-14-8-12 1-2 8 11 12 20 11 23 13 42 6 30 3 3 2-5v-81l3-23 8-38 10-33z" fill="#B7D0D2"/>
<path transform="translate(662,340)" d="m0 0 7 2 9 7 23 23 7 8 10 11 3 4-1 2-7-6-16-4-14-5-7-3-5-1-4 2-6 11-1 6 1 9-2-3-5-21-2-12v-18l4-8 3-3z" fill="#B6D0D1"/>
<path transform="translate(1512,619)" d="m0 0h4l4 10-2 7-11 17-5 8h-65l3-3 12-6 15-8 5-4 17-10 12-4z" fill="#92BAB1"/>
<path transform="translate(1051,545)" d="m0 0h9l10 3 8 6 1 2v6l-4 2-9 9-5 8-4 3-6 2-3 5v3l-5-2-8-7-5-8v-11l5-10 4-5 6-4z" fill="#F8F0DA"/>
<path transform="translate(344,632)" d="m0 0h9l7 4 9 9 9 6 5 7v3h-71l3-11 9-5 5-6z" fill="#D2B698"/>
<path transform="translate(1094,474)" d="m0 0h8l7 3 6 7 1 3v17l-2 5-7-3-12 2h-8v2l-8 3-4 2-3-4v-16l4-11 5-6 7-3z" fill="#F6F4BD"/>
<path transform="translate(1212,554)" d="m0 0 10 1 21 7-4 4-5 3v7l4 7 5 7v7l-3 3-12 5-5 8-7-4-3-3v-12l4-6-1-7-9-15 1-7z" fill="#C8DBE2"/>
<path transform="translate(1360,364)" d="m0 0 7 1 8 4 10 1v28l-11 3-10-1-3-2-16 1-2 1 2-12 5-17 3-4z" fill="#B6D0D1"/>
<path transform="translate(956,537)" d="m0 0h14l12 2 6 3-2 8-9 16-6 5v-12l-4-3h-11l-17-8-3-2h-10l-7 2-7-1 1-2z" fill="#92BAB1"/>
<path transform="translate(1149,620)" d="m0 0 4 1 4 7-2 7-7 6-10 4-3 1h-9l-14-5-2-1v-2h-2v-6l4-8 7-3 9 2 7 3h7z" fill="#E8F0AC"/>
<path transform="translate(1066,628)" d="m0 0h6l7 6 2 5v11l-5 10-1 1h-18l-6-9-2-6v-6l4-6 6-4z" fill="#F6F4BD"/>
<path transform="translate(1754,220)" d="m0 0 5 5 12 23 2 4-1 3-8-6-9-3-11 1-2 4-13 13-8 10-8 6-5 3-20 3-6 2 5-5 6-2 12-1 10-6h2l2-4 6-8 7-11 8-12 6-8 4-2-5 1-5 3-2 2 1-6 3-3 9-3z" fill="#B6D0D1"/>
<path transform="translate(721,397)" d="m0 0 5 5 15 24 12 25 13 42 6 30 3 3 2-5v-62h1l1 45 1 8 5-4-2-1h3v7l-6 11 1 2 14-16 16-16 1 2-6 11-4 6-4 5h-2l-2 4-11 7-6 3-5-2-3-4-1-10-4-10-4-16-4-13-2-11-5-16-12-26-8-14-8-12z" fill="#B8D1D2"/>
<path transform="translate(970,571)" d="m0 0 2 1-3 5h-2l-1 5h-2l-2 4-16 16-7 6h-2l-1 3h-3v2l-24 16-16 7h-2l-1 3-21 2-27 3-11 1h-15l-2 1h-7v-3l-4-1h20l18 1v-2l24-2 6-1 4-3 4-2 2-3 2-6 5-1 6 2h5l3-3 11-3 4-2h5l5-3 4-5 3-1 2-4 5-1 1-8 5-5 6-5 8-3 7-9z" fill="#96BCB4"/>
<path transform="translate(393,330)" d="m0 0 5 1 4 3v2l4 2 6 6-1 6-6 8-2 5-3 4-7 1-9-1-3-3-1-2v-8l2-9z" fill="#D8C4AD"/>
<path transform="translate(1077,557)" d="m0 0h1l1 5 1 29 2 6 11 8 1 1 1-15h1v23l-1-3-4-1-11-8-11-4-14-1-7-2-1-4 3-5 5-3 4-1 4-5 4-6 9-9z" fill="#EAF2AC"/>
<path transform="translate(1343,561)" d="m0 0h1l3 9 7 10 5 21 3 6 4-5 5-3 4-18h1l-2 32-5 7h-4v-7l-1-1h-8v9l-2 2-2-10-7-15-6-16-5-10 1-2 2 1 2-5 3-1z" fill="#B7D0D2"/>
<path transform="translate(447,565)" d="m0 0h24l11 1 3 3-2 6-10 13-3 1-2-5-25-6v-2l-4-2-2-6 2-2z" fill="#D9C5AE"/>
<path transform="translate(1266,570)" d="m0 0 8 3-1 4-5 4-4 16-5 9-6 5-8 3-2 2-2 7 3-1 2-2 1 1 3-3-1 6 5-3h7l4 1 1 10-2 2-20-8-10-5v-8l4-4 14-5 4-5 1-8-1-11 4-4 1-3z" fill="#C8DBE2"/>
<path transform="translate(196,612)" d="m0 0h9l4 5 5 14 2-2 2-11 5 5-1 7-1 6 8-4-2 7-5 9-3 13h-9l-2-27-4-13-6-4z" fill="#D2B698"/>
<path transform="translate(97,621)" d="m0 0h13l8 5 4 9v4l-13 6h-6v-2h-2v-2l-5-2-6-3v-7l4-5z" fill="#93BAB1"/>
<path transform="translate(1382,382)" d="m0 0h3v16l-11 3-10-1-3-2-16 1-2 1 2-12 3-3 8-1 3 2h17z" fill="#C8DBE2"/>
<path transform="translate(1206,417)" d="m0 0 6 2-2 1-2 6-3 5-1 10v9l1 11v10l1 7-4-4-7-16-2-7v-20l5-9 3-4z" fill="#C8DBE2"/>
<path transform="translate(1212,554)" d="m0 0 10 1-2 1-2 4-1 1 1 8 6 10 6 8v6l-8 5-3 6-2 5-4-3v-12l4-6-1-7-9-15 1-7z" fill="#B6D0D1"/>
<path transform="translate(134,502)" d="m0 0 3 1 6 9-5 3-7 3-5 5-6 5-10 3-2 5-3 2-2-7-1-14h10l6 1h2l2-4 6-7h2l2-4z" fill="#F8F0DA"/>
<path transform="translate(1733,207)" d="m0 0 9 1 2 2-7 3-5 3-3 7-2 9-5 8-5 6-13 9-9 3-9 1h-4l1-4 4-2 12-2 10-6 8-8 4-9 2-12 7-8z" fill="#B6D0D1"/>
<path transform="translate(1124,541)" d="m0 0 7 1 6 5 1 2v8l-6 7-2 1h-9l-6-3v-11l3-5 4-4z" fill="#E9EFAD"/>
<path transform="translate(1229,434)" d="m0 0 4 1 2 2-6 4-2 7-1 16-1 12-3 19-1 5-3-1-2-5 1-21 1-7v-9l3-15 6-7z" fill="#C8DBE2"/>
<path transform="translate(721,397)" d="m0 0 5 5 15 24 12 25 13 42 5 25v2h-2l-5-13-4-16-4-13-2-11-5-16-12-26-8-14-8-12z" fill="#B7D0D1"/>
<path transform="translate(308,322)" d="m0 0 2 1v2l3 1 3 6 4 4v5l-4 5-5 1-6 3-3-3-1-10v-8l1-3z" fill="#D2B698"/>
<path transform="translate(1077,557)" d="m0 0h1l1 5v11l-1-4-7 3-6 16-2 9h-8l-7-2-1-4 3-5 5-3 4-1 4-5 4-6 9-9z" fill="#F6F4BD"/>
<path transform="translate(976,533)" d="m0 0 11 1 3 2-1 8-2 2v-4l-8-3-9-1h-14l-43 8-11 3-14 5-10 2-4-1 18-5 10-4 37-8 23-4z" fill="#B9D1D3"/>
<path transform="translate(535,599)" d="m0 0h8l-2 5-10 4-16 5-3 2-2 3-5-8 1-5 4-3h14l9-2z" fill="#C8DBE2"/>
<path transform="translate(1336,454)" d="m0 0h1l1 9-5 47-3 13-3 6-3-3v9l3 7 4 6v6l-4-2-6-11-4-6 1-2 3 4v-14h2v-22l1-19h1l1 42 2-2 3-14 4-47z" fill="#BAD2D5"/>
<path transform="translate(191,261)" d="m0 0 8 1 9 6 5 5v2l-6-1-9 2-3 1-6-3-1-2-3-1v-2h-3l1-4z" fill="#D9C5AE"/>
<path transform="translate(1734,630)" d="m0 0 5 1 1 4h2l1 15v11h-10v-29z" fill="#B6D0D1"/>
<path transform="translate(312,385)" d="m0 0 2 2 3 7-1 16-1 6 2 1-3 1-1 2-3-2-2-11h-2v20h-1v-23l1-9 4-6z" fill="#E8D6C5"/>
<path transform="translate(970,571)" d="m0 0 2 1-3 5h-2l-1 5h-2l-2 4-16 16-7 6h-2l-1 3h-3v2l-7 5h-2l1-3 5-5 4-2 2-4 5-1 1-8 5-5 6-5 8-3 7-9z" fill="#98BDB6"/>
<path transform="translate(1586,422)" d="m0 0 6 2 4 6v2l5 2 7 7 14 11 7 7 9 11 7 12 4 1 3 9-1 4-10-16-10-13-20-20-8-6v-2l-4-2-7-6z" fill="#B6D0D1"/>
<path transform="translate(1863,650)" d="m0 0 12 1 11 4 2 1v5h-31l2-6z" fill="#FCFCFC"/>
<path transform="translate(1744,570)" d="m0 0h2v19l-2 46h-1l-2-23-1-31h-2l-2 3v-11l1-2h4l1 4 2 1z" fill="#C5D9DF"/>
<path transform="translate(799,341)" d="m0 0h1l-1 10-1 19-6 14-2 12-3 9-2 1-1 5h-2l1-9 5-23 10-33z" fill="#B9D1D3"/>
<path transform="translate(746,633)" d="m0 0 12 2v1l-5 1-2 4-5 5-2 13-1 2h-7v-15l3-7 5-1z" fill="#B7D1D2"/>
<path transform="translate(2009,437)" d="m0 0 8 4 6 7-1 9-2 4-2-2-4-8-5-6-7-3 2-4z" fill="#C6DAE0"/>
<path transform="translate(1206,417)" d="m0 0 2 1-7 10-4 11v12l1 12-2-2-3-10v-20l5-9 3-4z" fill="#B6D0D1"/>
<path transform="translate(1775,291)" d="m0 0h1v36l-2 8h-4v-2h3l-2-5-2 1-2-6 3-9 1-7 3-5z" fill="#B7D0D2"/>
<path transform="translate(1066,628)" d="m0 0h6l7 6v4l-16 1-6-4v-4z" fill="#EAF2AC"/>
<path transform="translate(65,650)" d="m0 0h8l8 4-1 7h-17v-10z" fill="#95BCB4"/>
<path transform="translate(785,553)" d="m0 0h14l8 1 16-1-4 2-19 3-18 1-10 1-3-3 6-2z" fill="#C6DAE0"/>
<path transform="translate(137,651)" d="m0 0h11l6 2v2h2l-1 6h-18l-1-9z" fill="#9BBEB6"/>
<path transform="translate(1085,476)" d="m0 0h5l-6 12-2 5-10 6 1-8 5-10 5-4z" fill="#F6EED8"/>
<path transform="translate(663,498)" d="m0 0 5 2 13 10 12 11 8 7 11 14 4 5-1 2-9-10-7-8-17-16-11-10-8-6z" fill="#DDD4C7"/>
<path transform="translate(360,421)" d="m0 0h11l10 2v4h-2v2h-10l-13-3v-4z" fill="#E8C8AB"/>
<path transform="translate(976,533)" d="m0 0 11 1 3 2-1 8-2 2v-4l-8-3-20-2-2-2 5-1z" fill="#B7D0D1"/>
<path transform="translate(157,583)" d="m0 0 6 1 7 3-3 2-6 3-1 7h-6l-2-4 3-9z" fill="#D8C4AE"/>
<path transform="translate(1446,620)" d="m0 0 2 3 1 5-4 2-2 5-5 5v1h-5l2-10 6-6z" fill="#C8DBE2"/>
<path transform="translate(777,459)" d="m0 0h1l1 45 1 8 5-4-2-1h3v7l-4 7-4 1-1-7z" fill="#C6DAE1"/>
<path transform="translate(1286,640)" d="m0 0 11 1 30 6 16 2 20 1v1h-21l-31-4-25-6z" fill="#BCD4D7"/>
<path transform="translate(1837,538)" d="m0 0h11l7 3 3 3 2-1v10l-2 4-1-9-2-3-13-4-8 1-7 1 2-2z" fill="#B6D0D1"/>
<path transform="translate(1375,581)" d="m0 0h1l-2 27-2 2h-3l-1-2-4-1 2-5 5-3z" fill="#C1D7DB"/>
<path transform="translate(1322,525)" d="m0 0h1l2 14 6 9v6l-4-2-6-11-4-6 1-2 3 4z" fill="#C0D6DA"/>
<path transform="translate(721,397)" d="m0 0 5 5 15 24 7 15-4-1-9-19-13-21z" fill="#CBD3CD"/>
<path transform="translate(1050,548)" d="m0 0 6 1 2 8-3 3h-5l-2-3 1-7z" fill="#F6F5BD"/>
<path transform="translate(2009,437)" d="m0 0 3 2-3 4 5 2 6 8 1 1v6l-2 1-5-10-5-6-7-3 2-4z" fill="#B7D0D1"/>
<path transform="translate(1854,651)" d="m0 0 4 1 1 4-2 5h-11l2-5 3-4z" fill="#94BBB3"/>
<path transform="translate(1452,463)" d="m0 0 2 1-6 4-19 8-2 1 2-4 7-6z" fill="#C6DAE1"/>
<path transform="translate(1737,571)" d="m0 0h4l1 4v37h-1l-1-31h-2l-2 3v-11z" fill="#B6D0D1"/>
<path transform="translate(803,642)" d="m0 0h47v1l-14 2h-20l-2 1h-7v-3z" fill="#BAD2D4"/>
<path transform="translate(1976,636)" d="m0 0 5 2 3 5-3 6h-3l-5-10z" fill="#93BBB2"/>
<path transform="translate(1690,641)" d="m0 0 7 6 3 3 3 9v2h-4l-3-6-3-8-3-3z" fill="#B6D0D1"/>
<path transform="translate(1926,319)" d="m0 0h2l-2 4-2 10-2 19h-1l-1-13 2-14z" fill="#B6D0D1"/>
<path transform="translate(1324,482)" d="m0 0h1v43l-2 1-2-1v-2h2v-22z" fill="#BAD2D4"/>
<path transform="translate(343,417)" d="m0 0h2v7l-4 7h-4l1-8 2-4z" fill="#E8C8AC"/>
<path transform="translate(1743,599)" d="m0 0h1l1 5-1 31h-1l-1-10v-20z" fill="#BFD5D9"/>
<path transform="translate(1907,622)" d="m0 0h29v2l-30 1z" fill="#C2D7DC"/>
<path transform="translate(954,535)" d="m0 0 5 1-3 2-21 4h-5v-2z" fill="#BDD2D1"/>
<path transform="translate(1287,308)" d="m0 0h8l2 2-10 1-10 6-4 1v-3l10-6z" fill="#C9DCE3"/>
<path transform="translate(1308,497)" d="m0 0 3 4 5 13 2 5-6-4-4-15z" fill="#C0D6DB"/>
<path transform="translate(1095,591)" d="m0 0h1v23l-1-3-4-1-4-4 3-1 1-2 3 3z" fill="#F6F3C7"/>
<path transform="translate(322,511)" d="m0 0 2 2-5 12v5h-3v-9l3-8z" fill="#E8C8AB"/>
<path transform="translate(1347,411)" d="m0 0 6 2 8 5 2 3-5-2-9-4-8 1 2-4z" fill="#C9DCE3"/>
<path transform="translate(311,236)" d="m0 0 3 1v7l-2 3-4-1 1-7z" fill="#D8C4AD"/>
<path transform="translate(761,587)" d="m0 0 2 1-3 9-2 5-2-1v-7z" fill="#C3D8DE"/>
<path transform="translate(295,559)" d="m0 0 4 1-11 9-5 3h-2v-2l13-10z" fill="#E8D6C5"/>
<path transform="translate(942,403)" d="m0 0 5 1 5 8v9l-2 4-1-12-4-8z" fill="#B6D0D1"/>
<path transform="translate(1374,645)" d="m0 0h1v12l-1 4h-5l-1-8 2 1v2l3-1z" fill="#B9D1D3"/>
<path transform="translate(1761,363)" d="m0 0h1l2 18 2 8-2 2v-4l-2-1-2-21z" fill="#B6D0D1"/>
<path transform="translate(1286,640)" d="m0 0 11 1 15 3 2 2-3 1-25-6z" fill="#B8D1D3"/>
<path transform="translate(337,424)" d="m0 0 1 3-1 4h2v2l-7 5-1-3z" fill="#E7D5C4"/>
<path transform="translate(780,556)" d="m0 0h10l10 1v1l-25 1 2-2z" fill="#B6D0D1"/>
<path transform="translate(1753,344)" d="m0 0 5 4v2l2 1 1 4v8l-2-1-2-8-4-8z" fill="#B6D0D1"/>
<path transform="translate(1742,514)" d="m0 0h1v8l-5 3-4-2-1-6 3 4 4-2z" fill="#B6D0D1"/>
<path transform="translate(1304,512)" d="m0 0 5 4 5 5 2 10-3-4-6-9-3-4z" fill="#BBD1D2"/>
<path transform="translate(754,607)" d="m0 0h2l1 5 6-1-4 3-5 1-4-3v-2l3-1v2h2z" fill="#BED4D7"/>
<path transform="translate(738,653)" d="m0 0h2v2l3 1-1 5h-5v-7z" fill="#92BAB1"/>
<path transform="translate(746,633)" d="m0 0 12 2v1l-5 1-2 2-6-1z" fill="#C2D8DD"/>
<path transform="translate(1986,649)" d="m0 0 2 4-1 8-4-1 2-9z" fill="#C9DCE3"/>
<path transform="translate(725,560)" d="m0 0 3 3 3 4 2 8h-2l-5-9z" fill="#D4D3CA"/>
<path transform="translate(1322,525)" d="m0 0h1l1 15h-4l-3-5 1-2 3 4z" fill="#C0D6DB"/>
<path transform="translate(1332,507)" d="m0 0 1 3-3 13-3 6-2-1 1-4 2-2 3-14z" fill="#BED5D8"/>
<path transform="translate(663,498)" d="m0 0 5 2 11 8-1 3-10-8z" fill="#D5D3C9"/>
<path transform="translate(1692,650)" d="m0 0 3 3 2 8-4-1-2-9z" fill="#BAD2D4"/>
<path transform="translate(1891,587)" d="m0 0 1 2-3 7-5 6-2-1z" fill="#C6DAE0"/>
<path transform="translate(780,554)" d="m0 0m-5 1h5v2l-5 1v2l-5-1v-3z" fill="#C4D9DF"/>
<path transform="translate(1733,653)" d="m0 0 4 2 1 6h-5z" fill="#97BDB6"/>
<path transform="translate(745,441)" d="m0 0 4 1 3 7v3l-3-1z" fill="#BAD1D1"/>
<path transform="translate(521,203)" d="m0 0 4 2 2 2v5l-4-2z" fill="#F8F0DA"/>
<path transform="translate(954,535)" d="m0 0 5 1-3 2-11 1v-2z" fill="#C4D3D0"/>
<path transform="translate(1990,654)" d="m0 0 2 3 1 4h-6v-5z" fill="#BAD3D5"/>
<path transform="translate(1324,539)" d="m0 0 5 5-1 2-2-1-1 3-3-5z" fill="#B6D0D1"/>
<path transform="translate(324,391)" d="m0 0 1 4-3 12h-1v-9z" fill="#E8D6C5"/>
</svg>
